{
.appVersion = "1342";
DisplayStrings = (
"Once/space Upon/space a/space Timmme/space There/space lived/space an/space Arsehole/space whose/space Entire/space Life/space was/space Surrounded/space By/space similar/space arseholes",
"ADHESIDOMN\012BPRD/space COQGS/space EFLHJITU/space KYVXZW"
);
customParameters = (
{
name = licenseURL;
value = "http://scripts.sil.org/OFL";
},
{
name = license;
value = "This Font Software is licensed under the SIL Open Font License, Version 1.1. This license is available with a FAQ at: http://scripts.sil.org/OFL";
},
{
name = vendorID;
value = SUBY;
},
{
name = panose;
value = (
3,
8,
9,
2,
4,
3,
2,
2,
2,
0
);
},
{
name = unicodeRanges;
value = (
0,
1,
2,
3,
4,
5,
6,
16,
29,
31,
32,
33,
35,
36,
37,
38,
45,
62
);
},
{
name = fsType;
value = (
);
},
{
name = blueScale;
value = 0.03333;
},
{
name = blueShift;
value = 15;
},
{
name = glyphOrder;
value = (
.notdef,
NULL,
CR,
space,
exclam,
quotedbl,
numbersign,
dollar,
percent,
ampersand,
quotesingle,
parenleft,
parenright,
asterisk,
plus,
comma,
hyphen,
period,
slash,
zero,
one,
two,
three,
four,
five,
six,
seven,
eight,
nine,
colon,
semicolon,
less,
equal,
greater,
question,
at,
A,
B,
C,
D,
E,
F,
G,
H,
I,
J,
K,
L,
M,
N,
O,
P,
Q,
R,
S,
T,
U,
V,
W,
X,
Y,
Z,
bracketleft,
backslash,
bracketright,
asciicircum,
underscore,
grave,
a,
b,
c,
d,
e,
f,
g,
h,
i,
j,
k,
l,
m,
n,
o,
p,
q,
r,
s,
t,
u,
v,
w,
x,
y,
z,
braceleft,
bar,
braceright,
asciitilde,
uni00A0,
exclamdown,
cent,
sterling,
currency,
yen,
brokenbar,
section,
dieresis,
copyright,
ordfeminine,
guillemotleft,
logicalnot,
uni00AD,
registered,
macron,
degree,
plusminus,
twosuperior,
threesuperior,
acute,
mu,
paragraph,
periodcentered,
cedilla,
onesuperior,
ordmasculine,
guillemotright,
onequarter,
onehalf,
threequarters,
questiondown,
Agrave,
Aacute,
Acircumflex,
Atilde,
Adieresis,
Aring,
AE,
Ccedilla,
Egrave,
Eacute,
Ecircumflex,
Edieresis,
Igrave,
Iacute,
Icircumflex,
Idieresis,
Eth,
Ntilde,
Ograve,
Oacute,
Ocircumflex,
Otilde,

glyphs = (
{
glyphname = exclam;
lastChange = "2021-02-18 09:46:58 +0000";
layers = (
{
background = {
paths = (
{
closed = 1;
nodes = (
"209 655 OFFCURVE",
"196 655 OFFCURVE",
"184 655 CURVE",
"176 655 OFFCURVE",
"166 653 OFFCURVE",
"164 635 CURVE SMOOTH",
"158 583 OFFCURVE",
"155 490 OFFCURVE",
"137 314 CURVE SMOOTH",
"134 288 OFFCURVE",
"132 193 OFFCURVE",
"153 193 CURVE SMOOTH",
"164 193 OFFCURVE",
"173 193 OFFCURVE",
"183 193 CURVE SMOOTH",
"211 193 OFFCURVE",
"227 288 OFFCURVE",
"230 314 CURVE SMOOTH",
"248 492 OFFCURVE",
"265 582 OFFCURVE",
"271 635 CURVE SMOOTH",
"273 653 OFFCURVE",
"264 655 OFFCURVE",
"255 655 CURVE"
);
},
{
closed = 1;
nodes = (
"194 0 OFFCURVE",
"221 27 OFFCURVE",
"221 60 CURVE SMOOTH",
"221 93 OFFCURVE",
"194 120 OFFCURVE",
"161 120 CURVE SMOOTH",
"128 120 OFFCURVE",
"101 93 OFFCURVE",
"101 60 CURVE SMOOTH",
"101 27 OFFCURVE",
"128 0 OFFCURVE",
"161 0 CURVE SMOOTH"
);
}
);
};
layerId = "555B79C6-6D98-46E7-9307-77C37975E414";
paths = (
{
closed = 1;
nodes = (
"214 655 OFFCURVE",
"186 655 OFFCURVE",
"174 655 CURVE",
"166 655 OFFCURVE",
"156 653 OFFCURVE",
"154 635 CURVE SMOOTH",
"148 583 OFFCURVE",
"145 490 OFFCURVE",
"127 314 CURVE SMOOTH",
"124 288 OFFCURVE",
"127 193 OFFCURVE",
"148 193 CURVE SMOOTH",
"159 193 OFFCURVE",
"183 193 OFFCURVE",
"193 193 CURVE SMOOTH",
"221 193 OFFCURVE",
"242 288 OFFCURVE",
"245 314 CURVE SMOOTH",
"263 492 OFFCURVE",
"280 582 OFFCURVE",
"286 635 CURVE SMOOTH",
"288 653 OFFCURVE",
"279 655 OFFCURVE",
"270 655 CURVE"
);
},
{
closed = 1;
nodes = (
"203 -16 OFFCURVE",
"237 18 OFFCURVE",
"237 60 CURVE SMOOTH",
"237 102 OFFCURVE",
"203 136 OFFCURVE",
"161 136 CURVE SMOOTH",
"119 136 OFFCURVE",
"85 102 OFFCURVE",
"85 60 CURVE SMOOTH",
"85 18 OFFCURVE",
"119 -16 OFFCURVE",
"161 -16 CURVE SMOOTH"
);
}
);
width = 321;
},
{
background = {
paths = (
{
closed = 1;
nodes = (
"180 475 OFFCURVE",
"172 475 OFFCURVE",
"160 475 CURVE",
"152 475 OFFCURVE",
"142 473 OFFCURVE",
"140 455 CURVE SMOOTH",
"134 403 OFFCURVE",
"122 235 OFFCURVE",
"109 98 CURVE SMOOTH",
"102 28 OFFCURVE",
"94 -2 OFFCURVE",
"120 -2 CURVE SMOOTH",
"144 -2 OFFCURVE",
"206 51 OFFCURVE",
"213 134 CURVE SMOOTH",
"225 282 OFFCURVE",
"236 402 OFFCURVE",
"242 455 CURVE SMOOTH",
"244 473 OFFCURVE",
"235 475 OFFCURVE",
"226 475 CURVE"
);
},
{
closed = 1;
nodes = (
"240 588 OFFCURVE",
"267 615 OFFCURVE",
"267 648 CURVE SMOOTH",
"267 681 OFFCURVE",
"240 708 OFFCURVE",
"207 708 CURVE SMOOTH",
"174 708 OFFCURVE",
"147 681 OFFCURVE",
"147 648 CURVE SMOOTH",
"147 615 OFFCURVE",
"174 588 OFFCURVE",
"207 588 CURVE SMOOTH"
);
}
);
};
layerId = "B0B60A8F-2DEB-4A58-A43B-60A0DADABD8F";
paths = (
{
closed = 1;
nodes = (
"203 655 OFFCURVE",
"190 655 OFFCURVE",
"178 655 CURVE",
"170 655 OFFCURVE",
"160 653 OFFCURVE",
"158 635 CURVE SMOOTH",
"152 583 OFFCURVE",
"149 490 OFFCURVE",
"131 314 CURVE SMOOTH",
"128 288 OFFCURVE",
"126 193 OFFCURVE",
"147 193 CURVE SMOOTH",
"158 193 OFFCURVE",
"167 193 OFFCURVE",
"177 193 CURVE SMOOTH",
"205 193 OFFCURVE",
"221 288 OFFCURVE",
"224 314 CURVE SMOOTH",
"242 492 OFFCURVE",
"259 582 OFFCURVE",
"265 635 CURVE SMOOTH",
"267 653 OFFCURVE",
"258 655 OFFCURVE",
"249 655 CURVE"
);
},
{
closed = 1;
nodes = (
"188 0 OFFCURVE",
"215 27 OFFCURVE",
"215 60 CURVE SMOOTH",
"215 93 OFFCURVE",
"188 120 OFFCURVE",
"155 120 CURVE SMOOTH",
"122 120 OFFCURVE",
"95 93 OFFCURVE",
"95 60 CURVE SMOOTH",
"95 27 OFFCURVE",
"122 0 OFFCURVE",
"155 0 CURVE SMOOTH"
);
}
);
width = 300;
}
);
unicode = 0021;
},
{
glyphname = quotedbl;
lastChange = "2021-02-16 07:29:30 +0000";
layers = (
{
background = {
paths = (
{
closed = 1;
nodes = (
"96 499 OFFCURVE",
"133 592 OFFCURVE",
"133 601 CURVE SMOOTH",
"133 610 OFFCURVE",
"127 611 OFFCURVE",
"124 611 CURVE SMOOTH",
"120 611 OFFCURVE",
"117 607 OFFCURVE",
"110 607 CURVE SMOOTH",
"106 607 OFFCURVE",
"99 607 OFFCURVE",
"94 607 CURVE SMOOTH",
"87 607 OFFCURVE",
"84 611 OFFCURVE",
"85 620 CURVE SMOOTH",
"86 630 OFFCURVE",
"90 663 OFFCURVE",
"92 680 CURVE SMOOTH",
"94 696 OFFCURVE",
"104 700 OFFCURVE",
"116 700 CURVE SMOOTH",
"168 700 OFFCURVE",
"202 662 OFFCURVE",
"202 611 CURVE SMOOTH",
"202 534 OFFCURVE",
"136 475 OFFCURVE",
"108 475 CURVE SMOOTH",
"100 475 OFFCURVE",
"96 478 OFFCURVE",
"96 483 CURVE SMOOTH"
);
},
{
closed = 1;
nodes = (
"256 499 OFFCURVE",
"293 592 OFFCURVE",
"293 601 CURVE SMOOTH",
"293 610 OFFCURVE",
"287 611 OFFCURVE",
"284 611 CURVE SMOOTH",
"280 611 OFFCURVE",
"277 607 OFFCURVE",
"270 607 CURVE SMOOTH",
"266 607 OFFCURVE",
"259 607 OFFCURVE",
"254 607 CURVE SMOOTH",
"247 607 OFFCURVE",
"244 611 OFFCURVE",
"245 620 CURVE SMOOTH",
"246 630 OFFCURVE",
"250 663 OFFCURVE",
"252 680 CURVE SMOOTH",
"254 696 OFFCURVE",
"264 700 OFFCURVE",
"276 700 CURVE SMOOTH",
"328 700 OFFCURVE",
"362 662 OFFCURVE",
"362 611 CURVE SMOOTH",
"362 534 OFFCURVE",
"296 475 OFFCURVE",
"268 475 CURVE SMOOTH",
"260 475 OFFCURVE",
"256 478 OFFCURVE",
"256 483 CURVE SMOOTH"
);
}
);
};
layerId = "555B79C6-6D98-46E7-9307-77C37975E414";
paths = (
{
closed = 1;
nodes = (
"86 505 OFFCURVE",
"131 579 OFFCURVE",
"131 596 CURVE SMOOTH",
"131 603 OFFCURVE",
"126 604 OFFCURVE",
"123 604 CURVE SMOOTH",
"118 604 OFFCURVE",
"116 597 OFFCURVE",
"109 597 CURVE SMOOTH",
"105 597 OFFCURVE",
"94 597 OFFCURVE",
"87 597 CURVE SMOOTH",
"76 597 OFFCURVE",
"74 605 OFFCURVE",
"75 614 CURVE SMOOTH",
"76 628 OFFCURVE",
"80 663 OFFCURVE",
"82 680 CURVE SMOOTH",
"84 696 OFFCURVE",
"93 710 OFFCURVE",
"113 710 CURVE SMOOTH",
"172 710 OFFCURVE",
"217 667 OFFCURVE",
"217 611 CURVE SMOOTH",
"217 539 OFFCURVE",
"148 465 OFFCURVE",
"103 465 CURVE SMOOTH",
"92 465 OFFCURVE",
"86 471 OFFCURVE",
"86 481 CURVE SMOOTH"
);
},
{
closed = 1;
nodes = (
"246 505 OFFCURVE",
"291 579 OFFCURVE",
"291 596 CURVE SMOOTH",
"291 603 OFFCURVE",
"286 604 OFFCURVE",
"283 604 CURVE SMOOTH",
"278 604 OFFCURVE",
"276 597 OFFCURVE",
"269 597 CURVE SMOOTH",
"265 597 OFFCURVE",
"254 597 OFFCURVE",
"247 597 CURVE SMOOTH",
"236 597 OFFCURVE",
"234 605 OFFCURVE",
"235 614 CURVE SMOOTH",
"236 628 OFFCURVE",
"240 663 OFFCURVE",
"242 680 CURVE SMOOTH",
"244 696 OFFCURVE",
"253 710 OFFCURVE",
"273 710 CURVE SMOOTH",
"332 710 OFFCURVE",
"377 667 OFFCURVE",
"377 611 CURVE SMOOTH",
"377 539 OFFCURVE",
"308 465 OFFCURVE",
"263 465 CURVE SMOOTH",
"252 465 OFFCURVE",
"246 471 OFFCURVE",
"246 481 CURVE SMOOTH"
);
}
);
width = 452;
},
{
layerId = "B0B60A8F-2DEB-4A58-A43B-60A0DADABD8F";
paths = (
{
closed = 1;
nodes = (
"96 499 OFFCURVE",
"133 592 OFFCURVE",
"133 601 CURVE SMOOTH",
"133 610 OFFCURVE",
"127 611 OFFCURVE",
"124 611 CURVE SMOOTH",
"120 611 OFFCURVE",
"117 607 OFFCURVE",
"110 607 CURVE SMOOTH",
"106 607 OFFCURVE",
"99 607 OFFCURVE",
"94 607 CURVE SMOOTH",
"87 607 OFFCURVE",
"84 611 OFFCURVE",
"85 620 CURVE SMOOTH",
"86 630 OFFCURVE",
"90 663 OFFCURVE",
"92 680 CURVE SMOOTH",
"94 696 OFFCURVE",
"104 700 OFFCURVE",
"116 700 CURVE SMOOTH",
"168 700 OFFCURVE",
"202 662 OFFCURVE",
"202 611 CURVE SMOOTH",
"202 534 OFFCURVE",
"136 475 OFFCURVE",
"108 475 CURVE SMOOTH",
"100 475 OFFCURVE",
"96 478 OFFCURVE",
"96 483 CURVE SMOOTH"
);
},
{
closed = 1;
nodes = (
"256 499 OFFCURVE",
"293 592 OFFCURVE",
"293 601 CURVE SMOOTH",
"293 610 OFFCURVE",
"287 611 OFFCURVE",
"284 611 CURVE SMOOTH",
"280 611 OFFCURVE",
"277 607 OFFCURVE",
"270 607 CURVE SMOOTH",
"266 607 OFFCURVE",
"259 607 OFFCURVE",
"254 607 CURVE SMOOTH",
"247 607 OFFCURVE",
"244 611 OFFCURVE",
"245 620 CURVE SMOOTH",
"246 630 OFFCURVE",
"250 663 OFFCURVE",
"252 680 CURVE SMOOTH",
"254 696 OFFCURVE",
"264 700 OFFCURVE",
"276 700 CURVE SMOOTH",
"328 700 OFFCURVE",
"362 662 OFFCURVE",
"362 611 CURVE SMOOTH",
"362 534 OFFCURVE",
"296 475 OFFCURVE",
"268 475 CURVE SMOOTH",
"260 475 OFFCURVE",
"256 478 OFFCURVE",
"256 483 CURVE SMOOTH"
);
}
);
width = 447;
}
);
unicode = 0022;
},
{
glyphname = numbersign;
lastChange = "2021-02-21 15:10:08 +0000";
layers = (
{
background = {
paths = (
{
closed = 1;
nodes = (
"318 680 OFFCURVE",
"289 680 OFFCURVE",
"277 680 CURVE",
"269 680 OFFCURVE",
"255 678 OFFCURVE",
"249 656 CURVE SMOOTH",
"215 518 OFFCURVE",
"142 246 OFFCURVE",
"91 75 CURVE SMOOTH",
"76 28 OFFCURVE",
"66 0 OFFCURVE",
"106 0 CURVE SMOOTH",
"115 0 OFFCURVE",
"111 0 OFFCURVE",
"147 0 CURVE SMOOTH",
"174 0 OFFCURVE",
"174 28 OFFCURVE",
"186 71 CURVE SMOOTH",
"230 242 OFFCURVE",
"304 516 OFFCURVE",
"347 660 CURVE SMOOTH",
"352 678 OFFCURVE",
"343 680 OFFCURVE",
"334 680 CURVE"
);
},
{
closed = 1;
nodes = (
"113 514 LINE",
"96 514 OFFCURVE",
"91 509 OFFCURVE",
"86 495 CURVE SMOOTH",
"79 474 LINE SMOOTH",
"74 459 OFFCURVE",
"81 452 OFFCURVE",
"94 452 CURVE SMOOTH",
"632 452 LINE",
"646 452 OFFCURVE",
"652 457 OFFCURVE",
"656 468 CURVE SMOOTH",
"664 492 LINE SMOOTH",
"669 506 OFFCURVE",
"664 514 OFFCURVE",
"648 514 CURVE SMOOTH"
);
},
{
closed = 1;
nodes = (
"568 680 OFFCURVE",
"539 680 OFFCURVE",
"527 680 CURVE",
"519 680 OFFCURVE",
"505 678 OFFCURVE",
"499 656 CURVE SMOOTH",
"465 518 OFFCURVE",
"392 246 OFFCURVE",
"341 75 CURVE SMOOTH",
"326 28 OFFCURVE",
"316 0 OFFCURVE",
"356 0 CURVE SMOOTH",
"365 0 OFFCURVE",
"361 0 OFFCURVE",
"397 0 CURVE SMOOTH",
"424 0 OFFCURVE",
"424 28 OFFCURVE",
"436 71 CURVE SMOOTH",
"480 242 OFFCURVE",
"554 516 OFFCURVE",
"597 660 CURVE SMOOTH",
"602 678 OFFCURVE",
"593 680 OFFCURVE",
"584 680 CURVE"
);
},
{
closed = 1;
nodes = (
"64 274 LINE",
"47 274 OFFCURVE",
"42 269 OFFCURVE",
"37 255 CURVE SMOOTH",
"30 234 LINE SMOOTH",
"25 219 OFFCURVE",
"32 212 OFFCURVE",
"45 212 CURVE SMOOTH",
"583 212 LINE",
"597 212 OFFCURVE",
"603 217 OFFCURVE",
"607 228 CURVE SMOOTH",
"615 252 LINE SMOOTH",
"620 266 OFFCURVE",
"615 274 OFFCURVE",
"599 274 CURVE SMOOTH"
);
}
);
};
layerId = "555B79C6-6D98-46E7-9307-77C37975E414";
paths = (
{
closed = 1;
nodes = (
"338 680 OFFCURVE",
"274 680 OFFCURVE",
"262 680 CURVE",
"254 680 OFFCURVE",
"240 678 OFFCURVE",
"234 656 CURVE SMOOTH",
"200 518 OFFCURVE",
"127 246 OFFCURVE",
"76 75 CURVE SMOOTH",
"61 28 OFFCURVE",
"51 0 OFFCURVE",
"91 0 CURVE SMOOTH",
"100 0 OFFCURVE",
"131 0 OFFCURVE",
"167 0 CURVE SMOOTH",
"194 0 OFFCURVE",
"194 28 OFFCURVE",
"206 71 CURVE SMOOTH",
"250 242 OFFCURVE",
"324 516 OFFCURVE",
"367 660 CURVE SMOOTH",
"372 678 OFFCURVE",
"363 680 OFFCURVE",
"354 680 CURVE"
);
},
{
closed = 1;
nodes = (
"588 680 OFFCURVE",
"524 680 OFFCURVE",
"512 680 CURVE",
"504 680 OFFCURVE",
"490 678 OFFCURVE",
"484 656 CURVE SMOOTH",
"450 518 OFFCURVE",
"377 246 OFFCURVE",
"326 75 CURVE SMOOTH",
"311 28 OFFCURVE",
"301 0 OFFCURVE",
"341 0 CURVE SMOOTH",
"350 0 OFFCURVE",
"366 0 OFFCURVE",
"417 0 CURVE SMOOTH",
"444 0 OFFCURVE",
"444 28 OFFCURVE",
"456 71 CURVE SMOOTH",
"500 242 OFFCURVE",
"574 516 OFFCURVE",
"617 660 CURVE SMOOTH",
"622 678 OFFCURVE",
"613 680 OFFCURVE",
"604 680 CURVE"
);
},
{
closed = 1;
nodes = (
"56 284 LINE",
"39 284 OFFCURVE",
"36 281 OFFCURVE",
"32 270 CURVE SMOOTH",
"17 225 LINE SMOOTH",
"12 211 OFFCURVE",
"16 202 OFFCURVE",
"32 202 CURVE SMOOTH",
"589 202 LINE",
"606 202 OFFCURVE",
"609 205 OFFCURVE",
"613 216 CURVE SMOOTH",
"628 261 LINE SMOOTH",
"633 275 OFFCURVE",
"629 284 OFFCURVE",
"613 284 CURVE SMOOTH"
);
},
{
closed = 1;
nodes = (
"105 524 LINE",
"88 524 OFFCURVE",
"85 521 OFFCURVE",
"81 510 CURVE SMOOTH",
"66 465 LINE SMOOTH",
"61 451 OFFCURVE",
"65 442 OFFCURVE",
"81 442 CURVE SMOOTH",
"638 442 LINE",
"655 442 OFFCURVE",
"658 445 OFFCURVE",
"662 456 CURVE SMOOTH",
"677 501 LINE SMOOTH",
"682 515 OFFCURVE",
"678 524 OFFCURVE",
"662 524 CURVE SMOOTH"
);
}
);
width = 694;
},
{
background = {
paths = (
{
closed = 1;
nodes = (
"120 536 LINE",
"103 536 OFFCURVE",
"95 532 OFFCURVE",
"90 517 CURVE SMOOTH",
"73 464 LINE SMOOTH",
"68 449 OFFCURVE",
"75 442 OFFCURVE",
"94 442 CURVE SMOOTH",
"621 442 LINE",
"638 442 OFFCURVE",
"646 446 OFFCURVE",
"651 461 CURVE SMOOTH",
"668 514 LINE SMOOTH",
"673 529 OFFCURVE",
"666 536 OFFCURVE",
"647 536 CURVE SMOOTH"
);
},
{
closed = 1;
nodes = (
"70 296 LINE",
"53 296 OFFCURVE",
"45 292 OFFCURVE",
"40 277 CURVE SMOOTH",
"23 224 LINE SMOOTH",
"18 209 OFFCURVE",
"25 202 OFFCURVE",
"44 202 CURVE SMOOTH",
"571 202 LINE",
"588 202 OFFCURVE",
"596 206 OFFCURVE",
"601 221 CURVE SMOOTH",
"618 274 LINE SMOOTH",
"623 289 OFFCURVE",
"616 296 OFFCURVE",
"597 296 CURVE SMOOTH"
);
}
);
};
layerId = "B0B60A8F-2DEB-4A58-A43B-60A0DADABD8F";
paths = (
{
closed = 1;
nodes = (
"315 680 OFFCURVE",
"286 680 OFFCURVE",
"274 680 CURVE",
"266 680 OFFCURVE",
"252 678 OFFCURVE",
"246 656 CURVE SMOOTH",
"212 518 OFFCURVE",
"139 246 OFFCURVE",
"88 75 CURVE SMOOTH",
"73 28 OFFCURVE",
"63 0 OFFCURVE",
"103 0 CURVE SMOOTH",
"112 0 OFFCURVE",
"108 0 OFFCURVE",
"144 0 CURVE SMOOTH",
"171 0 OFFCURVE",
"171 28 OFFCURVE",
"183 71 CURVE SMOOTH",
"227 242 OFFCURVE",
"301 516 OFFCURVE",
"344 660 CURVE SMOOTH",
"349 678 OFFCURVE",
"340 680 OFFCURVE",
"331 680 CURVE"
);
},
{
closed = 1;
nodes = (
"565 680 OFFCURVE",
"536 680 OFFCURVE",
"524 680 CURVE",
"516 680 OFFCURVE",
"502 678 OFFCURVE",
"496 656 CURVE SMOOTH",
"462 518 OFFCURVE",
"389 246 OFFCURVE",
"338 75 CURVE SMOOTH",
"323 28 OFFCURVE",
"313 0 OFFCURVE",
"353 0 CURVE SMOOTH",
"362 0 OFFCURVE",
"358 0 OFFCURVE",
"394 0 CURVE SMOOTH",
"421 0 OFFCURVE",
"421 28 OFFCURVE",
"433 71 CURVE SMOOTH",
"477 242 OFFCURVE",
"551 516 OFFCURVE",
"594 660 CURVE SMOOTH",
"599 678 OFFCURVE",
"590 680 OFFCURVE",
"581 680 CURVE"
);
},
{
closed = 1;
nodes = (
"61 274 LINE",
"44 274 OFFCURVE",
"39 269 OFFCURVE",
"34 255 CURVE SMOOTH",
"27 234 LINE SMOOTH",
"22 219 OFFCURVE",
"29 212 OFFCURVE",
"42 212 CURVE SMOOTH",
"580 212 LINE",
"594 212 OFFCURVE",
"600 217 OFFCURVE",
"604 228 CURVE SMOOTH",
"612 252 LINE SMOOTH",
"617 266 OFFCURVE",
"612 274 OFFCURVE",
"596 274 CURVE SMOOTH"
);
},
{
closed = 1;
nodes = (
"110 514 LINE",
"93 514 OFFCURVE",
"88 509 OFFCURVE",
"83 495 CURVE SMOOTH",
"76 474 LINE SMOOTH",
"71 459 OFFCURVE",
"78 452 OFFCURVE",
"91 452 CURVE SMOOTH",
"629 452 LINE",
"643 452 OFFCURVE",
"649 457 OFFCURVE",
"653 468 CURVE SMOOTH",
"661 492 LINE SMOOTH",
"666 506 OFFCURVE",
"661 514 OFFCURVE",
"645 514 CURVE SMOOTH"
);
}
);
width = 688;
}
);
unicode = 0023;
},
{
glyphname = dollar;
lastChange = "2021-02-18 10:32:38 +0000";
layers = (
{
background = {
paths = (
{
closed = 1;
nodes = (
"383 726 OFFCURVE",
"395 724 OFFCURVE",
"391 704 CURVE SMOOTH",
"373 623 OFFCURVE",
"346 488 OFFCURVE",
"324 367 CURVE",
"305 301 LINE",
"290 215 OFFCURVE",
"267 90 OFFCURVE",
"255 21 CURVE SMOOTH",
"247 -27 OFFCURVE",
"246 -58 OFFCURVE",
"216 -58 CURVE SMOOTH",
"202 -58 OFFCURVE",
"196 -58 OFFCURVE",
"179 -58 CURVE SMOOTH",
"144 -58 OFFCURVE",
"155 -27 OFFCURVE",
"166 25 CURVE SMOOTH",
"184 110 OFFCURVE",
"212 241 OFFCURVE",
"231 349 CURVE",
"252 425 LINE",
"272 521 OFFCURVE",
"290 636 OFFCURVE",
"301 700 CURVE SMOOTH",
"305 724 OFFCURVE",
"318 726 OFFCURVE",
"327 726 CURVE",
"341 726 OFFCURVE",
"355 726 OFFCURVE",
"373 726 CURVE"
);
},
{
closed = 1;
nodes = (
"75 589 OFFCURVE",
"207 657 OFFCURVE",
"330 657 CURVE SMOOTH",
"442 657 OFFCURVE",
"523 579 OFFCURVE",
"523 496 CURVE SMOOTH",
"523 471 OFFCURVE",
"516 463 OFFCURVE",
"498 463 CURVE",
"434 463 LINE",
"416 463 OFFCURVE",
"415 470 OFFCURVE",
"415 479 CURVE SMOOTH",
"415 491 OFFCURVE",
"420 514 OFFCURVE",
"420 547 CURVE SMOOTH",
"420 590 OFFCURVE",
"376 606 OFFCURVE",
"326 606 CURVE SMOOTH",
"271 606 OFFCURVE",
"193 551 OFFCURVE",
"193 513 CURVE",
"75 513 LINE"
);
},
{
closed = 1;
nodes = (
"127 260 OFFCURVE",
"130 258 OFFCURVE",
"130 243 CURVE SMOOTH",
"130 227 OFFCURVE",
"128 205 OFFCURVE",
"128 177 CURVE SMOOTH",
"128 115 OFFCURVE",
"189 85 OFFCURVE",
"235 85 CURVE SMOOTH",
"304 85 OFFCURVE",
"373 147 OFFCURVE",
"373 198 CURVE",
"492 198 LINE",
"492 111 OFFCURVE",
"389 22 OFFCURVE",
"243 22 CURVE SMOOTH",
"126 22 OFFCURVE",
"20 88 OFFCURVE",
"20 219 CURVE SMOOTH",
"20 248 OFFCURVE",
"28 260 OFFCURVE",
"52 260 CURVE",
"112 260 LINE"
);
},
{
closed = 1;
nodes = (
"302 404 OFFCURVE",
"376 340 OFFCURVE",
"413 309 CURVE SMOOTH",
"454 273 OFFCURVE",
"492 238 OFFCURVE",
"492 198 CURVE",
"492 162 OFFCURVE",
"373 174 OFFCURVE",
"373 198 CURVE",
"373 221 OFFCURVE",
"329 255 OFFCURVE",
"302 278 CURVE SMOOTH",
"276 300 OFFCURVE",
"208 357 OFFCURVE",
"148 408 CURVE SMOOTH",
"110 440 OFFCURVE",
"75 480 OFFCURVE",
"75 513 CURVE SMOOTH",
"75 540 OFFCURVE",
"193 551 OFFCURVE",
"193 513 CURVE SMOOTH",
"193 489 OFFCURVE",
"247 451 OFFCURVE",
"280 423 CURVE SMOOTH"
);
}
);
};
layerId = "555B79C6-6D98-46E7-9307-77C37975E414";
paths = (
{
closed = 1;
nodes = (
"393 726 OFFCURVE",
"405 724 OFFCURVE",
"401 704 CURVE SMOOTH",
"383 623 OFFCURVE",
"356 488 OFFCURVE",
"334 367 CURVE",
"315 301 LINE",
"300 215 OFFCURVE",
"277 90 OFFCURVE",
"265 21 CURVE SMOOTH",
"257 -27 OFFCURVE",
"256 -58 OFFCURVE",
"226 -58 CURVE SMOOTH",
"212 -58 OFFCURVE",
"186 -58 OFFCURVE",
"169 -58 CURVE SMOOTH",
"134 -58 OFFCURVE",
"145 -27 OFFCURVE",
"156 25 CURVE SMOOTH",
"174 110 OFFCURVE",
"202 241 OFFCURVE",
"221 349 CURVE",
"242 425 LINE",
"262 521 OFFCURVE",
"280 636 OFFCURVE",
"291 700 CURVE SMOOTH",
"295 724 OFFCURVE",
"308 726 OFFCURVE",
"317 726 CURVE",
"331 726 OFFCURVE",
"365 726 OFFCURVE",
"383 726 CURVE"
);
},
{
closed = 1;
nodes = (
"65 589 OFFCURVE",
"207 657 OFFCURVE",
"330 657 CURVE SMOOTH",
"442 657 OFFCURVE",
"533 579 OFFCURVE",
"533 496 CURVE SMOOTH",
"533 471 OFFCURVE",
"526 463 OFFCURVE",
"508 463 CURVE",
"424 463 LINE",
"406 463 OFFCURVE",
"405 470 OFFCURVE",
"405 479 CURVE SMOOTH",
"405 491 OFFCURVE",
"410 514 OFFCURVE",
"410 547 CURVE SMOOTH",
"410 590 OFFCURVE",
"376 606 OFFCURVE",
"326 606 CURVE SMOOTH",
"271 606 OFFCURVE",
"203 551 OFFCURVE",
"203 513 CURVE",
"65 513 LINE"
);
},
{
closed = 1;
nodes = (
"137 260 OFFCURVE",
"140 258 OFFCURVE",
"140 243 CURVE SMOOTH",
"140 227 OFFCURVE",
"138 205 OFFCURVE",
"138 177 CURVE SMOOTH",
"138 115 OFFCURVE",
"189 85 OFFCURVE",
"235 85 CURVE SMOOTH",
"304 85 OFFCURVE",
"363 147 OFFCURVE",
"363 198 CURVE",
"507 198 LINE",
"507 111 OFFCURVE",
"389 22 OFFCURVE",
"243 22 CURVE SMOOTH",
"126 22 OFFCURVE",
"10 88 OFFCURVE",
"10 219 CURVE SMOOTH",
"10 248 OFFCURVE",
"18 260 OFFCURVE",
"42 260 CURVE",
"122 260 LINE"
);
},
{
closed = 1;
nodes = (
"312 404 OFFCURVE",
"386 340 OFFCURVE",
"423 309 CURVE SMOOTH",
"464 273 OFFCURVE",
"507 238 OFFCURVE",
"507 198 CURVE",
"507 162 OFFCURVE",
"363 174 OFFCURVE",
"363 198 CURVE",
"363 221 OFFCURVE",
"319 255 OFFCURVE",
"292 278 CURVE SMOOTH",
"266 300 OFFCURVE",
"198 357 OFFCURVE",
"138 408 CURVE SMOOTH",
"100 440 OFFCURVE",
"65 480 OFFCURVE",
"65 513 CURVE SMOOTH",
"65 540 OFFCURVE",
"203 551 OFFCURVE",
"203 513 CURVE SMOOTH",
"203 489 OFFCURVE",
"257 451 OFFCURVE",
"290 423 CURVE SMOOTH"
);
}
);
width = 600;
},
{
background = {
paths = (
{
closed = 1;
nodes = (
"118 600 OFFCURVE",
"246 688 OFFCURVE",
"382 688 CURVE SMOOTH",
"504 688 OFFCURVE",
"580 602 OFFCURVE",
"580 512 CURVE SMOOTH",
"580 483 OFFCURVE",
"574 475 OFFCURVE",
"554 475 CURVE",
"458 475 LINE",
"439 475 OFFCURVE",
"437 482 OFFCURVE",
"437 492 CURVE SMOOTH",
"437 505 OFFCURVE",
"442 531 OFFCURVE",
"442 567 CURVE SMOOTH",
"442 614 OFFCURVE",
"420 632 OFFCURVE",
"378 632 CURVE SMOOTH",
"317 632 OFFCURVE",
"263 571 OFFCURVE",
"263 529 CURVE",
"118 512 LINE"
);
},
{
closed = 1;
nodes = (
"184 253 OFFCURVE",
"189 250 OFFCURVE",
"189 234 CURVE SMOOTH",
"189 217 OFFCURVE",
"186 192 OFFCURVE",
"186 161 CURVE SMOOTH",
"186 94 OFFCURVE",
"227 60 OFFCURVE",
"278 60 CURVE SMOOTH",
"354 60 OFFCURVE",
"404 131 OFFCURVE",
"404 184 CURVE",
"551 184 LINE",
"551 90 OFFCURVE",
"446 -9 OFFCURVE",
"286 -9 CURVE SMOOTH",
"157 -9 OFFCURVE",
"43 64 OFFCURVE",
"43 208 CURVE SMOOTH",
"43 240 OFFCURVE",
"51 253 OFFCURVE",
"78 253 CURVE",
"169 253 LINE"
);
},
{
closed = 1;
nodes = (
"350 436 OFFCURVE",
"419 379 OFFCURVE",
"459 346 CURVE SMOOTH",
"507 307 OFFCURVE",
"551 255 OFFCURVE",
"551 184 CURVE",
"551 146 OFFCURVE",
"404 160 OFFCURVE",
"404 184 CURVE",
"404 227 OFFCURVE",
"361 255 OFFCURVE",
"332 279 CURVE SMOOTH",
"303 303 OFFCURVE",
"247 348 OFFCURVE",
"215 373 CURVE SMOOTH",
"152 422 OFFCURVE",
"118 464 OFFCURVE",
"118 512 CURVE SMOOTH",
"118 540 OFFCURVE",
"263 571 OFFCURVE",
"263 529 CURVE SMOOTH",
"263 504 OFFCURVE",
"290 486 OFFCURVE",
"326 456 CURVE SMOOTH"
);
}
);
};
layerId = "B0B60A8F-2DEB-4A58-A43B-60A0DADABD8F";
paths = (
{
closed = 1;
nodes = (
"383 726 OFFCURVE",
"395 724 OFFCURVE",
"391 704 CURVE SMOOTH",
"373 623 OFFCURVE",
"346 488 OFFCURVE",
"324 367 CURVE",
"305 301 LINE",
"290 215 OFFCURVE",
"267 90 OFFCURVE",
"255 21 CURVE SMOOTH",
"247 -27 OFFCURVE",
"246 -58 OFFCURVE",
"216 -58 CURVE SMOOTH",
"202 -58 OFFCURVE",
"196 -58 OFFCURVE",
"179 -58 CURVE SMOOTH",
"144 -58 OFFCURVE",
"155 -27 OFFCURVE",
"166 25 CURVE SMOOTH",
"184 110 OFFCURVE",
"212 241 OFFCURVE",
"231 349 CURVE",
"252 425 LINE",
"272 521 OFFCURVE",
"290 636 OFFCURVE",
"301 700 CURVE SMOOTH",
"305 724 OFFCURVE",
"318 726 OFFCURVE",
"327 726 CURVE",
"341 726 OFFCURVE",
"355 726 OFFCURVE",
"373 726 CURVE"
);
},
{
closed = 1;
nodes = (
"75 589 OFFCURVE",
"207 657 OFFCURVE",
"330 657 CURVE SMOOTH",
"442 657 OFFCURVE",
"523 579 OFFCURVE",
"523 496 CURVE SMOOTH",
"523 471 OFFCURVE",
"516 463 OFFCURVE",
"498 463 CURVE",
"434 463 LINE",
"416 463 OFFCURVE",
"415 470 OFFCURVE",
"415 479 CURVE SMOOTH",
"415 491 OFFCURVE",
"420 514 OFFCURVE",
"420 547 CURVE SMOOTH",
"420 590 OFFCURVE",
"376 606 OFFCURVE",
"326 606 CURVE SMOOTH",
"271 606 OFFCURVE",
"193 551 OFFCURVE",
"193 513 CURVE",
"75 513 LINE"
);
},
{
closed = 1;
nodes = (
"127 260 OFFCURVE",
"130 258 OFFCURVE",
"130 243 CURVE SMOOTH",
"130 227 OFFCURVE",
"128 205 OFFCURVE",
"128 177 CURVE SMOOTH",
"128 115 OFFCURVE",
"189 85 OFFCURVE",
"235 85 CURVE SMOOTH",
"304 85 OFFCURVE",
"373 147 OFFCURVE",
"373 198 CURVE",
"492 198 LINE",
"492 111 OFFCURVE",
"389 22 OFFCURVE",
"243 22 CURVE SMOOTH",
"126 22 OFFCURVE",
"20 88 OFFCURVE",
"20 219 CURVE SMOOTH",
"20 248 OFFCURVE",
"28 260 OFFCURVE",
"52 260 CURVE",
"112 260 LINE"
);
},
{
closed = 1;
nodes = (
"302 404 OFFCURVE",
"376 340 OFFCURVE",
"413 309 CURVE SMOOTH",
"454 273 OFFCURVE",
"492 238 OFFCURVE",
"492 198 CURVE",
"492 162 OFFCURVE",
"373 174 OFFCURVE",
"373 198 CURVE",
"373 221 OFFCURVE",
"329 255 OFFCURVE",
"302 278 CURVE SMOOTH",
"276 300 OFFCURVE",
"208 357 OFFCURVE",
"148 408 CURVE SMOOTH",
"110 440 OFFCURVE",
"75 480 OFFCURVE",
"75 513 CURVE SMOOTH",
"75 540 OFFCURVE",
"193 551 OFFCURVE",
"193 513 CURVE SMOOTH",
"193 489 OFFCURVE",
"247 451 OFFCURVE",
"280 423 CURVE SMOOTH"
);
}
);
width = 543;
}
);
unicode = 0024;
},
{
glyphname = ampersand;
lastChange = "2021-02-16 11:21:46 +0000";
layers = (
{
background = {
paths = (
{
closed = 1;
nodes = (
"240 710 OFFCURVE",
"40 462 OFFCURVE",
"40 225 CURVE SMOOTH",
"40 83 OFFCURVE",
"157 -11 OFFCURVE",
"318 -11 CURVE SMOOTH",
"499 -11 OFFCURVE",
"591 117 OFFCURVE",
"591 195 CURVE SMOOTH",
"591 249 OFFCURVE",
"547 285 OFFCURVE",
"533 292 CURVE",
"533 308 LINE",
"409 308 LINE",
"409 297 LINE",
"466 297 OFFCURVE",
"486 261 OFFCURVE",
"486 216 CURVE SMOOTH",
"486 150 OFFCURVE",
"437 57 OFFCURVE",
"329 57 CURVE SMOOTH",
"239 57 OFFCURVE",
"152 130 OFFCURVE",
"152 225 CURVE SMOOTH",
"152 346 OFFCURVE",
"277 650 OFFCURVE",
"366 650 CURVE SMOOTH",
"396 650 OFFCURVE",
"409 617 OFFCURVE",
"409 595 CURVE SMOOTH",
"409 554 OFFCURVE",
"316 450 OFFCURVE",
"146 450 CURVE",
"146 393 LINE",
"249 416 OFFCURVE",
"321 433 OFFCURVE",
"409 449 CURVE",
"464 522 LINE",
"464 529 LINE",
"470 536 OFFCURVE",
"503 571 OFFCURVE",
"503 612 CURVE SMOOTH",
"503 646 OFFCURVE",
"467 710 OFFCURVE",
"382 710 CURVE SMOOTH"
);
},
{
closed = 1;
nodes = (
"720 752 OFFCURVE",
"637 814 OFFCURVE",
"601 814 CURVE SMOOTH",
"596 814 OFFCURVE",
"590 812 OFFCURVE",
"585 797 CURVE SMOOTH",
"581 785 OFFCURVE",
"567 744 OFFCURVE",
"562 728 CURVE SMOOTH",
"557 713 OFFCURVE",
"567 707 OFFCURVE",
"576 705 CURVE SMOOTH",
"615 696 OFFCURVE",
"654 681 OFFCURVE",
"654 649 CURVE SMOOTH",
"654 601 OFFCURVE",
"587 542 OFFCURVE",
"464 522 CURVE",
"409 522 LINE",
"409 449 LINE",
"554 471 OFFCURVE",
"720 532 OFFCURVE",
"720 669 CURVE SMOOTH"
);
},
{
closed = 1;
nodes = (
"721 370 OFFCURVE",
"723 380 OFFCURVE",
"710 380 CURVE SMOOTH",
"649 380 OFFCURVE",
"527 380 OFFCURVE",
"475 380 CURVE SMOOTH",
"324 380 OFFCURVE",
"248 337 OFFCURVE",
"248 248 CURVE SMOOTH",
"248 183 OFFCURVE",
"295 119 OFFCURVE",
"360 119 CURVE SMOOTH",
"371 119 OFFCURVE",
"378 124 OFFCURVE",
"382 138 CURVE SMOOTH",
"399 193 LINE SMOOTH",
"404 209 OFFCURVE",
"406 219 OFFCURVE",
"393 219 CURVE SMOOTH",
"379 219 OFFCURVE",
"356 214 OFFCURVE",
"333 214 CURVE SMOOTH",
"312 214 OFFCURVE",
"292 240 OFFCURVE",
"293 261 CURVE SMOOTH",
"294 292 OFFCURVE",
"314 297 OFFCURVE",
"409 297 CURVE SMOOTH",
"463 297 OFFCURVE",
"522 297 OFFCURVE",
"682 297 CURVE SMOOTH",
"693 297 OFFCURVE",
"700 302 OFFCURVE",
"704 316 CURVE SMOOTH",
"709 332 OFFCURVE",
"711 338 OFFCURVE",
"716 354 CURVE SMOOTH"
);
}
);
};
layerId = "555B79C6-6D98-46E7-9307-77C37975E414";
paths = (
{
closed = 1;
nodes = (
"235 710 OFFCURVE",
"30 482 OFFCURVE",
"30 225 CURVE SMOOTH",
"30 83 OFFCURVE",
"157 -11 OFFCURVE",
"318 -11 CURVE SMOOTH",
"499 -11 OFFCURVE",
"601 107 OFFCURVE",
"601 195 CURVE SMOOTH",
"601 249 OFFCURVE",
"567 275 OFFCURVE",
"553 282 CURVE",
"553 308 LINE",
"409 308 LINE",
"409 287 LINE",
"456 287 OFFCURVE",
"471 247 OFFCURVE",
"471 220 CURVE SMOOTH",
"471 163 OFFCURVE",
"428 67 OFFCURVE",
"329 67 CURVE SMOOTH",
"255 67 OFFCURVE",
"167 130 OFFCURVE",
"167 225 CURVE SMOOTH",
"167 346 OFFCURVE",
"287 635 OFFCURVE",
"366 635 CURVE SMOOTH",
"381 635 OFFCURVE",
"394 614 OFFCURVE",
"394 595 CURVE SMOOTH",
"394 554 OFFCURVE",
"296 465 OFFCURVE",
"146 465 CURVE",
"146 378 LINE",
"249 401 OFFCURVE",
"321 418 OFFCURVE",
"409 434 CURVE",
"476 530 LINE",
"476 537 LINE",
"483 544 OFFCURVE",
"512 578 OFFCURVE",
"512 620 CURVE SMOOTH",
"512 662 OFFCURVE",
"471 710 OFFCURVE",
"384 710 CURVE SMOOTH"
);
},
{
closed = 1;
nodes = (
"735 752 OFFCURVE",
"651 824 OFFCURVE",
"601 824 CURVE SMOOTH",
"587 824 OFFCURVE",
"580 812 OFFCURVE",
"575 797 CURVE SMOOTH",
"571 785 OFFCURVE",
"557 744 OFFCURVE",
"552 728 CURVE SMOOTH",
"547 713 OFFCURVE",
"552 704 OFFCURVE",
"576 697 CURVE SMOOTH",
"614 686 OFFCURVE",
"644 675 OFFCURVE",
"644 649 CURVE SMOOTH",
"644 601 OFFCURVE",
"564 544 OFFCURVE",
"476 530 CURVE",
"409 530 LINE",
"409 434 LINE",
"576 462 OFFCURVE",
"735 532 OFFCURVE",
"735 669 CURVE SMOOTH"
);
},
{
closed = 1;
nodes = (
"736 386 OFFCURVE",
"733 395 OFFCURVE",
"720 395 CURVE SMOOTH",
"659 395 OFFCURVE",
"527 395 OFFCURVE",
"475 395 CURVE SMOOTH",
"333 395 OFFCURVE",
"238 347 OFFCURVE",
"238 248 CURVE SMOOTH",
"238 177 OFFCURVE",
"290 109 OFFCURVE",
"360 109 CURVE SMOOTH",
"382 109 OFFCURVE",
"388 124 OFFCURVE",
"392 138 CURVE SMOOTH",
"412 204 LINE SMOOTH",
"417 220 OFFCURVE",
"411 229 OFFCURVE",
"398 229 CURVE SMOOTH",
"384 229 OFFCURVE",
"360 224 OFFCURVE",
"337 224 CURVE SMOOTH",
"320 224 OFFCURVE",
"307 243 OFFCURVE",
"308 261 CURVE SMOOTH",
"309 285 OFFCURVE",
"344 287 OFFCURVE",
"409 287 CURVE SMOOTH",
"463 287 OFFCURVE",
"547 287 OFFCURVE",
"692 287 CURVE SMOOTH",
"703 287 OFFCURVE",
"707 292 OFFCURVE",
"711 306 CURVE SMOOTH",
"716 322 OFFCURVE",
"726 354 OFFCURVE",
"732 373 CURVE SMOOTH"
);
}
);
width = 760;
},
{
background = {
paths = (
{
closed = 1;
nodes = (
"292 659 OFFCURVE",
"60 431 OFFCURVE",
"60 194 CURVE SMOOTH",
"60 53 OFFCURVE",
"194 -11 OFFCURVE",
"318 -11 CURVE SMOOTH",
"419 -11 OFFCURVE",
"571 50 OFFCURVE",
"571 176 CURVE SMOOTH",
"571 208 OFFCURVE",
"547 251 OFFCURVE",
"523 251 CURVE SMOOTH",
"492 251 OFFCURVE",
"443 57 OFFCURVE",
"331 57 CURVE SMOOTH",
"272 57 OFFCURVE",
"199 122 OFFCURVE",
"199 169 CURVE SMOOTH",
"199 220 OFFCURVE",
"314 598 OFFCURVE",
"442 598 CURVE SMOOTH",
"474 598 OFFCURVE",
"495 563 OFFCURVE",
"495 541 CURVE SMOOTH",
"495 514 OFFCURVE",
"420 364 OFFCURVE",
"217 364 CURVE",
"213 297 LINE",
"316 320 OFFCURVE",
"419 335 OFFCURVE",
"507 351 CURVE SMOOTH",
"558 360 OFFCURVE",
"608 460 OFFCURVE",
"608 512 CURVE SMOOTH",
"608 584 OFFCURVE",
"547 659 OFFCURVE",
"450 659 CURVE SMOOTH"
);
}
);
};
backgroundImage = {
crop = "{{0, 0}, {2284, 3114}}";
imagePath = /Users/sumanbhandary/Downloads/IMG_9767.jpg;
locked = "1";
transform = "{1, 0, 0, 1, -653, 866}";
};
layerId = "B0B60A8F-2DEB-4A58-A43B-60A0DADABD8F";
paths = (
{
closed = 1;
nodes = (
"240 710 OFFCURVE",
"40 462 OFFCURVE",
"40 225 CURVE SMOOTH",
"40 83 OFFCURVE",
"157 -11 OFFCURVE",
"318 -11 CURVE SMOOTH",
"499 -11 OFFCURVE",
"591 117 OFFCURVE",
"591 195 CURVE SMOOTH",
"591 249 OFFCURVE",
"547 285 OFFCURVE",
"533 292 CURVE",
"533 308 LINE",
"409 308 LINE",
"409 297 LINE",
"466 297 OFFCURVE",
"486 261 OFFCURVE",
"486 216 CURVE SMOOTH",
"486 150 OFFCURVE",
"437 57 OFFCURVE",
"329 57 CURVE SMOOTH",
"239 57 OFFCURVE",
"152 130 OFFCURVE",
"152 225 CURVE SMOOTH",
"152 346 OFFCURVE",
"277 650 OFFCURVE",
"366 650 CURVE SMOOTH",
"396 650 OFFCURVE",
"409 617 OFFCURVE",
"409 595 CURVE SMOOTH",
"409 554 OFFCURVE",
"316 450 OFFCURVE",
"146 450 CURVE",
"146 393 LINE",
"249 416 OFFCURVE",
"321 433 OFFCURVE",
"409 449 CURVE",
"464 522 LINE",
"464 529 LINE",
"470 536 OFFCURVE",
"503 571 OFFCURVE",
"503 612 CURVE SMOOTH",
"503 646 OFFCURVE",
"467 710 OFFCURVE",
"382 710 CURVE SMOOTH"
);
},
{
closed = 1;
nodes = (
"720 752 OFFCURVE",
"637 814 OFFCURVE",
"601 814 CURVE SMOOTH",
"596 814 OFFCURVE",
"590 812 OFFCURVE",
"585 797 CURVE SMOOTH",
"581 785 OFFCURVE",
"567 744 OFFCURVE",
"562 728 CURVE SMOOTH",
"557 713 OFFCURVE",
"567 707 OFFCURVE",
"576 705 CURVE SMOOTH",
"615 696 OFFCURVE",
"654 681 OFFCURVE",
"654 649 CURVE SMOOTH",
"654 601 OFFCURVE",
"587 542 OFFCURVE",
"464 522 CURVE",
"409 522 LINE",
"409 449 LINE",
"554 471 OFFCURVE",
"720 532 OFFCURVE",
"720 669 CURVE SMOOTH"
);
},
{
closed = 1;
nodes = (
"721 370 OFFCURVE",
"723 380 OFFCURVE",
"710 380 CURVE SMOOTH",
"649 380 OFFCURVE",
"527 380 OFFCURVE",
"475 380 CURVE SMOOTH",
"324 380 OFFCURVE",
"248 337 OFFCURVE",
"248 248 CURVE SMOOTH",
"248 183 OFFCURVE",
"295 119 OFFCURVE",
"360 119 CURVE SMOOTH",
"371 119 OFFCURVE",
"378 124 OFFCURVE",
"382 138 CURVE SMOOTH",
"399 193 LINE SMOOTH",
"404 209 OFFCURVE",
"406 219 OFFCURVE",
"393 219 CURVE SMOOTH",
"379 219 OFFCURVE",
"356 214 OFFCURVE",
"333 214 CURVE SMOOTH",
"312 214 OFFCURVE",
"292 240 OFFCURVE",
"293 261 CURVE SMOOTH",
"294 292 OFFCURVE",
"314 297 OFFCURVE",
"409 297 CURVE SMOOTH",
"463 297 OFFCURVE",
"522 297 OFFCURVE",
"682 297 CURVE SMOOTH",
"693 297 OFFCURVE",
"700 302 OFFCURVE",
"704 316 CURVE SMOOTH",
"709 332 OFFCURVE",
"711 338 OFFCURVE",
"716 354 CURVE SMOOTH"
);
}
);
width = 760;
}
);
unicode = 0026;
},
{
glyphname = quotesingle;
lastChange = "2021-02-16 07:27:35 +0000";
layers = (
{
background = {
paths = (
{
closed = 1;
nodes = (
"96 499 OFFCURVE",
"133 592 OFFCURVE",
"133 601 CURVE SMOOTH",
"133 610 OFFCURVE",
"127 611 OFFCURVE",
"124 611 CURVE SMOOTH",
"120 611 OFFCURVE",
"117 607 OFFCURVE",
"110 607 CURVE SMOOTH",
"106 607 OFFCURVE",
"99 607 OFFCURVE",
"94 607 CURVE SMOOTH",
"87 607 OFFCURVE",
"84 611 OFFCURVE",
"85 620 CURVE SMOOTH",
"86 630 OFFCURVE",
"90 663 OFFCURVE",
"92 680 CURVE SMOOTH",
"94 696 OFFCURVE",
"104 700 OFFCURVE",
"116 700 CURVE SMOOTH",
"168 700 OFFCURVE",
"202 662 OFFCURVE",
"202 611 CURVE SMOOTH",
"202 534 OFFCURVE",
"136 475 OFFCURVE",
"108 475 CURVE SMOOTH",
"100 475 OFFCURVE",
"96 478 OFFCURVE",
"96 483 CURVE SMOOTH"
);
}
);
};
layerId = "555B79C6-6D98-46E7-9307-77C37975E414";
paths = (
{
closed = 1;
nodes = (
"86 505 OFFCURVE",
"131 579 OFFCURVE",
"131 596 CURVE SMOOTH",
"131 603 OFFCURVE",
"126 604 OFFCURVE",
"123 604 CURVE SMOOTH",
"118 604 OFFCURVE",
"116 597 OFFCURVE",
"109 597 CURVE SMOOTH",
"105 597 OFFCURVE",
"94 597 OFFCURVE",
"87 597 CURVE SMOOTH",
"76 597 OFFCURVE",
"74 605 OFFCURVE",
"75 614 CURVE SMOOTH",
"76 628 OFFCURVE",
"80 663 OFFCURVE",
"82 680 CURVE SMOOTH",
"84 696 OFFCURVE",
"93 710 OFFCURVE",
"113 710 CURVE SMOOTH",
"172 710 OFFCURVE",
"222 667 OFFCURVE",
"222 611 CURVE SMOOTH",
"222 534 OFFCURVE",
"148 465 OFFCURVE",
"103 465 CURVE SMOOTH",
"92 465 OFFCURVE",
"86 471 OFFCURVE",
"86 481 CURVE SMOOTH"
);
}
);
width = 297;
},
{
layerId = "B0B60A8F-2DEB-4A58-A43B-60A0DADABD8F";
paths = (
{
closed = 1;
nodes = (
"96 499 OFFCURVE",
"133 592 OFFCURVE",
"133 601 CURVE SMOOTH",
"133 610 OFFCURVE",
"127 611 OFFCURVE",
"124 611 CURVE SMOOTH",
"120 611 OFFCURVE",
"117 607 OFFCURVE",
"110 607 CURVE SMOOTH",
"106 607 OFFCURVE",
"99 607 OFFCURVE",
"94 607 CURVE SMOOTH",
"87 607 OFFCURVE",
"84 611 OFFCURVE",
"85 620 CURVE SMOOTH",
"86 630 OFFCURVE",
"90 663 OFFCURVE",
"92 680 CURVE SMOOTH",
"94 696 OFFCURVE",
"104 700 OFFCURVE",
"116 700 CURVE SMOOTH",
"168 700 OFFCURVE",
"202 662 OFFCURVE",
"202 611 CURVE SMOOTH",
"202 534 OFFCURVE",
"136 475 OFFCURVE",
"108 475 CURVE SMOOTH",
"100 475 OFFCURVE",
"96 478 OFFCURVE",
"96 483 CURVE SMOOTH"
);
}
);
width = 287;
}
);
unicode = 0027;
},
{
glyphname = parenleft;
lastChange = "2021-02-16 07:32:00 +0000";
layers = (
{
background = {
paths = (
{
closed = 1;
nodes = (
"290 -101 OFFCURVE",
"284 -104 OFFCURVE",
"265 -96 CURVE SMOOTH",
"170 -55 OFFCURVE",
"30 73 OFFCURVE",
"30 245 CURVE SMOOTH",
"30 509 OFFCURVE",
"279 705 OFFCURVE",
"358 739 CURVE SMOOTH",
"373 745 OFFCURVE",
"378 741 OFFCURVE",
"384 729 CURVE",
"397 701 LINE",
"403 687 OFFCURVE",
"395 682 OFFCURVE",
"383 675 CURVE SMOOTH",
"309 632 OFFCURVE",
"130 480 OFFCURVE",
"130 245 CURVE SMOOTH",
"130 91 OFFCURVE",
"231 2 OFFCURVE",
"296 -37 CURVE SMOOTH",
"308 -44 OFFCURVE",
"314 -50 OFFCURVE",
"309 -62 CURVE",
"296 -89 LINE"
);
}
);
};
layerId = "555B79C6-6D98-46E7-9307-77C37975E414";
paths = (
{
closed = 1;
nodes = (
"287 -108 OFFCURVE",
"281 -111 OFFCURVE",
"262 -103 CURVE SMOOTH",
"155 -57 OFFCURVE",
"20 73 OFFCURVE",
"20 245 CURVE SMOOTH",
"20 509 OFFCURVE",
"271 707 OFFCURVE",
"356 743 CURVE SMOOTH",
"371 749 OFFCURVE",
"376 745 OFFCURVE",
"382 733 CURVE",
"400 694 LINE",
"406 680 OFFCURVE",
"398 676 OFFCURVE",
"386 668 CURVE SMOOTH",
"311 619 OFFCURVE",
"150 469 OFFCURVE",
"150 245 CURVE SMOOTH",
"150 105 OFFCURVE",
"234 8 OFFCURVE",
"299 -31 CURVE SMOOTH",
"311 -38 OFFCURVE",
"317 -44 OFFCURVE",
"312 -56 CURVE",
"293 -96 LINE"
);
}
);
width = 452;
},
{
layerId = "B0B60A8F-2DEB-4A58-A43B-60A0DADABD8F";
paths = (
{
closed = 1;
nodes = (
"290 -101 OFFCURVE",
"284 -104 OFFCURVE",
"265 -96 CURVE SMOOTH",
"170 -55 OFFCURVE",
"30 73 OFFCURVE",
"30 245 CURVE SMOOTH",
"30 509 OFFCURVE",
"279 705 OFFCURVE",
"358 739 CURVE SMOOTH",
"373 745 OFFCURVE",
"378 741 OFFCURVE",
"384 729 CURVE",
"397 701 LINE",
"403 687 OFFCURVE",
"395 682 OFFCURVE",
"383 675 CURVE SMOOTH",
"309 632 OFFCURVE",
"130 480 OFFCURVE",
"130 245 CURVE SMOOTH",
"130 91 OFFCURVE",
"231 2 OFFCURVE",
"296 -37 CURVE SMOOTH",
"308 -44 OFFCURVE",
"314 -50 OFFCURVE",
"309 -62 CURVE",
"296 -89 LINE"
);
}
);
width = 459;
}
);
unicode = 0028;
},
{
glyphname = parenright;
lastChange = "2021-02-16 07:35:24 +0000";
layers = (
{
background = {
paths = (
{
closed = 1;
nodes = (
"130 742 OFFCURVE",
"136 745 OFFCURVE",
"155 737 CURVE SMOOTH",
"250 696 OFFCURVE",
"390 568 OFFCURVE",
"390 396 CURVE SMOOTH",
"390 122 OFFCURVE",
"138 -60 OFFCURVE",
"66 -96 CURVE SMOOTH",
"50 -104 OFFCURVE",
"46 -101 OFFCURVE",
"38 -87 CURVE",
"24 -59 LINE",
"19 -47 OFFCURVE",
"25 -41 OFFCURVE",
"37 -34 CURVE SMOOTH",
"111 9 OFFCURVE",
"290 161 OFFCURVE",
"290 396 CURVE SMOOTH",
"290 550 OFFCURVE",
"189 639 OFFCURVE",
"124 678 CURVE SMOOTH",
"112 685 OFFCURVE",
"106 691 OFFCURVE",
"111 703 CURVE",
"124 730 LINE"
);
}
);
};
layerId = "555B79C6-6D98-46E7-9307-77C37975E414";
paths = (
{
closed = 1;
nodes = (
"132 746 OFFCURVE",
"141 749 OFFCURVE",
"160 741 CURVE SMOOTH",
"267 695 OFFCURVE",
"407 565 OFFCURVE",
"407 393 CURVE SMOOTH",
"407 118 OFFCURVE",
"153 -69 OFFCURVE",
"68 -105 CURVE SMOOTH",
"53 -111 OFFCURVE",
"48 -107 OFFCURVE",
"42 -95 CURVE",
"22 -56 LINE",
"16 -42 OFFCURVE",
"24 -38 OFFCURVE",
"36 -30 CURVE SMOOTH",
"111 19 OFFCURVE",
"272 169 OFFCURVE",
"272 393 CURVE SMOOTH",
"272 533 OFFCURVE",
"188 630 OFFCURVE",
"123 669 CURVE SMOOTH",
"111 676 OFFCURVE",
"102 682 OFFCURVE",
"107 694 CURVE",
"126 734 LINE"
);
}
);
width = 422;
},
{
layerId = "B0B60A8F-2DEB-4A58-A43B-60A0DADABD8F";
paths = (
{
closed = 1;
nodes = (
"138 742 OFFCURVE",
"144 745 OFFCURVE",
"163 737 CURVE SMOOTH",
"258 696 OFFCURVE",
"398 568 OFFCURVE",
"398 396 CURVE SMOOTH",
"398 122 OFFCURVE",
"146 -60 OFFCURVE",
"74 -96 CURVE SMOOTH",
"58 -104 OFFCURVE",
"54 -101 OFFCURVE",
"46 -87 CURVE",
"32 -59 LINE",
"27 -47 OFFCURVE",
"33 -41 OFFCURVE",
"45 -34 CURVE SMOOTH",
"119 9 OFFCURVE",
"298 161 OFFCURVE",
"298 396 CURVE SMOOTH",
"298 550 OFFCURVE",
"197 639 OFFCURVE",
"132 678 CURVE SMOOTH",
"120 685 OFFCURVE",
"114 691 OFFCURVE",
"119 703 CURVE",
"132 730 LINE"
);
}
);
width = 428;
}
);
unicode = 0029;
},
{
glyphname = asterisk;
lastChange = "2021-02-21 15:12:35 +0000";
layers = (
{
background = {
paths = (
{
closed = 1;
nodes = (
"206 716 OFFCURVE",
"228 709 OFFCURVE",
"228 657 CURVE SMOOTH",
"228 618 OFFCURVE",
"194 574 OFFCURVE",
"186 574 CURVE SMOOTH",
"181 574 OFFCURVE",
"175 578 OFFCURVE",
"175 581 CURVE SMOOTH",
"175 586 OFFCURVE",
"178 605 OFFCURVE",
"178 618 CURVE SMOOTH",
"178 627 OFFCURVE",
"174 635 OFFCURVE",
"165 642 CURVE SMOOTH",
"154 651 OFFCURVE",
"133 665 OFFCURVE",
"133 678 CURVE SMOOTH",
"133 692 OFFCURVE",
"158 716 OFFCURVE",
"186 716 CURVE"
);
},
{
closed = 1;
nodes = (
"327 599 OFFCURVE",
"327 576 OFFCURVE",
"278 560 CURVE SMOOTH",
"240 547 OFFCURVE",
"189 566 OFFCURVE",
"186 574 CURVE SMOOTH",
"184 580 OFFCURVE",
"186 585 OFFCURVE",
"189 586 CURVE SMOOTH",
"194 588 OFFCURVE",
"213 591 OFFCURVE",
"225 595 CURVE SMOOTH",
"234 598 OFFCURVE",
"240 604 OFFCURVE",
"244 615 CURVE SMOOTH",
"249 628 OFFCURVE",
"256 652 OFFCURVE",
"268 656 CURVE SMOOTH",
"282 661 OFFCURVE",
"312 644 OFFCURVE",
"321 618 CURVE"
);
},
{
closed = 1;
nodes = (
"206 716 OFFCURVE",
"228 709 OFFCURVE",
"228 657 CURVE SMOOTH",
"228 618 OFFCURVE",
"194 574 OFFCURVE",
"186 574 CURVE SMOOTH",
"181 574 OFFCURVE",
"175 578 OFFCURVE",
"175 581 CURVE SMOOTH",
"175 586 OFFCURVE",
"178 605 OFFCURVE",
"178 618 CURVE SMOOTH",
"178 627 OFFCURVE",
"174 635 OFFCURVE",
"165 642 CURVE SMOOTH",
"154 651 OFFCURVE",
"133 665 OFFCURVE",
"133 678 CURVE SMOOTH",
"133 692 OFFCURVE",
"158 716 OFFCURVE",
"186 716 CURVE"
);
},
{
closed = 1;
nodes = (
"253 448 OFFCURVE",
"231 441 OFFCURVE",
"201 483 CURVE SMOOTH",
"177 515 OFFCURVE",
"180 569 OFFCURVE",
"186 574 CURVE SMOOTH",
"191 578 OFFCURVE",
"196 578 OFFCURVE",
"198 575 CURVE SMOOTH",
"201 571 OFFCURVE",
"210 554 OFFCURVE",
"218 544 CURVE SMOOTH",
"223 536 OFFCURVE",
"231 532 OFFCURVE",
"243 532 CURVE SMOOTH",
"256 531 OFFCURVE",
"281 532 OFFCURVE",
"289 522 CURVE SMOOTH",
"298 510 OFFCURVE",
"291 476 OFFCURVE",
"269 460 CURVE"
);
},
{
closed = 1;
nodes = (
"87 471 OFFCURVE",
"74 490 OFFCURVE",
"104 532 CURVE SMOOTH",
"127 564 OFFCURVE",
"179 580 OFFCURVE",
"186 574 CURVE SMOOTH",
"191 570 OFFCURVE",
"193 566 OFFCURVE",
"191 563 CURVE SMOOTH",
"188 559 OFFCURVE",
"175 545 OFFCURVE",
"168 534 CURVE SMOOTH",
"162 527 OFFCURVE",
"160 518 OFFCURVE",
"164 507 CURVE SMOOTH",
"167 494 OFFCURVE",
"176 471 OFFCURVE",
"169 460 CURVE SMOOTH",
"160 448 OFFCURVE",
"126 444 OFFCURVE",
"104 460 CURVE"
);
},
{
closed = 1;
nodes = (
"58 636 OFFCURVE",
"72 654 OFFCURVE",
"121 639 CURVE SMOOTH",
"159 627 OFFCURVE",
"189 583 OFFCURVE",
"186 574 CURVE SMOOTH",
"184 567 OFFCURVE",
"181 564 OFFCURVE",
"177 565 CURVE SMOOTH",
"173 566 OFFCURVE",
"155 575 OFFCURVE",
"143 578 CURVE SMOOTH",
"134 582 OFFCURVE",
"125 581 OFFCURVE",
"116 574 CURVE SMOOTH",
"104 567 OFFCURVE",
"85 551 OFFCURVE",
"73 555 CURVE SMOOTH",
"58 559 OFFCURVE",
"44 590 OFFCURVE",
"53 616 CURVE"
);
}
);
};
backgroundImage = {
crop = "{{0, 0}, {2284, 3114}}";
imagePath = /Users/sumanbhandary/Downloads/IMG_9767.jpg;
transform = "{1, 0, 0, 1, -5321, -1746}";
};
layerId = "555B79C6-6D98-46E7-9307-77C37975E414";
paths = (
{
closed = 1;
nodes = (
"60 650 OFFCURVE",
"88 650 CURVE SMOOTH",
"122 650 OFFCURVE",
"154 619 OFFCURVE",
"175 591 CURVE",
"177 592 LINE",
"178 599 OFFCURVE",
"178 611 OFFCURVE",
"178 620 CURVE SMOOTH",
"178 646 OFFCURVE",
"132 653 OFFCURVE",
"132 678 CURVE SMOOTH",
"132 692 OFFCURVE",
"157 716 OFFCURVE",
"185 716 CURVE SMOOTH",
"205 716 OFFCURVE",
"227 709 OFFCURVE",
"227 664 CURVE SMOOTH",
"227 633 OFFCURVE",
"210 604 OFFCURVE",
"198 587 CURVE",
"199 585 LINE",
"222 589 OFFCURVE",
"237 595 OFFCURVE",
"243 612 CURVE SMOOTH",
"250 631 OFFCURVE",
"257 657 OFFCURVE",
"273 657 CURVE SMOOTH",
"294 657 OFFCURVE",
"324 631 OFFCURVE",
"324 602 CURVE SMOOTH",
"324 572 OFFCURVE",
"280 556 OFFCURVE",
"255 556 CURVE SMOOTH",
"233 556 OFFCURVE",
"212 563 OFFCURVE",
"201 567 CURVE",
"200 565 LINE",
"212 545 OFFCURVE",
"225 532 OFFCURVE",
"242 532 CURVE SMOOTH",
"272 532 OFFCURVE",
"293 533 OFFCURVE",
"293 506 CURVE SMOOTH",
"293 480 OFFCURVE",
"269 451 OFFCURVE",
"248 451 CURVE SMOOTH",
"216 451 OFFCURVE",
"182 494 OFFCURVE",
"182 556 CURVE",
"180 557 LINE",
"170 545 OFFCURVE",
"160 527 OFFCURVE",
"160 518 CURVE SMOOTH",
"160 506 OFFCURVE",
"170 490 OFFCURVE",
"170 472 CURVE SMOOTH",
"170 455 OFFCURVE",
"153 450 OFFCURVE",
"136 450 CURVE SMOOTH",
"116 450 OFFCURVE",
"84 464 OFFCURVE",
"84 490 CURVE SMOOTH",
"84 523 OFFCURVE",
"122 563 OFFCURVE",
"167 571 CURVE",
"167 573 LINE",
"160 577 OFFCURVE",
"138 582 OFFCURVE",
"132 582 CURVE SMOOTH",
"115 582 OFFCURVE",
"95 559 OFFCURVE",
"77 559 CURVE SMOOTH",
"63 559 OFFCURVE",
"50 581 OFFCURVE",
"50 604 CURVE SMOOTH",
"50 626 OFFCURVE"
);
}
);
width = 374;
},
{
background = {
paths = (
{
closed = 1;
nodes = (
"208 716 OFFCURVE",
"220 709 OFFCURVE",
"220 657 CURVE SMOOTH",
"220 618 OFFCURVE",
"196 574 OFFCURVE",
"188 574 CURVE SMOOTH",
"183 574 OFFCURVE",
"177 578 OFFCURVE",
"177 581 CURVE SMOOTH",
"177 586 OFFCURVE",
"190 605 OFFCURVE",
"190 618 CURVE SMOOTH",
"190 634 OFFCURVE",
"176 644 OFFCURVE",
"167 651 CURVE SMOOTH",
"158 658 OFFCURVE",
"145 669 OFFCURVE",
"145 678 CURVE SMOOTH",
"145 687 OFFCURVE",
"160 716 OFFCURVE",
"188 716 CURVE"
);
},
{
closed = 1;
nodes = (
"58 637 OFFCURVE",
"69 647 OFFCURVE",
"117 631 CURVE SMOOTH",
"154 619 OFFCURVE",
"190 581 OFFCURVE",
"188 574 CURVE SMOOTH",
"186 569 OFFCURVE",
"179 565 OFFCURVE",
"177 565 CURVE SMOOTH",
"172 567 OFFCURVE",
"158 586 OFFCURVE",
"145 590 CURVE SMOOTH",
"131 594 OFFCURVE",
"115 585 OFFCURVE",
"107 579 CURVE SMOOTH",
"96 571 OFFCURVE",
"83 562 OFFCURVE",
"74 565 CURVE SMOOTH",
"66 568 OFFCURVE",
"43 591 OFFCURVE",
"52 618 CURVE"
);
},
{
closed = 1;
nodes = (
"88 469 OFFCURVE",
"81 482 OFFCURVE",
"112 525 CURVE SMOOTH",
"133 555 OFFCURVE",
"180 578 OFFCURVE",
"188 574 CURVE SMOOTH",
"191 571 OFFCURVE",
"193 564 OFFCURVE",
"191 561 CURVE SMOOTH",
"188 556 OFFCURVE",
"167 549 OFFCURVE",
"158 537 CURVE SMOOTH",
"150 525 OFFCURVE",
"155 508 OFFCURVE",
"157 498 CURVE SMOOTH",
"160 488 OFFCURVE",
"166 470 OFFCURVE",
"160 463 CURVE SMOOTH",
"156 456 OFFCURVE",
"127 441 OFFCURVE",
"103 458 CURVE"
);
},
{
closed = 1;
nodes = (
"256 446 OFFCURVE",
"241 443 OFFCURVE",
"210 485 CURVE SMOOTH",
"188 515 OFFCURVE",
"181 568 OFFCURVE",
"188 574 CURVE SMOOTH",
"191 575 OFFCURVE",
"199 575 OFFCURVE",
"201 573 CURVE SMOOTH",
"204 568 OFFCURVE",
"205 546 OFFCURVE",
"213 534 CURVE SMOOTH",
"222 523 OFFCURVE",
"239 521 OFFCURVE",
"251 521 CURVE SMOOTH",
"261 521 OFFCURVE",
"279 521 OFFCURVE",
"285 513 CURVE SMOOTH",
"289 506 OFFCURVE",
"295 474 OFFCURVE",
"271 457 CURVE"
);
},
{
closed = 1;
nodes = (
"330 598 OFFCURVE",
"328 584 OFFCURVE",
"279 567 CURVE SMOOTH",
"242 555 OFFCURVE",
"190 565 OFFCURVE",
"188 574 CURVE SMOOTH",
"187 577 OFFCURVE",
"189 585 OFFCURVE",
"193 586 CURVE SMOOTH",
"198 587 OFFCURVE",
"218 581 OFFCURVE",
"233 586 CURVE SMOOTH",
"246 590 OFFCURVE",
"253 607 OFFCURVE",
"257 616 CURVE SMOOTH",
"261 626 OFFCURVE",
"266 644 OFFCURVE",
"274 647 CURVE SMOOTH",
"283 649 OFFCURVE",
"316 644 OFFCURVE",
"324 616 CURVE"
);
}
);
};
layerId = "B0B60A8F-2DEB-4A58-A43B-60A0DADABD8F";
paths = (
{
closed = 1;
nodes = (
"57 639 OFFCURVE",
"77 639 CURVE SMOOTH",
"113 639 OFFCURVE",
"153 623 OFFCURVE",
"180 593 CURVE",
"181 593 LINE",
"185 602 OFFCURVE",
"190 610 OFFCURVE",
"190 618 CURVE SMOOTH",
"190 645 OFFCURVE",
"145 659 OFFCURVE",
"145 678 CURVE SMOOTH",
"145 687 OFFCURVE",
"160 716 OFFCURVE",
"188 716 CURVE SMOOTH",
"208 716 OFFCURVE",
"223 709 OFFCURVE",
"223 657 CURVE SMOOTH",
"223 631 OFFCURVE",
"213 603 OFFCURVE",
"204 588 CURVE",
"204 587 LINE",
"211 586 OFFCURVE",
"216 585 OFFCURVE",
"223 585 CURVE SMOOTH",
"262 585 OFFCURVE",
"257 648 OFFCURVE",
"278 648 CURVE SMOOTH",
"304 648 OFFCURVE",
"326 628 OFFCURVE",
"326 604 CURVE SMOOTH",
"326 578 OFFCURVE",
"276 559 OFFCURVE",
"242 559 CURVE SMOOTH",
"228 559 OFFCURVE",
"216 562 OFFCURVE",
"209 564 CURVE",
"208 564 LINE",
"214 533 OFFCURVE",
"213 521 OFFCURVE",
"253 521 CURVE SMOOTH",
"279 521 OFFCURVE",
"289 519 OFFCURVE",
"289 494 CURVE SMOOTH",
"289 471 OFFCURVE",
"272 450 OFFCURVE",
"255 450 CURVE SMOOTH",
"230 450 OFFCURVE",
"188 493 OFFCURVE",
"186 552 CURVE",
"185 552 LINE",
"167 543 OFFCURVE",
"153 536 OFFCURVE",
"153 521 CURVE SMOOTH",
"153 503 OFFCURVE",
"163 483 OFFCURVE",
"163 472 CURVE SMOOTH",
"162 457 OFFCURVE",
"143 450 OFFCURVE",
"128 450 CURVE SMOOTH",
"110 450 OFFCURVE",
"90 463 OFFCURVE",
"90 479 CURVE SMOOTH",
"90 509 OFFCURVE",
"125 554 OFFCURVE",
"166 570 CURVE",
"166 571 LINE",
"156 582 OFFCURVE",
"148 591 OFFCURVE",
"137 591 CURVE SMOOTH",
"113 591 OFFCURVE",
"95 564 OFFCURVE",
"78 564 CURVE SMOOTH",
"68 564 OFFCURVE",
"50 585 OFFCURVE",
"50 605 CURVE SMOOTH",
"50 620 OFFCURVE"
);
}
);
width = 376;
}
);
unicode = 002A;
},
{
glyphname = plus;
lastChange = "2021-02-18 10:41:25 +0000";
layers = (
{
background = {
paths = (
{
closed = 1;
nodes = (
"110 371 LINE",
"93 371 OFFCURVE",
"82 367 OFFCURVE",
"80 352 CURVE SMOOTH",
"76 314 LINE SMOOTH",
"74 299 OFFCURVE",
"78 292 OFFCURVE",
"97 292 CURVE SMOOTH",
"484 292 LINE",
"501 292 OFFCURVE",
"512 296 OFFCURVE",
"514 311 CURVE SMOOTH",
"518 349 LINE SMOOTH",
"520 364 OFFCURVE",
"516 371 OFFCURVE",
"497 371 CURVE SMOOTH"
);
},
{
closed = 1;
nodes = (
"330 540 OFFCURVE",
"302 540 OFFCURVE",
"290 540 CURVE",
"280 540 OFFCURVE",
"271 538 OFFCURVE",
"269 515 CURVE SMOOTH",
"264 456 OFFCURVE",
"240 237 OFFCURVE",
"228 141 CURVE SMOOTH",
"225 119 OFFCURVE",
"231 110 OFFCURVE",
"253 110 CURVE SMOOTH",
"266 110 OFFCURVE",
"283 110 OFFCURVE",
"300 110 CURVE SMOOTH",
"317 110 OFFCURVE",
"321 117 OFFCURVE",
"323 141 CURVE SMOOTH",
"330 232 OFFCURVE",
"349 418 OFFCURVE",
"361 516 CURVE SMOOTH",
"364 538 OFFCURVE",
"352 540 OFFCURVE",
"342 540 CURVE"
);
}
);
};
layerId = "555B79C6-6D98-46E7-9307-77C37975E414";
paths = (
{
closed = 1;
nodes = (
"100 386 LINE",
"83 386 OFFCURVE",
"74 377 OFFCURVE",
"72 362 CURVE SMOOTH",
"65 302 LINE SMOOTH",
"63 287 OFFCURVE",
"68 277 OFFCURVE",
"87 277 CURVE SMOOTH",
"494 277 LINE",
"513 277 OFFCURVE",
"521 287 OFFCURVE",
"523 302 CURVE SMOOTH",
"529 359 LINE SMOOTH",
"531 376 OFFCURVE",
"525 386 OFFCURVE",
"506 386 CURVE SMOOTH"
);
},
{
closed = 1;
nodes = (
"345 550 OFFCURVE",
"287 550 OFFCURVE",
"275 550 CURVE",
"265 550 OFFCURVE",
"256 548 OFFCURVE",
"254 525 CURVE SMOOTH",
"249 466 OFFCURVE",
"225 227 OFFCURVE",
"213 131 CURVE SMOOTH",
"210 109 OFFCURVE",
"216 100 OFFCURVE",
"238 100 CURVE SMOOTH",
"251 100 OFFCURVE",
"298 100 OFFCURVE",
"315 100 CURVE SMOOTH",
"332 100 OFFCURVE",
"336 107 OFFCURVE",
"338 131 CURVE SMOOTH",
"345 222 OFFCURVE",
"364 428 OFFCURVE",
"376 526 CURVE SMOOTH",
"379 548 OFFCURVE",
"367 550 OFFCURVE",
"357 550 CURVE"
);
}
);
width = 594;
},
{
background = {
paths = (
{
closed = 1;
nodes = (
"364 680 OFFCURVE",
"286 680 OFFCURVE",
"274 680 CURVE",
"266 680 OFFCURVE",
"257 678 OFFCURVE",
"256 660 CURVE SMOOTH",
"246 516 OFFCURVE",
"219 244 OFFCURVE",
"197 75 CURVE SMOOTH",
"191 28 OFFCURVE",
"185 0 OFFCURVE",
"225 0 CURVE SMOOTH",
"234 0 OFFCURVE",
"280 0 OFFCURVE",
"316 0 CURVE SMOOTH",
"343 0 OFFCURVE",
"340 28 OFFCURVE",
"343 71 CURVE SMOOTH",
"356 248 OFFCURVE",
"383 518 OFFCURVE",
"400 656 CURVE SMOOTH",
"403 678 OFFCURVE",
"386 680 OFFCURVE",
"376 680 CURVE"
);
}
);
};
layerId = "B0B60A8F-2DEB-4A58-A43B-60A0DADABD8F";
paths = (
{
closed = 1;
nodes = (
"109 371 LINE",
"92 371 OFFCURVE",
"81 367 OFFCURVE",
"79 352 CURVE SMOOTH",
"75 314 LINE SMOOTH",
"73 299 OFFCURVE",
"77 292 OFFCURVE",
"96 292 CURVE SMOOTH",
"483 292 LINE",
"500 292 OFFCURVE",
"511 296 OFFCURVE",
"513 311 CURVE SMOOTH",
"517 349 LINE SMOOTH",
"519 364 OFFCURVE",
"515 371 OFFCURVE",
"496 371 CURVE SMOOTH"
);
},
{
closed = 1;
nodes = (
"329 540 OFFCURVE",
"301 540 OFFCURVE",
"289 540 CURVE",
"279 540 OFFCURVE",
"270 538 OFFCURVE",
"268 515 CURVE SMOOTH",
"263 456 OFFCURVE",
"239 237 OFFCURVE",
"227 141 CURVE SMOOTH",
"224 119 OFFCURVE",
"230 110 OFFCURVE",
"252 110 CURVE SMOOTH",
"265 110 OFFCURVE",
"282 110 OFFCURVE",
"299 110 CURVE SMOOTH",
"316 110 OFFCURVE",
"320 117 OFFCURVE",
"322 141 CURVE SMOOTH",
"329 232 OFFCURVE",
"348 418 OFFCURVE",
"360 516 CURVE SMOOTH",
"363 538 OFFCURVE",
"351 540 OFFCURVE",
"341 540 CURVE"
);
}
);
width = 592;
}
);
unicode = 002B;
},
{
glyphname = comma;
lastChange = "2021-02-07 09:29:04 +0000";
layers = (
{
background = {
paths = (
{
closed = 1;
nodes = (
"62 -87 OFFCURVE",
"107 -17 OFFCURVE",
"107 -2 CURVE SMOOTH",
"107 7 OFFCURVE",
"104 17 OFFCURVE",
"98 17 CURVE SMOOTH",
"95 17 OFFCURVE",
"95 17 OFFCURVE",
"92 17 CURVE SMOOTH",
"84 17 OFFCURVE",
"84 0 OFFCURVE",
"74 0 CURVE SMOOTH",
"70 0 OFFCURVE",
"43 0 OFFCURVE",
"38 0 CURVE SMOOTH",
"31 0 OFFCURVE",
"28 4 OFFCURVE",
"29 13 CURVE SMOOTH",
"30 23 OFFCURVE",
"37 76 OFFCURVE",
"39 93 CURVE SMOOTH",
"41 109 OFFCURVE",
"51 113 OFFCURVE",
"63 113 CURVE SMOOTH",
"115 113 OFFCURVE",
"189 70 OFFCURVE",
"189 14 CURVE SMOOTH",
"189 -53 OFFCURVE",
"102 -111 OFFCURVE",
"74 -111 CURVE SMOOTH",
"66 -111 OFFCURVE",
"62 -108 OFFCURVE",
"62 -103 CURVE SMOOTH"
);
}
);
};
layerId = "555B79C6-6D98-46E7-9307-77C37975E414";
paths = (
{
closed = 1;
nodes = (
"46 -85 OFFCURVE",
"104 -17 OFFCURVE",
"104 -2 CURVE SMOOTH",
"104 7 OFFCURVE",
"103 17 OFFCURVE",
"98 17 CURVE SMOOTH",
"95 17 OFFCURVE",
"98 17 OFFCURVE",
"95 17 CURVE SMOOTH",
"87 17 OFFCURVE",
"87 0 OFFCURVE",
"77 0 CURVE SMOOTH",
"73 0 OFFCURVE",
"45 0 OFFCURVE",
"40 0 CURVE SMOOTH",
"29 0 OFFCURVE",
"17 5 OFFCURVE",
"20 25 CURVE SMOOTH",
"22 39 OFFCURVE",
"27 80 OFFCURVE",
"30 105 CURVE SMOOTH",
"33 132 OFFCURVE",
"52 135 OFFCURVE",
"64 135 CURVE SMOOTH",
"131 135 OFFCURVE",
"211 79 OFFCURVE",
"211 14 CURVE SMOOTH",
"211 -73 OFFCURVE",
"107 -124 OFFCURVE",
"66 -124 CURVE SMOOTH",
"54 -124 OFFCURVE",
"46 -118 OFFCURVE",
"46 -108 CURVE SMOOTH"
);
}
);
width = 231;
},
{
background = {
paths = (
{
closed = 1;
nodes = (
"44 -97 OFFCURVE",
"94 -7 OFFCURVE",
"94 -2 CURVE SMOOTH",
"94 7 OFFCURVE",
"93 10 OFFCURVE",
"87 10 CURVE SMOOTH",
"84 10 OFFCURVE",
"85 10 OFFCURVE",
"81 10 CURVE SMOOTH",
"76 10 OFFCURVE",
"73 0 OFFCURVE",
"67 0 CURVE SMOOTH",
"62 0 OFFCURVE",
"34 0 OFFCURVE",
"29 0 CURVE SMOOTH",
"22 0 OFFCURVE",
"19 4 OFFCURVE",
"20 13 CURVE SMOOTH",
"21 23 OFFCURVE",
"28 85 OFFCURVE",
"30 98 CURVE SMOOTH",
"31 109 OFFCURVE",
"37 113 OFFCURVE",
"48 113 CURVE SMOOTH",
"112 113 OFFCURVE",
"189 77 OFFCURVE",
"189 14 CURVE SMOOTH",
"189 -53 OFFCURVE",
"114 -122 OFFCURVE",
"61 -122 CURVE SMOOTH",
"53 -122 OFFCURVE",
"44 -119 OFFCURVE",
"44 -111 CURVE SMOOTH"
);
}
);
};
layerId = "B0B60A8F-2DEB-4A58-A43B-60A0DADABD8F";
paths = (
{
closed = 1;
nodes = (
"48 -87 OFFCURVE",
"103 -17 OFFCURVE",
"103 -2 CURVE SMOOTH",
"103 7 OFFCURVE",
"100 17 OFFCURVE",
"94 17 CURVE SMOOTH",
"91 17 OFFCURVE",
"91 17 OFFCURVE",
"88 17 CURVE SMOOTH",
"80 17 OFFCURVE",
"80 0 OFFCURVE",
"70 0 CURVE SMOOTH",
"66 0 OFFCURVE",
"39 0 OFFCURVE",
"34 0 CURVE SMOOTH",
"27 0 OFFCURVE",
"24 4 OFFCURVE",
"25 13 CURVE SMOOTH",
"26 23 OFFCURVE",
"33 76 OFFCURVE",
"35 93 CURVE SMOOTH",
"37 109 OFFCURVE",
"47 113 OFFCURVE",
"59 113 CURVE SMOOTH",
"111 113 OFFCURVE",
"185 70 OFFCURVE",
"185 14 CURVE SMOOTH",
"185 -63 OFFCURVE",
"88 -111 OFFCURVE",
"60 -111 CURVE SMOOTH",
"52 -111 OFFCURVE",
"48 -108 OFFCURVE",
"48 -103 CURVE SMOOTH"
);
}
);
width = 209;
}
);
unicode = 002C;
},
{
glyphname = hyphen;
lastChange = "2021-02-18 10:43:22 +0000";
layers = (
{
background = {
paths = (
{
closed = 1;
nodes = (
"104 406 LINE",
"87 406 OFFCURVE",
"79 402 OFFCURVE",
"74 387 CURVE SMOOTH",
"59 339 LINE SMOOTH",
"54 324 OFFCURVE",
"61 317 OFFCURVE",
"80 317 CURVE SMOOTH",
"337 317 LINE",
"354 317 OFFCURVE",
"362 321 OFFCURVE",
"367 336 CURVE SMOOTH",
"382 384 LINE SMOOTH",
"387 399 OFFCURVE",
"380 406 OFFCURVE",
"361 406 CURVE SMOOTH"
);
}
);
};
layerId = "555B79C6-6D98-46E7-9307-77C37975E414";
paths = (
{
closed = 1;
nodes = (
"95 411 LINE",
"78 411 OFFCURVE",
"69 407 OFFCURVE",
"65 392 CURVE SMOOTH",
"46 329 LINE SMOOTH",
"42 314 OFFCURVE",
"48 307 OFFCURVE",
"67 307 CURVE SMOOTH",
"344 307 LINE",
"361 307 OFFCURVE",
"370 311 OFFCURVE",
"374 326 CURVE SMOOTH",
"393 389 LINE SMOOTH",
"397 404 OFFCURVE",
"391 411 OFFCURVE",
"372 411 CURVE SMOOTH"
);
}
);
width = 439;
},
{
layerId = "B0B60A8F-2DEB-4A58-A43B-60A0DADABD8F";
paths = (
{
closed = 1;
nodes = (
"102 406 LINE",
"85 406 OFFCURVE",
"77 402 OFFCURVE",
"72 387 CURVE SMOOTH",
"57 339 LINE SMOOTH",
"52 324 OFFCURVE",
"59 317 OFFCURVE",
"78 317 CURVE SMOOTH",
"335 317 LINE",
"352 317 OFFCURVE",
"360 321 OFFCURVE",
"365 336 CURVE SMOOTH",
"380 384 LINE SMOOTH",
"385 399 OFFCURVE",
"378 406 OFFCURVE",
"359 406 CURVE SMOOTH"
);
}
);
width = 437;
}
);
unicode = 002D;
},
{
glyphname = period;
lastChange = "2021-02-04 10:11:19 +0000";
layers = (
{
background = {
paths = (
{
closed = 1;
nodes = (
"128 0 OFFCURVE",
"155 27 OFFCURVE",
"155 60 CURVE SMOOTH",
"155 93 OFFCURVE",
"128 120 OFFCURVE",
"95 120 CURVE SMOOTH",
"62 120 OFFCURVE",
"35 93 OFFCURVE",
"35 60 CURVE SMOOTH",
"35 27 OFFCURVE",
"62 0 OFFCURVE",
"95 0 CURVE SMOOTH"
);
}
);
};
layerId = "555B79C6-6D98-46E7-9307-77C37975E414";
paths = (
{
closed = 1;
nodes = (
"136 0 OFFCURVE",
"170 34 OFFCURVE",
"170 75 CURVE SMOOTH",
"170 116 OFFCURVE",
"136 150 OFFCURVE",
"95 150 CURVE SMOOTH",
"54 150 OFFCURVE",
"20 116 OFFCURVE",
"20 75 CURVE SMOOTH",
"20 34 OFFCURVE",
"54 0 OFFCURVE",
"95 0 CURVE SMOOTH"
);
}
);
width = 190;
},
{
background = {
paths = (
{
closed = 1;
nodes = (
"123 0 OFFCURVE",
"150 27 OFFCURVE",
"150 60 CURVE SMOOTH",
"150 93 OFFCURVE",
"123 120 OFFCURVE",
"90 120 CURVE SMOOTH",
"57 120 OFFCURVE",
"30 93 OFFCURVE",
"30 60 CURVE SMOOTH",
"30 27 OFFCURVE",
"57 0 OFFCURVE",
"90 0 CURVE SMOOTH"
);
}
);
};
layerId = "B0B60A8F-2DEB-4A58-A43B-60A0DADABD8F";
paths = (
{
closed = 1;
nodes = (
"123 0 OFFCURVE",
"150 27 OFFCURVE",
"150 60 CURVE SMOOTH",
"150 93 OFFCURVE",
"123 120 OFFCURVE",
"90 120 CURVE SMOOTH",
"57 120 OFFCURVE",
"30 93 OFFCURVE",
"30 60 CURVE SMOOTH",
"30 27 OFFCURVE",
"57 0 OFFCURVE",
"90 0 CURVE SMOOTH"
);
}
);
width = 180;
}
);
unicode = 002E;
},
{
glyphname = slash;
lastChange = "2021-02-18 10:29:22 +0000";
layers = (
{
background = {
paths = (
{
closed = 1;
nodes = (
"399 690 OFFCURVE",
"350 690 OFFCURVE",
"338 690 CURVE",
"330 690 OFFCURVE",
"316 688 OFFCURVE",
"310 666 CURVE SMOOTH",
"276 528 OFFCURVE",
"159 94 OFFCURVE",
"108 -77 CURVE SMOOTH",
"93 -124 OFFCURVE",
"83 -152 OFFCURVE",
"123 -152 CURVE SMOOTH",
"132 -152 OFFCURVE",
"148 -152 OFFCURVE",
"184 -152 CURVE SMOOTH",
"211 -152 OFFCURVE",
"211 -124 OFFCURVE",
"223 -81 CURVE SMOOTH",
"267 90 OFFCURVE",
"385 526 OFFCURVE",
"428 670 CURVE SMOOTH",
"433 688 OFFCURVE",
"424 690 OFFCURVE",
"415 690 CURVE"
);
}
);
};
layerId = "555B79C6-6D98-46E7-9307-77C37975E414";
paths = (
{
closed = 1;
nodes = (
"409 690 OFFCURVE",
"330 690 OFFCURVE",
"318 690 CURVE",
"310 690 OFFCURVE",
"296 688 OFFCURVE",
"290 666 CURVE SMOOTH",
"256 528 OFFCURVE",
"139 94 OFFCURVE",
"88 -77 CURVE SMOOTH",
"73 -124 OFFCURVE",
"63 -152 OFFCURVE",
"103 -152 CURVE SMOOTH",
"112 -152 OFFCURVE",
"158 -152 OFFCURVE",
"194 -152 CURVE SMOOTH",
"221 -152 OFFCURVE",
"221 -124 OFFCURVE",
"233 -81 CURVE SMOOTH",
"277 90 OFFCURVE",
"395 526 OFFCURVE",
"438 670 CURVE SMOOTH",
"443 688 OFFCURVE",
"434 690 OFFCURVE",
"425 690 CURVE"
);
}
);
width = 514;
},
{
background = {
paths = (
{
closed = 1;
nodes = (
"367 680 OFFCURVE",
"338 680 OFFCURVE",
"326 680 CURVE",
"318 680 OFFCURVE",
"304 678 OFFCURVE",
"298 656 CURVE SMOOTH",
"264 518 OFFCURVE",
"191 246 OFFCURVE",
"140 75 CURVE SMOOTH",
"125 28 OFFCURVE",
"115 0 OFFCURVE",
"155 0 CURVE SMOOTH",
"164 0 OFFCURVE",
"160 0 OFFCURVE",
"196 0 CURVE SMOOTH",
"223 0 OFFCURVE",
"223 28 OFFCURVE",
"235 71 CURVE SMOOTH",
"279 242 OFFCURVE",
"353 516 OFFCURVE",
"396 660 CURVE SMOOTH",
"401 678 OFFCURVE",
"392 680 OFFCURVE",
"383 680 CURVE"
);
}
);
};
layerId = "B0B60A8F-2DEB-4A58-A43B-60A0DADABD8F";
paths = (
{
closed = 1;
nodes = (
"389 690 OFFCURVE",
"340 690 OFFCURVE",
"328 690 CURVE",
"320 690 OFFCURVE",
"306 688 OFFCURVE",
"300 666 CURVE SMOOTH",
"266 528 OFFCURVE",
"149 94 OFFCURVE",
"98 -77 CURVE SMOOTH",
"83 -124 OFFCURVE",
"73 -152 OFFCURVE",
"113 -152 CURVE SMOOTH",
"122 -152 OFFCURVE",
"138 -152 OFFCURVE",
"174 -152 CURVE SMOOTH",
"201 -152 OFFCURVE",
"201 -124 OFFCURVE",
"213 -81 CURVE SMOOTH",
"257 90 OFFCURVE",
"375 526 OFFCURVE",
"418 670 CURVE SMOOTH",
"423 688 OFFCURVE",
"414 690 OFFCURVE",
"405 690 CURVE"
);
}
);
width = 504;
}
);
unicode = 002F;
},
{
glyphname = zero;
lastChange = "2021-02-16 05:39:41 +0000";
layers = (
{
background = {
paths = (
{
closed = 1;
nodes = (
"611 236 OFFCURVE",
"502 6 OFFCURVE",
"286 6 CURVE SMOOTH",
"153 6 OFFCURVE",
"50 84 OFFCURVE",
"50 241 CURVE SMOOTH",
"50 429 OFFCURVE",
"153 673 OFFCURVE",
"377 673 CURVE SMOOTH",
"503 673 OFFCURVE",
"611 605 OFFCURVE",
"611 450 CURVE SMOOTH"
);
},
{
closed = 1;
nodes = (
"434 66 OFFCURVE",
"496 324 OFFCURVE",
"496 481 CURVE SMOOTH",
"496 562 OFFCURVE",
"411 613 OFFCURVE",
"343 613 CURVE SMOOTH",
"224 613 OFFCURVE",
"165 346 OFFCURVE",
"165 198 CURVE SMOOTH",
"165 117 OFFCURVE",
"259 66 OFFCURVE",
"321 66 CURVE SMOOTH"
);
}
);
};
layerId = "555B79C6-6D98-46E7-9307-77C37975E414";
paths = (
{
closed = 1;
nodes = (
"621 226 OFFCURVE",
"502 6 OFFCURVE",
"286 6 CURVE SMOOTH",
"153 6 OFFCURVE",
"40 84 OFFCURVE",
"40 241 CURVE SMOOTH",
"40 439 OFFCURVE",
"153 673 OFFCURVE",
"377 673 CURVE SMOOTH",
"503 673 OFFCURVE",
"621 605 OFFCURVE",
"621 450 CURVE SMOOTH"
);
},
{
closed = 1;
nodes = (
"434 66 OFFCURVE",
"476 324 OFFCURVE",
"476 481 CURVE SMOOTH",
"476 562 OFFCURVE",
"411 613 OFFCURVE",
"343 613 CURVE SMOOTH",
"224 613 OFFCURVE",
"185 346 OFFCURVE",
"185 198 CURVE SMOOTH",
"185 117 OFFCURVE",
"259 66 OFFCURVE",
"321 66 CURVE SMOOTH"
);
}
);
width = 661;
},
{
background = {
paths = (
{
closed = 1;
nodes = (
"668 191 OFFCURVE",
"503 -9 OFFCURVE",
"269 -9 CURVE SMOOTH",
"112 -9 OFFCURVE",
"-33 72 OFFCURVE",
"-33 243 CURVE SMOOTH",
"-33 473 OFFCURVE",
"132 688 OFFCURVE",
"366 688 CURVE SMOOTH",
"523 688 OFFCURVE",
"668 607 OFFCURVE",
"668 436 CURVE SMOOTH"
);
},
{
closed = 1;
nodes = (
"450 61 OFFCURVE",
"518 283 OFFCURVE",
"518 418 CURVE SMOOTH",
"518 572 OFFCURVE",
"412 618 OFFCURVE",
"325 618 CURVE SMOOTH",
"185 618 OFFCURVE",
"117 396 OFFCURVE",
"117 261 CURVE SMOOTH",
"117 107 OFFCURVE",
"223 61 OFFCURVE",
"303 61 CURVE SMOOTH"
);
}
);
};
layerId = "B0B60A8F-2DEB-4A58-A43B-60A0DADABD8F";
paths = (
{
closed = 1;
nodes = (
"598 236 OFFCURVE",
"489 6 OFFCURVE",
"273 6 CURVE SMOOTH",
"140 6 OFFCURVE",
"37 84 OFFCURVE",
"37 241 CURVE SMOOTH",
"37 429 OFFCURVE",
"140 673 OFFCURVE",
"364 673 CURVE SMOOTH",
"490 673 OFFCURVE",
"598 605 OFFCURVE",
"598 450 CURVE SMOOTH"
);
},
{
closed = 1;
nodes = (
"421 66 OFFCURVE",
"483 324 OFFCURVE",
"483 481 CURVE SMOOTH",
"483 562 OFFCURVE",
"398 613 OFFCURVE",
"330 613 CURVE SMOOTH",
"211 613 OFFCURVE",
"152 346 OFFCURVE",
"152 198 CURVE SMOOTH",
"152 117 OFFCURVE",
"246 66 OFFCURVE",
"308 66 CURVE SMOOTH"
);
}
);
width = 635;
}
);
unicode = 0030;
},
{
glyphname = one;
lastChange = "2021-02-16 05:44:02 +0000";
layers = (
{
background = {
paths = (
{
closed = 1;
nodes = (
"251 680 OFFCURVE",
"200 680 OFFCURVE",
"188 680 CURVE",
"180 680 OFFCURVE",
"171 678 OFFCURVE",
"170 660 CURVE SMOOTH",
"160 516 OFFCURVE",
"133 240 OFFCURVE",
"111 71 CURVE SMOOTH",
"105 28 OFFCURVE",
"99 0 OFFCURVE",
"126 0 CURVE SMOOTH",
"135 0 OFFCURVE",
"164 0 OFFCURVE",
"200 0 CURVE SMOOTH",
"227 0 OFFCURVE",
"224 28 OFFCURVE",
"227 71 CURVE SMOOTH",
"240 248 OFFCURVE",
"270 518 OFFCURVE",
"287 656 CURVE SMOOTH",
"290 678 OFFCURVE",
"273 680 OFFCURVE",
"263 680 CURVE"
);
},
{
closed = 1;
nodes = (
"188 680 LINE",
"173 680 OFFCURVE",
"157 680 OFFCURVE",
"142 680 CURVE SMOOTH",
"119 680 OFFCURVE",
"111 678 OFFCURVE",
"106 661 CURVE SMOOTH",
"102 648 OFFCURVE",
"94 621 OFFCURVE",
"89 604 CURVE SMOOTH",
"85 589 OFFCURVE",
"91 582 OFFCURVE",
"104 582 CURVE SMOOTH",
"108 582 OFFCURVE",
"124 582 OFFCURVE",
"130 582 CURVE SMOOTH",
"145 582 OFFCURVE",
"152 593 OFFCURVE",
"160 623 CURVE",
"162 623 OFFCURVE",
"181 623 OFFCURVE",
"183 623 CURVE"
);
}
);
};
layerId = "555B79C6-6D98-46E7-9307-77C37975E414";
paths = (
{
closed = 1;
nodes = (
"266 680 OFFCURVE",
"190 680 OFFCURVE",
"178 680 CURVE",
"170 680 OFFCURVE",
"161 678 OFFCURVE",
"160 660 CURVE SMOOTH",
"150 516 OFFCURVE",
"123 240 OFFCURVE",
"101 71 CURVE SMOOTH",
"95 28 OFFCURVE",
"89 0 OFFCURVE",
"116 0 CURVE SMOOTH",
"125 0 OFFCURVE",
"179 0 OFFCURVE",
"215 0 CURVE SMOOTH",
"242 0 OFFCURVE",
"239 28 OFFCURVE",
"242 71 CURVE SMOOTH",
"255 248 OFFCURVE",
"285 518 OFFCURVE",
"302 656 CURVE SMOOTH",
"305 678 OFFCURVE",
"288 680 OFFCURVE",
"278 680 CURVE"
);
},
{
closed = 1;
nodes = (
"178 680 LINE",
"163 680 OFFCURVE",
"145 680 OFFCURVE",
"130 680 CURVE SMOOTH",
"107 680 OFFCURVE",
"99 678 OFFCURVE",
"94 661 CURVE SMOOTH",
"90 648 OFFCURVE",
"76 601 OFFCURVE",
"71 584 CURVE SMOOTH",
"67 569 OFFCURVE",
"73 562 OFFCURVE",
"86 562 CURVE SMOOTH",
"90 562 OFFCURVE",
"112 562 OFFCURVE",
"118 562 CURVE SMOOTH",
"135 562 OFFCURVE",
"140 573 OFFCURVE",
"148 603 CURVE",
"150 603 OFFCURVE",
"171 603 OFFCURVE",
"173 603 CURVE"
);
}
);
width = 377;
},
{
layerId = "B0B60A8F-2DEB-4A58-A43B-60A0DADABD8F";
paths = (
{
closed = 1;
nodes = (
"243 680 OFFCURVE",
"192 680 OFFCURVE",
"180 680 CURVE",
"172 680 OFFCURVE",
"163 678 OFFCURVE",
"162 660 CURVE SMOOTH",
"152 516 OFFCURVE",
"125 240 OFFCURVE",
"103 71 CURVE SMOOTH",
"97 28 OFFCURVE",
"91 0 OFFCURVE",
"118 0 CURVE SMOOTH",
"127 0 OFFCURVE",
"156 0 OFFCURVE",
"192 0 CURVE SMOOTH",
"219 0 OFFCURVE",
"216 28 OFFCURVE",
"219 71 CURVE SMOOTH",
"232 248 OFFCURVE",
"262 518 OFFCURVE",
"279 656 CURVE SMOOTH",
"282 678 OFFCURVE",
"265 680 OFFCURVE",
"255 680 CURVE"
);
},
{
closed = 1;
nodes = (
"180 680 LINE",
"165 680 OFFCURVE",
"149 680 OFFCURVE",
"134 680 CURVE SMOOTH",
"111 680 OFFCURVE",
"103 678 OFFCURVE",
"98 661 CURVE SMOOTH",
"94 648 OFFCURVE",
"86 621 OFFCURVE",
"81 604 CURVE SMOOTH",
"77 589 OFFCURVE",
"83 582 OFFCURVE",
"96 582 CURVE SMOOTH",
"100 582 OFFCURVE",
"116 582 OFFCURVE",
"122 582 CURVE SMOOTH",
"137 582 OFFCURVE",
"144 593 OFFCURVE",
"152 623 CURVE",
"154 623 OFFCURVE",
"173 623 OFFCURVE",
"175 623 CURVE"
);
}
);
width = 359;
}
);
unicode = 0031;
},
{
glyphname = two;
lastChange = "2021-02-16 06:13:04 +0000";
layers = (
{
background = {
paths = (
{
closed = 1;
nodes = (
"35 111 OFFCURVE",
"54 130 OFFCURVE",
"87 158 CURVE SMOOTH",
"189 242 OFFCURVE",
"417 423 OFFCURVE",
"415 520 CURVE SMOOTH",
"414 579 OFFCURVE",
"377 640 OFFCURVE",
"318 640 CURVE SMOOTH",
"247 640 OFFCURVE",
"226 565 OFFCURVE",
"226 479 CURVE SMOOTH",
"226 469 OFFCURVE",
"224 462 OFFCURVE",
"205 462 CURVE SMOOTH",
"135 462 LINE SMOOTH",
"115 462 OFFCURVE",
"109 470 OFFCURVE",
"109 499 CURVE SMOOTH",
"109 589 OFFCURVE",
"208 685 OFFCURVE",
"326 685 CURVE SMOOTH",
"456 685 OFFCURVE",
"531 581 OFFCURVE",
"530 507 CURVE SMOOTH",
"529 398 OFFCURVE",
"327 236 OFFCURVE",
"216 144 CURVE SMOOTH",
"185 119 OFFCURVE",
"172 111 OFFCURVE",
"127 93 CURVE",
"127 84 LINE",
"179 84 OFFCURVE",
"368 102 OFFCURVE",
"397 107 CURVE SMOOTH",
"408 109 OFFCURVE",
"419 111 OFFCURVE",
"419 123 CURVE SMOOTH",
"419 156 LINE SMOOTH",
"419 164 OFFCURVE",
"425 167 OFFCURVE",
"431 167 CURVE SMOOTH",
"518 167 LINE SMOOTH",
"525 167 OFFCURVE",
"530 165 OFFCURVE",
"530 156 CURVE SMOOTH",
"530 53 OFFCURVE",
"449 0 OFFCURVE",
"381 0 CURVE SMOOTH",
"96 0 LINE SMOOTH",
"57 0 OFFCURVE",
"35 67 OFFCURVE",
"35 90 CURVE SMOOTH"
);
}
);
};
layerId = "555B79C6-6D98-46E7-9307-77C37975E414";
paths = (
{
closed = 1;
nodes = (
"22 120 OFFCURVE",
"52 148 OFFCURVE",
"86 175 CURVE SMOOTH",
"188 257 OFFCURVE",
"401 423 OFFCURVE",
"400 520 CURVE SMOOTH",
"399 586 OFFCURVE",
"358 630 OFFCURVE",
"313 630 CURVE SMOOTH",
"257 630 OFFCURVE",
"241 565 OFFCURVE",
"241 479 CURVE SMOOTH",
"241 469 OFFCURVE",
"239 462 OFFCURVE",
"220 462 CURVE SMOOTH",
"125 462 LINE SMOOTH",
"105 462 OFFCURVE",
"99 470 OFFCURVE",
"99 499 CURVE SMOOTH",
"99 599 OFFCURVE",
"208 685 OFFCURVE",
"326 685 CURVE SMOOTH",
"456 685 OFFCURVE",
"546 591 OFFCURVE",
"545 502 CURVE SMOOTH",
"544 388 OFFCURVE",
"342 236 OFFCURVE",
"231 144 CURVE SMOOTH",
"200 119 OFFCURVE",
"174 104 OFFCURVE",
"127 93 CURVE",
"127 84 LINE",
"199 84 OFFCURVE",
"346 107 OFFCURVE",
"392 117 CURVE SMOOTH",
"403 119 OFFCURVE",
"414 121 OFFCURVE",
"414 133 CURVE SMOOTH",
"414 166 LINE SMOOTH",
"414 174 OFFCURVE",
"420 177 OFFCURVE",
"426 177 CURVE SMOOTH",
"533 177 LINE SMOOTH",
"540 177 OFFCURVE",
"545 175 OFFCURVE",
"545 166 CURVE SMOOTH",
"545 63 OFFCURVE",
"477 0 OFFCURVE",
"379 0 CURVE SMOOTH",
"85 0 LINE SMOOTH",
"44 0 OFFCURVE",
"22 76 OFFCURVE",
"22 102 CURVE SMOOTH"
);
}
);
width = 600;
},
{
layerId = "B0B60A8F-2DEB-4A58-A43B-60A0DADABD8F";
paths = (
{
closed = 1;
nodes = (
"40 111 OFFCURVE",
"59 130 OFFCURVE",
"92 158 CURVE SMOOTH",
"194 242 OFFCURVE",
"422 423 OFFCURVE",
"420 520 CURVE SMOOTH",
"419 579 OFFCURVE",
"382 640 OFFCURVE",
"323 640 CURVE SMOOTH",
"252 640 OFFCURVE",
"231 565 OFFCURVE",
"231 479 CURVE SMOOTH",
"231 469 OFFCURVE",
"229 462 OFFCURVE",
"210 462 CURVE SMOOTH",
"140 462 LINE SMOOTH",
"120 462 OFFCURVE",
"114 470 OFFCURVE",
"114 499 CURVE SMOOTH",
"114 589 OFFCURVE",
"213 685 OFFCURVE",
"331 685 CURVE SMOOTH",
"461 685 OFFCURVE",
"536 581 OFFCURVE",
"535 507 CURVE SMOOTH",
"534 398 OFFCURVE",
"332 236 OFFCURVE",
"221 144 CURVE SMOOTH",
"190 119 OFFCURVE",
"177 111 OFFCURVE",
"132 93 CURVE",
"132 84 LINE",
"184 84 OFFCURVE",
"373 102 OFFCURVE",
"402 107 CURVE SMOOTH",
"419 110 OFFCURVE",
"424 113 OFFCURVE",
"424 126 CURVE SMOOTH",
"424 156 LINE SMOOTH",
"424 164 OFFCURVE",
"430 167 OFFCURVE",
"436 167 CURVE SMOOTH",
"523 167 LINE SMOOTH",
"530 167 OFFCURVE",
"535 165 OFFCURVE",
"535 156 CURVE SMOOTH",
"535 53 OFFCURVE",
"454 0 OFFCURVE",
"386 0 CURVE SMOOTH",
"101 0 LINE SMOOTH",
"62 0 OFFCURVE",
"40 67 OFFCURVE",
"40 90 CURVE SMOOTH"
);
}
);
width = 575;
}
);
unicode = 0032;
},
{
glyphname = three;
lastChange = "2021-02-16 06:11:33 +0000";
layers = (
{
background = {
paths = (
{
closed = 1;
nodes = (
"40 240 OFFCURVE",
"46 248 OFFCURVE",
"66 248 CURVE SMOOTH",
"136 248 LINE SMOOTH",
"155 248 OFFCURVE",
"157 241 OFFCURVE",
"157 231 CURVE SMOOTH",
"157 126 OFFCURVE",
"197 65 OFFCURVE",
"261 65 CURVE SMOOTH",
"327 65 OFFCURVE",
"412 172 OFFCURVE",
"413 245 CURVE SMOOTH",
"414 320 OFFCURVE",
"301 379 OFFCURVE",
"231 379 CURVE SMOOTH",
"211 379 OFFCURVE",
"205 388 OFFCURVE",
"205 398 CURVE SMOOTH",
"205 409 OFFCURVE",
"213 418 OFFCURVE",
"245 445 CURVE SMOOTH",
"309 498 OFFCURVE",
"380 547 OFFCURVE",
"431 599 CURVE",
"431 604 LINE",
"285 604 OFFCURVE",
"170 575 OFFCURVE",
"138 575 CURVE SMOOTH",
"123 575 OFFCURVE",
"116 583 OFFCURVE",
"121 599 CURVE SMOOTH",
"141 661 LINE SMOOTH",
"148 683 OFFCURVE",
"161 680 OFFCURVE",
"190 680 CURVE SMOOTH",
"470 680 LINE SMOOTH",
"497 680 OFFCURVE",
"525 631 OFFCURVE",
"525 601 CURVE SMOOTH",
"525 569 OFFCURVE",
"367 460 OFFCURVE",
"321 432 CURVE",
"321 426 LINE",
"325 426 OFFCURVE",
"332 426 OFFCURVE",
"337 426 CURVE SMOOTH",
"441 426 OFFCURVE",
"527 361 OFFCURVE",
"528 266 CURVE SMOOTH",
"529 138 OFFCURVE",
"417 0 OFFCURVE",
"260 0 CURVE SMOOTH",
"120 0 OFFCURVE",
"40 111 OFFCURVE",
"40 211 CURVE SMOOTH"
);
}
);
};
layerId = "555B79C6-6D98-46E7-9307-77C37975E414";
paths = (
{
closed = 1;
nodes = (
"30 240 OFFCURVE",
"36 248 OFFCURVE",
"56 248 CURVE SMOOTH",
"151 248 LINE SMOOTH",
"170 248 OFFCURVE",
"172 241 OFFCURVE",
"172 231 CURVE SMOOTH",
"172 126 OFFCURVE",
"208 65 OFFCURVE",
"261 65 CURVE SMOOTH",
"311 65 OFFCURVE",
"397 179 OFFCURVE",
"398 245 CURVE SMOOTH",
"399 317 OFFCURVE",
"286 369 OFFCURVE",
"227 369 CURVE SMOOTH",
"205 369 OFFCURVE",
"195 380 OFFCURVE",
"195 396 CURVE SMOOTH",
"195 413 OFFCURVE",
"213 431 OFFCURVE",
"245 456 CURVE SMOOTH",
"309 506 OFFCURVE",
"358 541 OFFCURVE",
"414 593 CURVE",
"414 598 LINE",
"285 598 OFFCURVE",
"157 550 OFFCURVE",
"123 550 CURVE SMOOTH",
"108 550 OFFCURVE",
"98 558 OFFCURVE",
"106 584 CURVE SMOOTH",
"131 661 LINE SMOOTH",
"138 683 OFFCURVE",
"151 680 OFFCURVE",
"180 680 CURVE SMOOTH",
"486 680 LINE SMOOTH",
"513 680 OFFCURVE",
"541 631 OFFCURVE",
"541 601 CURVE SMOOTH",
"541 569 OFFCURVE",
"367 460 OFFCURVE",
"321 432 CURVE",
"321 426 LINE",
"325 426 OFFCURVE",
"332 426 OFFCURVE",
"337 426 CURVE SMOOTH",
"452 426 OFFCURVE",
"537 361 OFFCURVE",
"538 266 CURVE SMOOTH",
"539 138 OFFCURVE",
"417 0 OFFCURVE",
"260 0 CURVE SMOOTH",
"105 0 OFFCURVE",
"30 101 OFFCURVE",
"30 211 CURVE SMOOTH"
);
}
);
width = 571;
},
{
layerId = "B0B60A8F-2DEB-4A58-A43B-60A0DADABD8F";
paths = (
{
closed = 1;
nodes = (
"40 240 OFFCURVE",
"46 248 OFFCURVE",
"66 248 CURVE SMOOTH",
"136 248 LINE SMOOTH",
"155 248 OFFCURVE",
"157 241 OFFCURVE",
"157 231 CURVE SMOOTH",
"157 126 OFFCURVE",
"197 65 OFFCURVE",
"261 65 CURVE SMOOTH",
"327 65 OFFCURVE",
"412 172 OFFCURVE",
"413 245 CURVE SMOOTH",
"414 320 OFFCURVE",
"301 379 OFFCURVE",
"231 379 CURVE SMOOTH",
"211 379 OFFCURVE",
"205 388 OFFCURVE",
"205 398 CURVE SMOOTH",
"205 409 OFFCURVE",
"213 418 OFFCURVE",
"245 445 CURVE SMOOTH",
"309 498 OFFCURVE",
"380 547 OFFCURVE",
"431 599 CURVE",
"431 604 LINE",
"285 604 OFFCURVE",
"170 575 OFFCURVE",
"138 575 CURVE SMOOTH",
"123 575 OFFCURVE",
"116 583 OFFCURVE",
"121 599 CURVE SMOOTH",
"141 661 LINE SMOOTH",
"148 683 OFFCURVE",
"161 680 OFFCURVE",
"190 680 CURVE SMOOTH",
"470 680 LINE SMOOTH",
"497 680 OFFCURVE",
"525 631 OFFCURVE",
"525 601 CURVE SMOOTH",
"525 569 OFFCURVE",
"367 460 OFFCURVE",
"321 432 CURVE",
"321 426 LINE",
"325 426 OFFCURVE",
"332 426 OFFCURVE",
"337 426 CURVE SMOOTH",
"441 426 OFFCURVE",
"527 361 OFFCURVE",
"528 266 CURVE SMOOTH",
"529 138 OFFCURVE",
"417 0 OFFCURVE",
"260 0 CURVE SMOOTH",
"120 0 OFFCURVE",
"40 111 OFFCURVE",
"40 211 CURVE SMOOTH"
);
}
);
width = 568;
}
);
unicode = 0033;
},
{
glyphname = four;
lastChange = "2021-02-16 06:19:15 +0000";
layers = (
{
background = {
paths = (
{
closed = 1;
nodes = (
"547 680 OFFCURVE",
"564 678 OFFCURVE",
"561 656 CURVE SMOOTH",
"544 518 OFFCURVE",
"514 248 OFFCURVE",
"501 71 CURVE SMOOTH",
"498 28 OFFCURVE",
"501 0 OFFCURVE",
"474 0 CURVE SMOOTH",
"438 0 OFFCURVE",
"409 0 OFFCURVE",
"400 0 CURVE SMOOTH",
"373 0 OFFCURVE",
"379 28 OFFCURVE",
"385 71 CURVE SMOOTH",
"407 240 OFFCURVE",
"441 516 OFFCURVE",
"451 660 CURVE SMOOTH",
"452 678 OFFCURVE",
"461 680 OFFCURVE",
"469 680 CURVE",
"481 680 OFFCURVE",
"525 680 OFFCURVE",
"537 680 CURVE"
);
},
{
closed = 1;
nodes = (
"65 215 OFFCURVE",
"69 223 OFFCURVE",
"90 247 CURVE SMOOTH",
"143 310 OFFCURVE",
"336 550 OFFCURVE",
"391 617 CURVE SMOOTH",
"440 675 OFFCURVE",
"452 680 OFFCURVE",
"469 680 CURVE SMOOTH",
"537 680 LINE",
"444 576 LINE",
"437 576 LINE",
"433 557 OFFCURVE",
"397 510 OFFCURVE",
"376 483 CURVE SMOOTH",
"326 418 OFFCURVE",
"266 342 OFFCURVE",
"217 281 CURVE SMOOTH",
"183 238 OFFCURVE",
"151 223 OFFCURVE",
"124 213 CURVE",
"124 206 LINE",
"300 206 OFFCURVE",
"568 237 OFFCURVE",
"600 237 CURVE SMOOTH",
"615 237 OFFCURVE",
"622 229 OFFCURVE",
"617 213 CURVE SMOOTH",
"597 149 LINE SMOOTH",
"590 127 OFFCURVE",
"577 130 OFFCURVE",
"548 130 CURVE SMOOTH",
"123 130 LINE SMOOTH",
"87 130 OFFCURVE",
"65 179 OFFCURVE",
"65 207 CURVE SMOOTH"
);
}
);
};
layerId = "555B79C6-6D98-46E7-9307-77C37975E414";
paths = (
{
closed = 1;
nodes = (
"562 680 OFFCURVE",
"579 678 OFFCURVE",
"576 656 CURVE SMOOTH",
"559 518 OFFCURVE",
"529 248 OFFCURVE",
"516 71 CURVE SMOOTH",
"513 28 OFFCURVE",
"516 0 OFFCURVE",
"489 0 CURVE SMOOTH",
"453 0 OFFCURVE",
"399 0 OFFCURVE",
"390 0 CURVE SMOOTH",
"363 0 OFFCURVE",
"369 28 OFFCURVE",
"375 71 CURVE SMOOTH",
"397 240 OFFCURVE",
"426 516 OFFCURVE",
"436 660 CURVE SMOOTH",
"437 678 OFFCURVE",
"446 680 OFFCURVE",
"454 680 CURVE",
"466 680 OFFCURVE",
"540 680 OFFCURVE",
"552 680 CURVE"
);
},
{
closed = 1;
nodes = (
"50 215 OFFCURVE",
"54 223 OFFCURVE",
"75 247 CURVE SMOOTH",
"128 310 OFFCURVE",
"321 550 OFFCURVE",
"376 617 CURVE SMOOTH",
"425 675 OFFCURVE",
"437 680 OFFCURVE",
"454 680 CURVE SMOOTH",
"552 680 LINE",
"430 573 LINE",
"423 573 LINE",
"419 554 OFFCURVE",
"412 510 OFFCURVE",
"373 459 CURVE SMOOTH",
"341 418 OFFCURVE",
"281 342 OFFCURVE",
"232 281 CURVE SMOOTH",
"202 244 OFFCURVE",
"177 233 OFFCURVE",
"146 223 CURVE",
"146 216 LINE",
"322 216 OFFCURVE",
"583 252 OFFCURVE",
"615 252 CURVE SMOOTH",
"630 252 OFFCURVE",
"637 244 OFFCURVE",
"632 228 CURVE SMOOTH",
"606 144 LINE SMOOTH",
"599 122 OFFCURVE",
"586 125 OFFCURVE",
"557 125 CURVE SMOOTH",
"107 125 LINE SMOOTH",
"71 125 OFFCURVE",
"50 179 OFFCURVE",
"50 207 CURVE SMOOTH"
);
}
);
width = 654;
},
{
layerId = "B0B60A8F-2DEB-4A58-A43B-60A0DADABD8F";
paths = (
{
closed = 1;
nodes = (
"532 680 OFFCURVE",
"549 678 OFFCURVE",
"546 656 CURVE SMOOTH",
"529 518 OFFCURVE",
"499 248 OFFCURVE",
"486 71 CURVE SMOOTH",
"483 28 OFFCURVE",
"486 0 OFFCURVE",
"459 0 CURVE SMOOTH",
"423 0 OFFCURVE",
"394 0 OFFCURVE",
"385 0 CURVE SMOOTH",
"358 0 OFFCURVE",
"364 28 OFFCURVE",
"370 71 CURVE SMOOTH",
"392 240 OFFCURVE",
"426 516 OFFCURVE",
"436 660 CURVE SMOOTH",
"437 678 OFFCURVE",
"446 680 OFFCURVE",
"454 680 CURVE",
"466 680 OFFCURVE",
"510 680 OFFCURVE",
"522 680 CURVE"
);
},
{
closed = 1;
nodes = (
"50 215 OFFCURVE",
"54 223 OFFCURVE",
"75 247 CURVE SMOOTH",
"128 310 OFFCURVE",
"321 550 OFFCURVE",
"376 617 CURVE SMOOTH",
"425 675 OFFCURVE",
"437 680 OFFCURVE",
"454 680 CURVE SMOOTH",
"522 680 LINE",
"429 576 LINE",
"422 576 LINE",
"418 557 OFFCURVE",
"382 510 OFFCURVE",
"361 483 CURVE SMOOTH",
"311 418 OFFCURVE",
"251 342 OFFCURVE",
"202 281 CURVE SMOOTH",
"168 238 OFFCURVE",
"136 223 OFFCURVE",
"109 213 CURVE",
"109 206 LINE",
"285 206 OFFCURVE",
"553 237 OFFCURVE",
"585 237 CURVE SMOOTH",
"600 237 OFFCURVE",
"607 229 OFFCURVE",
"602 213 CURVE SMOOTH",
"582 149 LINE SMOOTH",
"575 127 OFFCURVE",
"562 130 OFFCURVE",
"533 130 CURVE SMOOTH",
"108 130 LINE SMOOTH",
"72 130 OFFCURVE",
"50 179 OFFCURVE",
"50 207 CURVE SMOOTH"
);
}
);
width = 624;
}
);
unicode = 0034;
},
{
glyphname = five;
lastChange = "2021-02-16 06:26:06 +0000";
layers = (
{
background = {
paths = (
{
closed = 1;
nodes = (
"60 240 OFFCURVE",
"68 253 OFFCURVE",
"95 253 CURVE SMOOTH",
"155 253 LINE SMOOTH",
"170 253 OFFCURVE",
"175 250 OFFCURVE",
"175 234 CURVE SMOOTH",
"175 217 OFFCURVE",
"172 192 OFFCURVE",
"172 168 CURVE SMOOTH",
"172 97 OFFCURVE",
"244 56 OFFCURVE",
"287 56 CURVE SMOOTH",
"358 56 OFFCURVE",
"425 207 OFFCURVE",
"425 295 CURVE SMOOTH",
"425 351 OFFCURVE",
"347 408 OFFCURVE",
"296 408 CURVE SMOOTH",
"243 408 OFFCURVE",
"179 341 OFFCURVE",
"164 341 CURVE",
"149 361 LINE",
"190 412 LINE",
"197 412 LINE",
"224 440 OFFCURVE",
"282 481 OFFCURVE",
"347 481 CURVE SMOOTH",
"451 481 OFFCURVE",
"540 408 OFFCURVE",
"540 297 CURVE SMOOTH",
"540 116 OFFCURVE",
"405 -9 OFFCURVE",
"268 -9 CURVE SMOOTH",
"142 -9 OFFCURVE",
"60 84 OFFCURVE",
"60 208 CURVE SMOOTH"
);
},
{
closed = 1;
nodes = (
"135 480 OFFCURVE",
"167 627 OFFCURVE",
"174 656 CURVE SMOOTH",
"179 678 OFFCURVE",
"190 680 OFFCURVE",
"198 680 CURVE SMOOTH",
"528 680 LINE SMOOTH",
"537 680 OFFCURVE",
"547 678 OFFCURVE",
"541 658 CURVE SMOOTH",
"521 595 LINE SMOOTH",
"517 581 OFFCURVE",
"510 576 OFFCURVE",
"499 576 CURVE SMOOTH",
"477 576 OFFCURVE",
"382 607 OFFCURVE",
"266 607 CURVE SMOOTH",
"242 607 OFFCURVE",
"232 606 OFFCURVE",
"225 605 CURVE",
"211 555 OFFCURVE",
"193 445 OFFCURVE",
"190 412 CURVE SMOOTH",
"187 380 OFFCURVE",
"169 341 OFFCURVE",
"164 341 CURVE SMOOTH",
"157 341 OFFCURVE",
"143 349 OFFCURVE",
"131 355 CURVE SMOOTH",
"111 365 OFFCURVE",
"114 388 OFFCURVE",
"123 427 CURVE SMOOTH"
);
}
);
};
layerId = "555B79C6-6D98-46E7-9307-77C37975E414";
paths = (
{
closed = 1;
nodes = (
"50 240 OFFCURVE",
"58 253 OFFCURVE",
"85 253 CURVE SMOOTH",
"170 253 LINE SMOOTH",
"185 253 OFFCURVE",
"190 250 OFFCURVE",
"190 234 CURVE SMOOTH",
"190 217 OFFCURVE",
"187 192 OFFCURVE",
"187 168 CURVE SMOOTH",
"187 97 OFFCURVE",
"244 66 OFFCURVE",
"287 66 CURVE SMOOTH",
"358 66 OFFCURVE",
"405 207 OFFCURVE",
"405 295 CURVE SMOOTH",
"405 351 OFFCURVE",
"334 398 OFFCURVE",
"296 398 CURVE SMOOTH",
"253 398 OFFCURVE",
"181 331 OFFCURVE",
"164 331 CURVE",
"149 361 LINE",
"197 427 LINE",
"204 427 LINE",
"231 455 OFFCURVE",
"282 491 OFFCURVE",
"347 491 CURVE SMOOTH",
"471 491 OFFCURVE",
"545 408 OFFCURVE",
"545 297 CURVE SMOOTH",
"545 116 OFFCURVE",
"420 -9 OFFCURVE",
"268 -9 CURVE SMOOTH",
"137 -9 OFFCURVE",
"50 84 OFFCURVE",
"50 208 CURVE SMOOTH"
);
},
{
closed = 1;
nodes = (
"120 480 OFFCURVE",
"152 627 OFFCURVE",
"159 656 CURVE SMOOTH",
"164 678 OFFCURVE",
"175 680 OFFCURVE",
"183 680 CURVE SMOOTH",
"543 680 LINE SMOOTH",
"552 680 OFFCURVE",
"562 678 OFFCURVE",
"556 658 CURVE SMOOTH",
"529 570 LINE SMOOTH",
"525 556 OFFCURVE",
"518 551 OFFCURVE",
"507 551 CURVE SMOOTH",
"485 551 OFFCURVE",
"385 592 OFFCURVE",
"269 592 CURVE SMOOTH",
"245 592 OFFCURVE",
"235 591 OFFCURVE",
"228 590 CURVE",
"214 540 OFFCURVE",
"200 455 OFFCURVE",
"197 427 CURVE SMOOTH",
"194 395 OFFCURVE",
"171 331 OFFCURVE",
"164 331 CURVE SMOOTH",
"152 331 OFFCURVE",
"128 347 OFFCURVE",
"116 355 CURVE SMOOTH",
"98 367 OFFCURVE",
"99 388 OFFCURVE",
"108 427 CURVE SMOOTH"
);
}
);
width = 618;
},
{
layerId = "B0B60A8F-2DEB-4A58-A43B-60A0DADABD8F";
paths = (
{
closed = 1;
nodes = (
"50 240 OFFCURVE",
"58 253 OFFCURVE",
"85 253 CURVE SMOOTH",
"145 253 LINE SMOOTH",
"160 253 OFFCURVE",
"165 250 OFFCURVE",
"165 234 CURVE SMOOTH",
"165 217 OFFCURVE",
"162 192 OFFCURVE",
"162 168 CURVE SMOOTH",
"162 97 OFFCURVE",
"234 56 OFFCURVE",
"277 56 CURVE SMOOTH",
"348 56 OFFCURVE",
"415 207 OFFCURVE",
"415 295 CURVE SMOOTH",
"415 351 OFFCURVE",
"337 408 OFFCURVE",
"286 408 CURVE SMOOTH",
"233 408 OFFCURVE",
"169 341 OFFCURVE",
"154 341 CURVE",
"139 361 LINE",
"180 412 LINE",
"187 412 LINE",
"214 440 OFFCURVE",
"272 481 OFFCURVE",
"337 481 CURVE SMOOTH",
"441 481 OFFCURVE",
"530 408 OFFCURVE",
"530 297 CURVE SMOOTH",
"530 116 OFFCURVE",
"395 -9 OFFCURVE",
"258 -9 CURVE SMOOTH",
"132 -9 OFFCURVE",
"50 84 OFFCURVE",
"50 208 CURVE SMOOTH"
);
},
{
closed = 1;
nodes = (
"125 480 OFFCURVE",
"157 627 OFFCURVE",
"164 656 CURVE SMOOTH",
"169 678 OFFCURVE",
"180 680 OFFCURVE",
"188 680 CURVE SMOOTH",
"518 680 LINE SMOOTH",
"527 680 OFFCURVE",
"537 678 OFFCURVE",
"531 658 CURVE SMOOTH",
"511 595 LINE SMOOTH",
"507 581 OFFCURVE",
"500 576 OFFCURVE",
"489 576 CURVE SMOOTH",
"467 576 OFFCURVE",
"372 607 OFFCURVE",
"256 607 CURVE SMOOTH",
"232 607 OFFCURVE",
"222 606 OFFCURVE",
"215 605 CURVE",
"201 555 OFFCURVE",
"183 445 OFFCURVE",
"180 412 CURVE SMOOTH",
"177 380 OFFCURVE",
"159 341 OFFCURVE",
"154 341 CURVE SMOOTH",
"147 341 OFFCURVE",
"133 349 OFFCURVE",
"121 355 CURVE SMOOTH",
"101 365 OFFCURVE",
"104 388 OFFCURVE",
"113 427 CURVE SMOOTH"
);
}
);
width = 593;
}
);
unicode = 0035;
},
{
glyphname = six;
lastChange = "2021-02-16 06:37:56 +0000";
layers = (
{
background = {
paths = (
{
closed = 1;
nodes = (
"45 478 OFFCURVE",
"181 688 OFFCURVE",
"348 688 CURVE SMOOTH",
"472 688 OFFCURVE",
"515 614 OFFCURVE",
"515 524 CURVE SMOOTH",
"515 495 OFFCURVE",
"509 487 OFFCURVE",
"489 487 CURVE SMOOTH",
"419 487 LINE SMOOTH",
"400 487 OFFCURVE",
"398 494 OFFCURVE",
"398 504 CURVE SMOOTH",
"398 517 OFFCURVE",
"403 543 OFFCURVE",
"403 579 CURVE SMOOTH",
"403 620 OFFCURVE",
"369 643 OFFCURVE",
"342 643 CURVE SMOOTH",
"237 643 OFFCURVE",
"160 495 OFFCURVE",
"160 162 CURVE SMOOTH",
"160 109 OFFCURVE",
"242 57 OFFCURVE",
"294 57 CURVE SMOOTH",
"353 57 OFFCURVE",
"396 197 OFFCURVE",
"396 285 CURVE SMOOTH",
"396 341 OFFCURVE",
"332 381 OFFCURVE",
"288 381 CURVE SMOOTH",
"260 381 OFFCURVE",
"167 320 OFFCURVE",
"160 162 CURVE",
"145 162 LINE",
"145 357 LINE",
"176 357 LINE",
"211 401 OFFCURVE",
"273 446 OFFCURVE",
"341 446 CURVE SMOOTH",
"424 446 OFFCURVE",
"509 386 OFFCURVE",
"511 287 CURVE SMOOTH",
"514 106 OFFCURVE",
"398 -8 OFFCURVE",
"271 -8 CURVE SMOOTH",
"132 -8 OFFCURVE",
"45 96 OFFCURVE",
"45 222 CURVE SMOOTH"
);
}
);
};
layerId = "555B79C6-6D98-46E7-9307-77C37975E414";
paths = (
{
closed = 1;
nodes = (
"30 488 OFFCURVE",
"181 688 OFFCURVE",
"348 688 CURVE SMOOTH",
"472 688 OFFCURVE",
"525 614 OFFCURVE",
"525 524 CURVE SMOOTH",
"525 495 OFFCURVE",
"519 487 OFFCURVE",
"499 487 CURVE SMOOTH",
"409 487 LINE SMOOTH",
"390 487 OFFCURVE",
"388 494 OFFCURVE",
"388 504 CURVE SMOOTH",
"388 517 OFFCURVE",
"393 543 OFFCURVE",
"393 574 CURVE SMOOTH",
"393 613 OFFCURVE",
"374 628 OFFCURVE",
"342 628 CURVE SMOOTH",
"254 628 OFFCURVE",
"170 495 OFFCURVE",
"170 162 CURVE SMOOTH",
"170 116 OFFCURVE",
"247 67 OFFCURVE",
"294 67 CURVE SMOOTH",
"345 67 OFFCURVE",
"381 197 OFFCURVE",
"381 279 CURVE SMOOTH",
"381 333 OFFCURVE",
"323 366 OFFCURVE",
"293 366 CURVE SMOOTH",
"266 366 OFFCURVE",
"177 309 OFFCURVE",
"170 162 CURVE",
"145 162 LINE",
"145 357 LINE",
"188 357 LINE",
"218 398 OFFCURVE",
"279 451 OFFCURVE",
"349 451 CURVE SMOOTH",
"436 451 OFFCURVE",
"519 386 OFFCURVE",
"521 287 CURVE SMOOTH",
"524 112 OFFCURVE",
"413 -8 OFFCURVE",
"271 -8 CURVE SMOOTH",
"122 -8 OFFCURVE",
"30 96 OFFCURVE",
"30 222 CURVE SMOOTH"
);
}
);
width = 555;
},
{
background = {
paths = (
{
closed = 1;
nodes = (
"613 201 OFFCURVE",
"492 -9 OFFCURVE",
"263 -9 CURVE SMOOTH",
"127 -9 OFFCURVE",
"12 72 OFFCURVE",
"12 223 CURVE SMOOTH",
"12 453 OFFCURVE",
"127 688 OFFCURVE",
"361 688 CURVE SMOOTH",
"493 688 OFFCURVE",
"613 607 OFFCURVE",
"613 455 CURVE SMOOTH"
);
},
{
closed = 1;
nodes = (
"421 61 OFFCURVE",
"496 323 OFFCURVE",
"496 488 CURVE SMOOTH",
"496 572 OFFCURVE",
"397 618 OFFCURVE",
"326 618 CURVE SMOOTH",
"201 618 OFFCURVE",
"129 346 OFFCURVE",
"129 191 CURVE SMOOTH",
"129 107 OFFCURVE",
"238 61 OFFCURVE",
"303 61 CURVE SMOOTH"
);
}
);
};
layerId = "B0B60A8F-2DEB-4A58-A43B-60A0DADABD8F";
paths = (
{
closed = 1;
nodes = (
"40 478 OFFCURVE",
"176 688 OFFCURVE",
"343 688 CURVE SMOOTH",
"467 688 OFFCURVE",
"510 614 OFFCURVE",
"510 524 CURVE SMOOTH",
"510 495 OFFCURVE",
"504 487 OFFCURVE",
"484 487 CURVE SMOOTH",
"414 487 LINE SMOOTH",
"395 487 OFFCURVE",
"393 494 OFFCURVE",
"393 504 CURVE SMOOTH",
"393 517 OFFCURVE",
"398 543 OFFCURVE",
"398 579 CURVE SMOOTH",
"398 620 OFFCURVE",
"364 643 OFFCURVE",
"337 643 CURVE SMOOTH",
"232 643 OFFCURVE",
"155 495 OFFCURVE",
"155 162 CURVE SMOOTH",
"155 109 OFFCURVE",
"237 57 OFFCURVE",
"289 57 CURVE SMOOTH",
"348 57 OFFCURVE",
"391 197 OFFCURVE",
"391 285 CURVE SMOOTH",
"391 341 OFFCURVE",
"327 381 OFFCURVE",
"283 381 CURVE SMOOTH",
"255 381 OFFCURVE",
"162 320 OFFCURVE",
"155 162 CURVE",
"140 162 LINE",
"140 357 LINE",
"171 357 LINE",
"206 401 OFFCURVE",
"268 446 OFFCURVE",
"336 446 CURVE SMOOTH",
"419 446 OFFCURVE",
"504 386 OFFCURVE",
"506 287 CURVE SMOOTH",
"509 106 OFFCURVE",
"393 -8 OFFCURVE",
"266 -8 CURVE SMOOTH",
"127 -8 OFFCURVE",
"40 96 OFFCURVE",
"40 222 CURVE SMOOTH"
);
}
);
width = 550;
}
);
unicode = 0036;
},
{
glyphname = seven;
lastChange = "2021-02-16 06:58:48 +0000";
layers = (
{
background = {
paths = (
{
closed = 1;
nodes = (
"100 661 LINE SMOOTH",
"107 683 OFFCURVE",
"120 680 OFFCURVE",
"149 680 CURVE SMOOTH",
"486 680 LINE SMOOTH",
"513 680 OFFCURVE",
"541 631 OFFCURVE",
"541 601 CURVE SMOOTH",
"541 569 OFFCURVE",
"397 380 OFFCURVE",
"228 72 CURVE SMOOTH",
"195 12 OFFCURVE",
"186 0 OFFCURVE",
"164 0 CURVE SMOOTH",
"72 0 LINE SMOOTH",
"58 0 OFFCURVE",
"48 5 OFFCURVE",
"61 25 CURVE SMOOTH",
"164 179 OFFCURVE",
"331 419 OFFCURVE",
"395 520 CURVE SMOOTH",
"415 552 OFFCURVE",
"438 587 OFFCURVE",
"456 599 CURVE",
"456 604 LINE",
"310 604 OFFCURVE",
"127 567 OFFCURVE",
"95 567 CURVE SMOOTH",
"80 567 OFFCURVE",
"73 575 OFFCURVE",
"78 591 CURVE SMOOTH"
);
}
);
};
layerId = "555B79C6-6D98-46E7-9307-77C37975E414";
paths = (
{
closed = 1;
nodes = (
"90 661 LINE SMOOTH",
"97 683 OFFCURVE",
"110 680 OFFCURVE",
"139 680 CURVE SMOOTH",
"498 680 LINE SMOOTH",
"528 680 OFFCURVE",
"556 624 OFFCURVE",
"556 595 CURVE SMOOTH",
"556 555 OFFCURVE",
"422 380 OFFCURVE",
"253 72 CURVE SMOOTH",
"220 12 OFFCURVE",
"211 0 OFFCURVE",
"189 0 CURVE SMOOTH",
"57 0 LINE SMOOTH",
"43 0 OFFCURVE",
"33 5 OFFCURVE",
"46 25 CURVE SMOOTH",
"149 179 OFFCURVE",
"316 419 OFFCURVE",
"385 520 CURVE SMOOTH",
"407 552 OFFCURVE",
"438 577 OFFCURVE",
"456 589 CURVE",
"456 594 LINE",
"310 594 OFFCURVE",
"118 552 OFFCURVE",
"79 552 CURVE SMOOTH",
"65 552 OFFCURVE",
"58 560 OFFCURVE",
"63 576 CURVE SMOOTH"
);
}
);
width = 546;
},
{
layerId = "B0B60A8F-2DEB-4A58-A43B-60A0DADABD8F";
paths = (
{
closed = 1;
nodes = (
"95 661 LINE SMOOTH",
"102 683 OFFCURVE",
"115 680 OFFCURVE",
"144 680 CURVE SMOOTH",
"481 680 LINE SMOOTH",
"508 680 OFFCURVE",
"536 631 OFFCURVE",
"536 601 CURVE SMOOTH",
"536 569 OFFCURVE",
"392 380 OFFCURVE",
"223 72 CURVE SMOOTH",
"190 12 OFFCURVE",
"181 0 OFFCURVE",
"159 0 CURVE SMOOTH",
"67 0 LINE SMOOTH",
"53 0 OFFCURVE",
"43 5 OFFCURVE",
"56 25 CURVE SMOOTH",
"159 179 OFFCURVE",
"326 419 OFFCURVE",
"390 520 CURVE SMOOTH",
"410 552 OFFCURVE",
"433 587 OFFCURVE",
"451 599 CURVE",
"451 604 LINE",
"305 604 OFFCURVE",
"122 567 OFFCURVE",
"90 567 CURVE SMOOTH",
"75 567 OFFCURVE",
"68 575 OFFCURVE",
"73 591 CURVE SMOOTH"
);
}
);
width = 516;
}
);
unicode = 0037;
},
{
glyphname = eight;
lastChange = "2021-02-16 06:58:27 +0000";
layers = (
{
background = {
paths = (
{
closed = 1;
nodes = (
"128 604 OFFCURVE",
"244 693 OFFCURVE",
"383 693 CURVE SMOOTH",
"499 693 OFFCURVE",
"568 636 OFFCURVE",
"568 577 CURVE SMOOTH",
"568 480 OFFCURVE",
"428 411 OFFCURVE",
"402 400 CURVE",
"402 386 LINE",
"356 417 LINE",
"370 429 OFFCURVE",
"469 527 OFFCURVE",
"469 577 CURVE SMOOTH",
"469 606 OFFCURVE",
"428 648 OFFCURVE",
"380 648 CURVE SMOOTH",
"311 648 OFFCURVE",
"250 579 OFFCURVE",
"250 532 CURVE",
"128 514 LINE"
);
},
{
closed = 1;
nodes = (
"286 345 LINE",
"269 331 OFFCURVE",
"160 226 OFFCURVE",
"160 158 CURVE SMOOTH",
"160 109 OFFCURVE",
"216 42 OFFCURVE",
"274 42 CURVE SMOOTH",
"366 42 OFFCURVE",
"436 135 OFFCURVE",
"436 198 CURVE",
"557 208 LINE",
"557 106 OFFCURVE",
"441 -14 OFFCURVE",
"282 -14 CURVE SMOOTH",
"137 -14 OFFCURVE",
"52 80 OFFCURVE",
"52 160 CURVE SMOOTH",
"52 270 OFFCURVE",
"207 353 OFFCURVE",
"235 367 CURVE",
"235 373 LINE"
);
},
{
closed = 1;
nodes = (
"334 437 OFFCURVE",
"419 385 OFFCURVE",
"458 356 CURVE SMOOTH",
"509 320 OFFCURVE",
"557 272 OFFCURVE",
"557 208 CURVE",
"557 163 OFFCURVE",
"436 165 OFFCURVE",
"436 198 CURVE",
"436 240 OFFCURVE",
"400 268 OFFCURVE",
"370 288 CURVE SMOOTH",
"337 311 OFFCURVE",
"271 348 OFFCURVE",
"235 373 CURVE SMOOTH",
"169 419 OFFCURVE",
"128 461 OFFCURVE",
"128 514 CURVE SMOOTH",
"128 543 OFFCURVE",
"250 579 OFFCURVE",
"250 532 CURVE SMOOTH",
"250 506 OFFCURVE",
"268 486 OFFCURVE",
"307 458 CURVE SMOOTH"
);
}
);
};
layerId = "555B79C6-6D98-46E7-9307-77C37975E414";
paths = (
{
closed = 1;
nodes = (
"116 604 OFFCURVE",
"234 693 OFFCURVE",
"383 693 CURVE SMOOTH",
"514 693 OFFCURVE",
"578 636 OFFCURVE",
"578 577 CURVE SMOOTH",
"578 475 OFFCURVE",
"446 411 OFFCURVE",
"422 400 CURVE",
"422 370 LINE",
"341 417 LINE",
"355 429 OFFCURVE",
"454 527 OFFCURVE",
"454 577 CURVE SMOOTH",
"454 606 OFFCURVE",
"422 638 OFFCURVE",
"380 638 CURVE SMOOTH",
"326 638 OFFCURVE",
"265 579 OFFCURVE",
"265 532 CURVE",
"116 514 LINE"
);
},
{
closed = 1;
nodes = (
"306 345 LINE",
"289 331 OFFCURVE",
"175 226 OFFCURVE",
"175 158 CURVE SMOOTH",
"175 109 OFFCURVE",
"231 52 OFFCURVE",
"274 52 CURVE SMOOTH",
"343 52 OFFCURVE",
"421 135 OFFCURVE",
"421 198 CURVE",
"567 213 LINE",
"567 101 OFFCURVE",
"451 -14 OFFCURVE",
"282 -14 CURVE SMOOTH",
"117 -14 OFFCURVE",
"40 84 OFFCURVE",
"40 160 CURVE SMOOTH",
"40 275 OFFCURVE",
"192 353 OFFCURVE",
"220 367 CURVE",
"220 373 LINE"
);
},
{
closed = 1;
nodes = (
"355 439 OFFCURVE",
"435 385 OFFCURVE",
"478 356 CURVE SMOOTH",
"529 321 OFFCURVE",
"567 277 OFFCURVE",
"567 213 CURVE",
"567 158 OFFCURVE",
"421 165 OFFCURVE",
"421 198 CURVE",
"421 240 OFFCURVE",
"383 269 OFFCURVE",
"353 288 CURVE SMOOTH",
"318 310 OFFCURVE",
"256 350 OFFCURVE",
"220 373 CURVE SMOOTH",
"152 416 OFFCURVE",
"116 462 OFFCURVE",
"116 514 CURVE SMOOTH",
"116 543 OFFCURVE",
"265 579 OFFCURVE",
"265 532 CURVE SMOOTH",
"265 506 OFFCURVE",
"287 485 OFFCURVE",
"327 458 CURVE SMOOTH"
);
}
);
width = 618;
},
{
background = {
paths = (
{
closed = 1;
nodes = (
"129 600 OFFCURVE",
"243 688 OFFCURVE",
"380 688 CURVE SMOOTH",
"494 688 OFFCURVE",
"552 632 OFFCURVE",
"552 574 CURVE SMOOTH",
"552 478 OFFCURVE",
"424 408 OFFCURVE",
"399 396 CURVE",
"399 385 LINE",
"357 415 LINE",
"371 427 OFFCURVE",
"457 532 OFFCURVE",
"457 576 CURVE SMOOTH",
"457 604 OFFCURVE",
"424 644 OFFCURVE",
"377 644 CURVE SMOOTH",
"309 644 OFFCURVE",
"249 576 OFFCURVE",
"249 529 CURVE",
"129 512 LINE"
);
},
{
closed = 1;
nodes = (
"281 345 LINE",
"265 331 OFFCURVE",
"170 218 OFFCURVE",
"170 156 CURVE SMOOTH",
"170 124 OFFCURVE",
"215 46 OFFCURVE",
"273 46 CURVE SMOOTH",
"363 46 OFFCURVE",
"422 138 OFFCURVE",
"422 200 CURVE",
"542 210 LINE",
"542 109 OFFCURVE",
"437 -9 OFFCURVE",
"280 -9 CURVE SMOOTH",
"137 -9 OFFCURVE",
"64 89 OFFCURVE",
"64 163 CURVE SMOOTH",
"64 265 OFFCURVE",
"206 351 OFFCURVE",
"234 365 CURVE",
"234 373 LINE"
);
},
{
closed = 1;
nodes = (
"332 436 OFFCURVE",
"405 384 OFFCURVE",
"444 356 CURVE SMOOTH",
"494 320 OFFCURVE",
"542 273 OFFCURVE",
"542 210 CURVE",
"542 165 OFFCURVE",
"422 167 OFFCURVE",
"422 200 CURVE",
"422 241 OFFCURVE",
"387 269 OFFCURVE",
"357 289 CURVE SMOOTH",
"325 311 OFFCURVE",
"270 348 OFFCURVE",
"234 373 CURVE SMOOTH",
"169 418 OFFCURVE",
"129 459 OFFCURVE",
"129 512 CURVE SMOOTH",
"129 540 OFFCURVE",
"249 576 OFFCURVE",
"249 529 CURVE SMOOTH",
"249 504 OFFCURVE",
"267 484 OFFCURVE",
"305 456 CURVE SMOOTH"
);
}
);
};
layerId = "B0B60A8F-2DEB-4A58-A43B-60A0DADABD8F";
paths = (
{
closed = 1;
nodes = (
"126 604 OFFCURVE",
"242 693 OFFCURVE",
"381 693 CURVE SMOOTH",
"497 693 OFFCURVE",
"566 636 OFFCURVE",
"566 577 CURVE SMOOTH",
"566 480 OFFCURVE",
"426 411 OFFCURVE",
"400 400 CURVE",
"400 386 LINE",
"354 417 LINE",
"368 429 OFFCURVE",
"467 527 OFFCURVE",
"467 577 CURVE SMOOTH",
"467 606 OFFCURVE",
"426 648 OFFCURVE",
"378 648 CURVE SMOOTH",
"309 648 OFFCURVE",
"248 579 OFFCURVE",
"248 532 CURVE",
"126 514 LINE"
);
},
{
closed = 1;
nodes = (
"284 345 LINE",
"267 331 OFFCURVE",
"158 226 OFFCURVE",
"158 158 CURVE SMOOTH",
"158 109 OFFCURVE",
"214 42 OFFCURVE",
"272 42 CURVE SMOOTH",
"364 42 OFFCURVE",
"434 135 OFFCURVE",
"434 198 CURVE",
"555 208 LINE",
"555 106 OFFCURVE",
"439 -14 OFFCURVE",
"280 -14 CURVE SMOOTH",
"135 -14 OFFCURVE",
"50 80 OFFCURVE",
"50 160 CURVE SMOOTH",
"50 270 OFFCURVE",
"205 353 OFFCURVE",
"233 367 CURVE",
"233 373 LINE"
);
},
{
closed = 1;
nodes = (
"332 437 OFFCURVE",
"417 385 OFFCURVE",
"456 356 CURVE SMOOTH",
"507 320 OFFCURVE",
"555 272 OFFCURVE",
"555 208 CURVE",
"555 163 OFFCURVE",
"434 165 OFFCURVE",
"434 198 CURVE",
"434 240 OFFCURVE",
"398 268 OFFCURVE",
"368 288 CURVE SMOOTH",
"335 311 OFFCURVE",
"269 348 OFFCURVE",
"233 373 CURVE SMOOTH",
"167 419 OFFCURVE",
"126 461 OFFCURVE",
"126 514 CURVE SMOOTH",
"126 543 OFFCURVE",
"248 579 OFFCURVE",
"248 532 CURVE SMOOTH",
"248 506 OFFCURVE",
"266 486 OFFCURVE",
"305 458 CURVE SMOOTH"
);
}
);
width = 616;
}
);
unicode = 0038;
},
{
glyphname = nine;
lastChange = "2021-02-16 07:09:03 +0000";
layers = (
{
background = {
paths = (
{
closed = 1;
nodes = (
"105 27 OFFCURVE",
"111 31 OFFCURVE",
"123 40 CURVE SMOOTH",
"195 94 OFFCURVE",
"373 202 OFFCURVE",
"373 525 CURVE SMOOTH",
"373 585 OFFCURVE",
"328 628 OFFCURVE",
"255 628 CURVE SMOOTH",
"194 628 OFFCURVE",
"157 482 OFFCURVE",
"157 388 CURVE SMOOTH",
"157 311 OFFCURVE",
"230 284 OFFCURVE",
"279 284 CURVE SMOOTH",
"330 284 OFFCURVE",
"373 387 OFFCURVE",
"373 525 CURVE",
"389 525 LINE",
"344 234 LINE",
"313 257 LINE",
"296 245 OFFCURVE",
"263 221 OFFCURVE",
"201 221 CURVE SMOOTH",
"117 221 OFFCURVE",
"40 280 OFFCURVE",
"40 389 CURVE SMOOTH",
"40 541 OFFCURVE",
"164 685 OFFCURVE",
"319 685 CURVE SMOOTH",
"448 685 OFFCURVE",
"495 597 OFFCURVE",
"495 494 CURVE SMOOTH",
"495 294 OFFCURVE",
"376 86 OFFCURVE",
"153 -22 CURVE SMOOTH",
"137 -30 OFFCURVE",
"133 -27 OFFCURVE",
"124 -13 CURVE",
"110 15 LINE"
);
}
);
};
layerId = "555B79C6-6D98-46E7-9307-77C37975E414";
paths = (
{
closed = 1;
nodes = (
"83 37 OFFCURVE",
"89 42 OFFCURVE",
"101 50 CURVE SMOOTH",
"173 97 OFFCURVE",
"358 202 OFFCURVE",
"358 525 CURVE SMOOTH",
"358 578 OFFCURVE",
"321 613 OFFCURVE",
"257 613 CURVE SMOOTH",
"206 613 OFFCURVE",
"172 482 OFFCURVE",
"172 382 CURVE SMOOTH",
"172 335 OFFCURVE",
"230 294 OFFCURVE",
"279 294 CURVE SMOOTH",
"319 294 OFFCURVE",
"358 387 OFFCURVE",
"358 525 CURVE",
"374 525 LINE",
"331 234 LINE",
"300 257 LINE",
"287 245 OFFCURVE",
"256 216 OFFCURVE",
"187 216 CURVE SMOOTH",
"111 216 OFFCURVE",
"30 273 OFFCURVE",
"30 389 CURVE SMOOTH",
"30 541 OFFCURVE",
"159 685 OFFCURVE",
"319 685 CURVE SMOOTH",
"453 685 OFFCURVE",
"505 602 OFFCURVE",
"505 489 CURVE SMOOTH",
"505 279 OFFCURVE",
"368 77 OFFCURVE",
"140 -30 CURVE SMOOTH",
"124 -38 OFFCURVE",
"120 -35 OFFCURVE",
"111 -21 CURVE",
"88 25 LINE"
);
}
);
width = 535;
},
{
background = {
paths = (
{
closed = 1;
nodes = (
"101 28 OFFCURVE",
"112 34 OFFCURVE",
"120 40 CURVE SMOOTH",
"183 89 OFFCURVE",
"357 202 OFFCURVE",
"357 525 CURVE SMOOTH",
"357 585 OFFCURVE",
"317 628 OFFCURVE",
"247 628 CURVE SMOOTH",
"188 628 OFFCURVE",
"155 482 OFFCURVE",
"155 388 CURVE SMOOTH",
"155 311 OFFCURVE",
"223 284 OFFCURVE",
"270 284 CURVE SMOOTH",
"319 284 OFFCURVE",
"357 387 OFFCURVE",
"357 525 CURVE",
"372 525 LINE",
"337 247 LINE",
"295 247 LINE",
"281 237 OFFCURVE",
"245 221 OFFCURVE",
"195 221 CURVE SMOOTH",
"114 221 OFFCURVE",
"40 280 OFFCURVE",
"40 389 CURVE SMOOTH",
"40 541 OFFCURVE",
"159 685 OFFCURVE",
"308 685 CURVE SMOOTH",
"428 685 OFFCURVE",
"472 584 OFFCURVE",
"472 485 CURVE SMOOTH",
"472 276 OFFCURVE",
"332 -4 OFFCURVE",
"154 -2 CURVE SMOOTH",
"124 -2 OFFCURVE",
"101 4 OFFCURVE",
"101 17 CURVE SMOOTH"
);
}
);
};
layerId = "B0B60A8F-2DEB-4A58-A43B-60A0DADABD8F";
paths = (
{
closed = 1;
nodes = (
"105 27 OFFCURVE",
"111 31 OFFCURVE",
"123 40 CURVE SMOOTH",
"195 94 OFFCURVE",
"373 202 OFFCURVE",
"373 525 CURVE SMOOTH",
"373 585 OFFCURVE",
"328 628 OFFCURVE",
"255 628 CURVE SMOOTH",
"194 628 OFFCURVE",
"157 482 OFFCURVE",
"157 388 CURVE SMOOTH",
"157 311 OFFCURVE",
"230 284 OFFCURVE",
"279 284 CURVE SMOOTH",
"330 284 OFFCURVE",
"373 387 OFFCURVE",
"373 525 CURVE",
"389 525 LINE",
"344 234 LINE",
"313 257 LINE",
"296 245 OFFCURVE",
"263 221 OFFCURVE",
"201 221 CURVE SMOOTH",
"117 221 OFFCURVE",
"40 280 OFFCURVE",
"40 389 CURVE SMOOTH",
"40 541 OFFCURVE",
"164 685 OFFCURVE",
"319 685 CURVE SMOOTH",
"448 685 OFFCURVE",
"495 597 OFFCURVE",
"495 494 CURVE SMOOTH",
"495 294 OFFCURVE",
"376 86 OFFCURVE",
"153 -22 CURVE SMOOTH",
"137 -30 OFFCURVE",
"133 -27 OFFCURVE",
"124 -13 CURVE",
"110 15 LINE"
);
}
);
width = 535;
}
);
unicode = 0039;
},
{
glyphname = colon;
lastChange = "2021-02-16 07:40:53 +0000";
layers = (
{
background = {
paths = (
{
closed = 1;
nodes = (
"128 270 OFFCURVE",
"155 297 OFFCURVE",
"155 330 CURVE SMOOTH",
"155 363 OFFCURVE",
"128 390 OFFCURVE",
"95 390 CURVE SMOOTH",
"62 390 OFFCURVE",
"35 363 OFFCURVE",
"35 330 CURVE SMOOTH",
"35 297 OFFCURVE",
"62 270 OFFCURVE",
"95 270 CURVE SMOOTH"
);
},
{
closed = 1;
nodes = (
"128 0 OFFCURVE",
"155 27 OFFCURVE",
"155 60 CURVE SMOOTH",
"155 93 OFFCURVE",
"128 120 OFFCURVE",
"95 120 CURVE SMOOTH",
"62 120 OFFCURVE",
"35 93 OFFCURVE",
"35 60 CURVE SMOOTH",
"35 27 OFFCURVE",
"62 0 OFFCURVE",
"95 0 CURVE SMOOTH"
);
}
);
};
layerId = "555B79C6-6D98-46E7-9307-77C37975E414";
paths = (
{
closed = 1;
nodes = (
"136 0 OFFCURVE",
"170 34 OFFCURVE",
"170 75 CURVE SMOOTH",
"170 116 OFFCURVE",
"136 150 OFFCURVE",
"95 150 CURVE SMOOTH",
"54 150 OFFCURVE",
"20 116 OFFCURVE",
"20 75 CURVE SMOOTH",
"20 34 OFFCURVE",
"54 0 OFFCURVE",
"95 0 CURVE SMOOTH"
);
},
{
closed = 1;
nodes = (
"165 240 OFFCURVE",
"199 274 OFFCURVE",
"199 315 CURVE SMOOTH",
"199 356 OFFCURVE",
"165 390 OFFCURVE",
"124 390 CURVE SMOOTH",
"83 390 OFFCURVE",
"49 356 OFFCURVE",
"49 315 CURVE SMOOTH",
"49 274 OFFCURVE",
"83 240 OFFCURVE",
"124 240 CURVE SMOOTH"
);
}
);
width = 219;
},
{
layerId = "B0B60A8F-2DEB-4A58-A43B-60A0DADABD8F";
paths = (
{
closed = 1;
nodes = (
"123 0 OFFCURVE",
"150 27 OFFCURVE",
"150 60 CURVE SMOOTH",
"150 93 OFFCURVE",
"123 120 OFFCURVE",
"90 120 CURVE SMOOTH",
"57 120 OFFCURVE",
"30 93 OFFCURVE",
"30 60 CURVE SMOOTH",
"30 27 OFFCURVE",
"57 0 OFFCURVE",
"90 0 CURVE SMOOTH"
);
},
{
closed = 1;
nodes = (
"152 240 OFFCURVE",
"179 267 OFFCURVE",
"179 300 CURVE SMOOTH",
"179 333 OFFCURVE",
"152 360 OFFCURVE",
"119 360 CURVE SMOOTH",
"86 360 OFFCURVE",
"59 333 OFFCURVE",
"59 300 CURVE SMOOTH",
"59 267 OFFCURVE",
"86 240 OFFCURVE",
"119 240 CURVE SMOOTH"
);
}
);
width = 209;
}
);
unicode = 003A;
},
{
glyphname = semicolon;
lastChange = "2021-02-21 15:14:23 +0000";
layers = (
{
background = {
paths = (
{
closed = 1;
nodes = (
"63 -87 OFFCURVE",
"108 -17 OFFCURVE",
"108 -2 CURVE SMOOTH",
"108 7 OFFCURVE",
"105 17 OFFCURVE",
"99 17 CURVE SMOOTH",
"96 17 OFFCURVE",
"96 17 OFFCURVE",
"93 17 CURVE SMOOTH",
"85 17 OFFCURVE",
"85 0 OFFCURVE",
"75 0 CURVE SMOOTH",
"71 0 OFFCURVE",
"44 0 OFFCURVE",
"39 0 CURVE SMOOTH",
"32 0 OFFCURVE",
"29 4 OFFCURVE",
"30 13 CURVE SMOOTH",
"31 23 OFFCURVE",
"38 76 OFFCURVE",
"40 93 CURVE SMOOTH",
"42 109 OFFCURVE",
"52 113 OFFCURVE",
"64 113 CURVE SMOOTH",
"116 113 OFFCURVE",
"190 70 OFFCURVE",
"190 14 CURVE SMOOTH",
"190 -53 OFFCURVE",
"103 -111 OFFCURVE",
"75 -111 CURVE SMOOTH",
"67 -111 OFFCURVE",
"63 -108 OFFCURVE",
"63 -103 CURVE SMOOTH"
);
},
{
closed = 1;
nodes = (
"128 240 OFFCURVE",
"155 267 OFFCURVE",
"155 300 CURVE SMOOTH",
"155 333 OFFCURVE",
"128 360 OFFCURVE",
"95 360 CURVE SMOOTH",
"62 360 OFFCURVE",
"35 333 OFFCURVE",
"35 300 CURVE SMOOTH",
"35 267 OFFCURVE",
"62 240 OFFCURVE",
"95 240 CURVE SMOOTH"
);
}
);
};
layerId = "555B79C6-6D98-46E7-9307-77C37975E414";
paths = (
{
closed = 1;
nodes = (
"160 240 OFFCURVE",
"194 274 OFFCURVE",
"194 315 CURVE SMOOTH",
"194 356 OFFCURVE",
"160 390 OFFCURVE",
"119 390 CURVE SMOOTH",
"78 390 OFFCURVE",
"44 356 OFFCURVE",
"44 315 CURVE SMOOTH",
"44 274 OFFCURVE",
"78 240 OFFCURVE",
"119 240 CURVE SMOOTH"
);
},
{
closed = 1;
nodes = (
"46 -85 OFFCURVE",
"104 -17 OFFCURVE",
"104 -2 CURVE SMOOTH",
"104 7 OFFCURVE",
"103 17 OFFCURVE",
"98 17 CURVE SMOOTH",
"95 17 OFFCURVE",
"98 17 OFFCURVE",
"95 17 CURVE SMOOTH",
"87 17 OFFCURVE",
"87 0 OFFCURVE",
"77 0 CURVE SMOOTH",
"73 0 OFFCURVE",
"45 0 OFFCURVE",
"40 0 CURVE SMOOTH",
"29 0 OFFCURVE",
"17 5 OFFCURVE",
"20 25 CURVE SMOOTH",
"22 39 OFFCURVE",
"27 80 OFFCURVE",
"30 105 CURVE SMOOTH",
"33 132 OFFCURVE",
"52 135 OFFCURVE",
"64 135 CURVE SMOOTH",
"131 135 OFFCURVE",
"211 79 OFFCURVE",
"211 14 CURVE SMOOTH",
"211 -73 OFFCURVE",
"107 -124 OFFCURVE",
"66 -124 CURVE SMOOTH",
"54 -124 OFFCURVE",
"46 -118 OFFCURVE",
"46 -108 CURVE SMOOTH"
);
}
);
width = 231;
},
{
layerId = "B0B60A8F-2DEB-4A58-A43B-60A0DADABD8F";
paths = (
{
closed = 1;
nodes = (
"152 240 OFFCURVE",
"179 267 OFFCURVE",
"179 300 CURVE SMOOTH",
"179 333 OFFCURVE",
"152 360 OFFCURVE",
"119 360 CURVE SMOOTH",
"86 360 OFFCURVE",
"59 333 OFFCURVE",
"59 300 CURVE SMOOTH",
"59 267 OFFCURVE",
"86 240 OFFCURVE",
"119 240 CURVE SMOOTH"
);
},
{
closed = 1;
nodes = (
"53 -87 OFFCURVE",
"108 -17 OFFCURVE",
"108 -2 CURVE SMOOTH",
"108 7 OFFCURVE",
"105 17 OFFCURVE",
"99 17 CURVE SMOOTH",
"96 17 OFFCURVE",
"96 17 OFFCURVE",
"93 17 CURVE SMOOTH",
"85 17 OFFCURVE",
"85 0 OFFCURVE",
"75 0 CURVE SMOOTH",
"71 0 OFFCURVE",
"44 0 OFFCURVE",
"39 0 CURVE SMOOTH",
"32 0 OFFCURVE",
"29 4 OFFCURVE",
"30 13 CURVE SMOOTH",
"31 23 OFFCURVE",
"38 76 OFFCURVE",
"40 93 CURVE SMOOTH",
"42 109 OFFCURVE",
"52 113 OFFCURVE",
"64 113 CURVE SMOOTH",
"116 113 OFFCURVE",
"190 70 OFFCURVE",
"190 14 CURVE SMOOTH",
"190 -63 OFFCURVE",
"93 -111 OFFCURVE",
"65 -111 CURVE SMOOTH",
"57 -111 OFFCURVE",
"53 -108 OFFCURVE",
"53 -103 CURVE SMOOTH"
);
}
);
width = 220;
}
);
unicode = 003B;
},
{
glyphname = less;
lastChange = "2021-02-18 10:47:56 +0000";
layers = (
{
background = {
paths = (
{
closed = 1;
nodes = (
"67 213 OFFCURVE",
"74 208 OFFCURVE",
"87 202 CURVE SMOOTH",
"530 8 LINE SMOOTH",
"546 1 OFFCURVE",
"561 6 OFFCURVE",
"567 23 CURVE SMOOTH",
"586 74 LINE SMOOTH",
"593 92 OFFCURVE",
"589 98 OFFCURVE",
"575 104 CURVE SMOOTH",
"142 274 LINE",
"142 278 LINE",
"575 453 LINE SMOOTH",
"589 459 OFFCURVE",
"593 465 OFFCURVE",
"586 483 CURVE SMOOTH",
"567 534 LINE SMOOTH",
"561 551 OFFCURVE",
"546 556 OFFCURVE",
"530 549 CURVE SMOOTH",
"87 350 LINE SMOOTH",
"74 344 OFFCURVE",
"67 339 OFFCURVE",
"71 324 CURVE SMOOTH",
"83 276 LINE",
"71 228 LINE SMOOTH"
);
}
);
};
layerId = "555B79C6-6D98-46E7-9307-77C37975E414";
paths = (
{
closed = 1;
nodes = (
"51 199 OFFCURVE",
"60 193 OFFCURVE",
"73 187 CURVE SMOOTH",
"525 -6 LINE SMOOTH",
"547 -15 OFFCURVE",
"561 -8 OFFCURVE",
"567 8 CURVE SMOOTH",
"596 88 LINE SMOOTH",
"602 106 OFFCURVE",
"599 113 OFFCURVE",
"585 118 CURVE SMOOTH",
"162 274 LINE",
"162 278 LINE",
"585 443 LINE SMOOTH",
"599 448 OFFCURVE",
"603 456 OFFCURVE",
"596 473 CURVE SMOOTH",
"567 549 LINE SMOOTH",
"561 565 OFFCURVE",
"548 572 OFFCURVE",
"530 564 CURVE SMOOTH",
"73 364 LINE SMOOTH",
"60 358 OFFCURVE",
"51 352 OFFCURVE",
"57 338 CURVE SMOOTH",
"83 276 LINE",
"57 213 LINE SMOOTH"
);
}
);
width = 654;
},
{
layerId = "B0B60A8F-2DEB-4A58-A43B-60A0DADABD8F";
paths = (
{
closed = 1;
nodes = (
"62 213 OFFCURVE",
"69 208 OFFCURVE",
"82 202 CURVE SMOOTH",
"525 8 LINE SMOOTH",
"541 1 OFFCURVE",
"556 6 OFFCURVE",
"562 23 CURVE SMOOTH",
"581 74 LINE SMOOTH",
"588 92 OFFCURVE",
"584 98 OFFCURVE",
"570 104 CURVE SMOOTH",
"137 274 LINE",
"137 278 LINE",
"570 453 LINE SMOOTH",
"584 459 OFFCURVE",
"588 465 OFFCURVE",
"581 483 CURVE SMOOTH",
"562 534 LINE SMOOTH",
"556 551 OFFCURVE",
"541 556 OFFCURVE",
"525 549 CURVE SMOOTH",
"82 350 LINE SMOOTH",
"69 344 OFFCURVE",
"62 339 OFFCURVE",
"66 324 CURVE SMOOTH",
"78 276 LINE",
"66 228 LINE SMOOTH"
);
}
);
width = 649;
}
);
unicode = 003C;
},
{
glyphname = equal;
lastChange = "2021-02-18 10:41:55 +0000";
layers = (
{
background = {
paths = (
{
closed = 1;
nodes = (
"114 516 LINE",
"97 516 OFFCURVE",
"89 512 OFFCURVE",
"84 497 CURVE SMOOTH",
"69 449 LINE SMOOTH",
"64 434 OFFCURVE",
"71 427 OFFCURVE",
"90 427 CURVE SMOOTH",
"447 427 LINE",
"464 427 OFFCURVE",
"472 431 OFFCURVE",
"477 446 CURVE SMOOTH",
"492 494 LINE SMOOTH",
"497 509 OFFCURVE",
"490 516 OFFCURVE",
"471 516 CURVE SMOOTH"
);
},
{
closed = 1;
nodes = (
"92 291 LINE",
"75 291 OFFCURVE",
"67 287 OFFCURVE",
"62 272 CURVE SMOOTH",
"47 224 LINE SMOOTH",
"42 209 OFFCURVE",
"49 202 OFFCURVE",
"68 202 CURVE SMOOTH",
"425 202 LINE",
"442 202 OFFCURVE",
"450 206 OFFCURVE",
"455 221 CURVE SMOOTH",
"470 269 LINE SMOOTH",
"475 284 OFFCURVE",
"468 291 OFFCURVE",
"449 291 CURVE SMOOTH"
);
}
);
};
layerId = "555B79C6-6D98-46E7-9307-77C37975E414";
paths = (
{
closed = 1;
nodes = (
"106 521 LINE",
"89 521 OFFCURVE",
"81 517 OFFCURVE",
"76 502 CURVE SMOOTH",
"54 434 LINE SMOOTH",
"49 419 OFFCURVE",
"56 412 OFFCURVE",
"75 412 CURVE SMOOTH",
"452 412 LINE",
"469 412 OFFCURVE",
"477 416 OFFCURVE",
"482 431 CURVE SMOOTH",
"502 496 LINE SMOOTH",
"508 514 OFFCURVE",
"501 521 OFFCURVE",
"482 521 CURVE SMOOTH"
);
},
{
closed = 1;
nodes = (
"85 296 LINE",
"68 296 OFFCURVE",
"60 292 OFFCURVE",
"55 277 CURVE SMOOTH",
"32 209 LINE SMOOTH",
"27 194 OFFCURVE",
"34 187 OFFCURVE",
"53 187 CURVE SMOOTH",
"430 187 LINE",
"447 187 OFFCURVE",
"455 191 OFFCURVE",
"460 206 CURVE SMOOTH",
"482 271 LINE SMOOTH",
"488 289 OFFCURVE",
"481 296 OFFCURVE",
"462 296 CURVE SMOOTH"
);
}
);
width = 534;
},
{
background = {
paths = (
{
closed = 1;
nodes = (
"114 516 LINE",
"97 516 OFFCURVE",
"89 512 OFFCURVE",
"84 497 CURVE SMOOTH",
"67 444 LINE SMOOTH",
"62 429 OFFCURVE",
"69 422 OFFCURVE",
"88 422 CURVE SMOOTH",
"445 422 LINE",
"462 422 OFFCURVE",
"470 426 OFFCURVE",
"475 441 CURVE SMOOTH",
"492 494 LINE SMOOTH",
"497 509 OFFCURVE",
"490 516 OFFCURVE",
"471 516 CURVE SMOOTH"
);
},
{
closed = 1;
nodes = (
"64 296 LINE",
"47 296 OFFCURVE",
"39 292 OFFCURVE",
"34 277 CURVE SMOOTH",
"17 224 LINE SMOOTH",
"12 209 OFFCURVE",
"19 202 OFFCURVE",
"38 202 CURVE SMOOTH",
"395 202 LINE",
"412 202 OFFCURVE",
"420 206 OFFCURVE",
"425 221 CURVE SMOOTH",
"442 274 LINE SMOOTH",
"447 289 OFFCURVE",
"440 296 OFFCURVE",
"421 296 CURVE SMOOTH"
);
}
);
};
layerId = "B0B60A8F-2DEB-4A58-A43B-60A0DADABD8F";
paths = (
{
closed = 1;
nodes = (
"114 516 LINE",
"97 516 OFFCURVE",
"89 512 OFFCURVE",
"84 497 CURVE SMOOTH",
"69 449 LINE SMOOTH",
"64 434 OFFCURVE",
"71 427 OFFCURVE",
"90 427 CURVE SMOOTH",
"447 427 LINE",
"464 427 OFFCURVE",
"472 431 OFFCURVE",
"477 446 CURVE SMOOTH",
"492 494 LINE SMOOTH",
"497 509 OFFCURVE",
"490 516 OFFCURVE",
"471 516 CURVE SMOOTH"
);
},
{
closed = 1;
nodes = (
"92 291 LINE",
"75 291 OFFCURVE",
"67 287 OFFCURVE",
"62 272 CURVE SMOOTH",
"47 224 LINE SMOOTH",
"42 209 OFFCURVE",
"49 202 OFFCURVE",
"68 202 CURVE SMOOTH",
"425 202 LINE",
"442 202 OFFCURVE",
"450 206 OFFCURVE",
"455 221 CURVE SMOOTH",
"470 269 LINE SMOOTH",
"475 284 OFFCURVE",
"468 291 OFFCURVE",
"449 291 CURVE SMOOTH"
);
}
);
width = 539;
}
);
unicode = 003D;
},
{
glyphname = greater;
lastChange = "2021-02-18 10:48:38 +0000";
layers = (
{
background = {
paths = (
{
closed = 1;
nodes = (
"571 276 LINE",
"583 324 LINE SMOOTH",
"587 339 OFFCURVE",
"580 344 OFFCURVE",
"567 350 CURVE SMOOTH",
"124 549 LINE SMOOTH",
"108 556 OFFCURVE",
"93 551 OFFCURVE",
"87 534 CURVE SMOOTH",
"68 483 LINE SMOOTH",
"61 465 OFFCURVE",
"65 459 OFFCURVE",
"79 453 CURVE SMOOTH",
"512 278 LINE",
"512 274 LINE",
"79 104 LINE SMOOTH",
"65 98 OFFCURVE",
"61 92 OFFCURVE",
"68 74 CURVE SMOOTH",
"87 23 LINE SMOOTH",
"93 6 OFFCURVE",
"108 1 OFFCURVE",
"124 8 CURVE SMOOTH",
"567 202 LINE SMOOTH",
"580 208 OFFCURVE",
"587 213 OFFCURVE",
"583 228 CURVE SMOOTH"
);
}
);
};
layerId = "555B79C6-6D98-46E7-9307-77C37975E414";
paths = (
{
closed = 1;
nodes = (
"571 276 LINE",
"597 338 LINE SMOOTH",
"603 352 OFFCURVE",
"594 358 OFFCURVE",
"581 364 CURVE SMOOTH",
"124 564 LINE SMOOTH",
"106 572 OFFCURVE",
"93 565 OFFCURVE",
"87 549 CURVE SMOOTH",
"58 473 LINE SMOOTH",
"51 456 OFFCURVE",
"55 448 OFFCURVE",
"69 443 CURVE SMOOTH",
"492 278 LINE",
"492 274 LINE",
"69 118 LINE SMOOTH",
"55 113 OFFCURVE",
"52 106 OFFCURVE",
"58 88 CURVE SMOOTH",
"87 8 LINE SMOOTH",
"93 -8 OFFCURVE",
"107 -15 OFFCURVE",
"129 -6 CURVE SMOOTH",
"581 187 LINE SMOOTH",
"594 193 OFFCURVE",
"603 199 OFFCURVE",
"597 213 CURVE SMOOTH"
);
}
);
width = 654;
},
{
layerId = "B0B60A8F-2DEB-4A58-A43B-60A0DADABD8F";
paths = (
{
closed = 1;
nodes = (
"571 276 LINE",
"583 324 LINE SMOOTH",
"587 339 OFFCURVE",
"580 344 OFFCURVE",
"567 350 CURVE SMOOTH",
"124 549 LINE SMOOTH",
"108 556 OFFCURVE",
"93 551 OFFCURVE",
"87 534 CURVE SMOOTH",
"68 483 LINE SMOOTH",
"61 465 OFFCURVE",
"65 459 OFFCURVE",
"79 453 CURVE SMOOTH",
"512 278 LINE",
"512 274 LINE",
"79 104 LINE SMOOTH",
"65 98 OFFCURVE",
"61 92 OFFCURVE",
"68 74 CURVE SMOOTH",
"87 23 LINE SMOOTH",
"93 6 OFFCURVE",
"108 1 OFFCURVE",
"124 8 CURVE SMOOTH",
"567 202 LINE SMOOTH",
"580 208 OFFCURVE",
"587 213 OFFCURVE",
"583 228 CURVE SMOOTH"
);
}
);
width = 649;
}
);
unicode = 003E;
},
{
glyphname = question;
lastChange = "2021-02-16 07:14:52 +0000";
layers = (
{
background = {
paths = (
{
closed = 1;
nodes = (
"123 208 OFFCURVE",
"124 193 OFFCURVE",
"141 193 CURVE SMOOTH",
"175 193 LINE SMOOTH",
"202 193 OFFCURVE",
"208 215 OFFCURVE",
"212 250 CURVE SMOOTH",
"226 374 LINE",
"339 374 OFFCURVE",
"440 405 OFFCURVE",
"440 495 CURVE SMOOTH",
"440 583 OFFCURVE",
"341 665 OFFCURVE",
"240 665 CURVE SMOOTH",
"174 665 OFFCURVE",
"136 648 OFFCURVE",
"136 589 CURVE SMOOTH",
"136 553 OFFCURVE",
"155 528 OFFCURVE",
"168 528 CURVE SMOOTH",
"195 528 OFFCURVE",
"208 625 OFFCURVE",
"235 625 CURVE SMOOTH",
"275 625 OFFCURVE",
"344 564 OFFCURVE",
"344 501 CURVE SMOOTH",
"344 456 OFFCURVE",
"299 433 OFFCURVE",
"223 415 CURVE SMOOTH",
"154 398 OFFCURVE",
"134 354 OFFCURVE",
"125 230 CURVE SMOOTH"
);
},
{
closed = 1;
nodes = (
"184 0 OFFCURVE",
"211 27 OFFCURVE",
"211 60 CURVE SMOOTH",
"211 93 OFFCURVE",
"184 120 OFFCURVE",
"151 120 CURVE SMOOTH",
"118 120 OFFCURVE",
"91 93 OFFCURVE",
"91 60 CURVE SMOOTH",
"91 27 OFFCURVE",
"118 0 OFFCURVE",
"151 0 CURVE SMOOTH"
);
}
);
};
layerId = "555B79C6-6D98-46E7-9307-77C37975E414";
paths = (
{
closed = 1;
nodes = (
"108 208 OFFCURVE",
"108 193 OFFCURVE",
"125 193 CURVE SMOOTH",
"190 193 LINE SMOOTH",
"217 193 OFFCURVE",
"223 215 OFFCURVE",
"227 250 CURVE SMOOTH",
"241 369 LINE",
"359 369 OFFCURVE",
"455 405 OFFCURVE",
"455 495 CURVE SMOOTH",
"455 583 OFFCURVE",
"355 665 OFFCURVE",
"233 665 CURVE SMOOTH",
"174 665 OFFCURVE",
"121 648 OFFCURVE",
"121 589 CURVE SMOOTH",
"121 543 OFFCURVE",
"145 508 OFFCURVE",
"168 508 CURVE SMOOTH",
"200 508 OFFCURVE",
"213 605 OFFCURVE",
"238 605 CURVE SMOOTH",
"270 605 OFFCURVE",
"329 558 OFFCURVE",
"329 501 CURVE SMOOTH",
"329 461 OFFCURVE",
"299 443 OFFCURVE",
"223 425 CURVE SMOOTH",
"154 408 OFFCURVE",
"118 364 OFFCURVE",
"109 230 CURVE SMOOTH"
);
},
{
closed = 1;
nodes = (
"193 -16 OFFCURVE",
"227 18 OFFCURVE",
"227 60 CURVE SMOOTH",
"227 102 OFFCURVE",
"193 136 OFFCURVE",
"151 136 CURVE SMOOTH",
"109 136 OFFCURVE",
"75 102 OFFCURVE",
"75 60 CURVE SMOOTH",
"75 18 OFFCURVE",
"109 -16 OFFCURVE",
"151 -16 CURVE SMOOTH"
);
}
);
width = 515;
},
{
background = {
paths = (
{
closed = 1;
nodes = (
"122 208 OFFCURVE",
"123 193 OFFCURVE",
"140 193 CURVE SMOOTH",
"169 193 LINE SMOOTH",
"196 193 OFFCURVE",
"202 215 OFFCURVE",
"206 250 CURVE SMOOTH",
"219 364 LINE",
"332 364 OFFCURVE",
"421 413 OFFCURVE",
"421 510 CURVE SMOOTH",
"421 584 OFFCURVE",
"332 655 OFFCURVE",
"234 655 CURVE SMOOTH",
"168 655 OFFCURVE",
"138 640 OFFCURVE",
"138 583 CURVE SMOOTH",
"138 554 OFFCURVE",
"150 541 OFFCURVE",
"157 541 CURVE SMOOTH",
"181 541 OFFCURVE",
"202 605 OFFCURVE",
"221 605 CURVE SMOOTH",
"274 605 OFFCURVE",
"328 554 OFFCURVE",
"328 501 CURVE SMOOTH",
"328 456 OFFCURVE",
"293 433 OFFCURVE",
"217 415 CURVE SMOOTH",
"148 398 OFFCURVE",
"133 354 OFFCURVE",
"124 230 CURVE SMOOTH"
);
},
{
closed = 1;
nodes = (
"178 0 OFFCURVE",
"205 27 OFFCURVE",
"205 60 CURVE SMOOTH",
"205 93 OFFCURVE",
"178 120 OFFCURVE",
"145 120 CURVE SMOOTH",
"112 120 OFFCURVE",
"85 93 OFFCURVE",
"85 60 CURVE SMOOTH",
"85 27 OFFCURVE",
"112 0 OFFCURVE",
"145 0 CURVE SMOOTH"
);
}
);
};
layerId = "B0B60A8F-2DEB-4A58-A43B-60A0DADABD8F";
paths = (
{
closed = 1;
nodes = (
"117 208 OFFCURVE",
"118 193 OFFCURVE",
"135 193 CURVE SMOOTH",
"169 193 LINE SMOOTH",
"196 193 OFFCURVE",
"202 215 OFFCURVE",
"206 250 CURVE SMOOTH",
"220 374 LINE",
"333 374 OFFCURVE",
"434 405 OFFCURVE",
"434 495 CURVE SMOOTH",
"434 583 OFFCURVE",
"335 665 OFFCURVE",
"234 665 CURVE SMOOTH",
"168 665 OFFCURVE",
"130 648 OFFCURVE",
"130 589 CURVE SMOOTH",
"130 553 OFFCURVE",
"149 528 OFFCURVE",
"162 528 CURVE SMOOTH",
"189 528 OFFCURVE",
"202 625 OFFCURVE",
"229 625 CURVE SMOOTH",
"269 625 OFFCURVE",
"338 564 OFFCURVE",
"338 501 CURVE SMOOTH",
"338 456 OFFCURVE",
"293 433 OFFCURVE",
"217 415 CURVE SMOOTH",
"148 398 OFFCURVE",
"128 354 OFFCURVE",
"119 230 CURVE SMOOTH"
);
},
{
closed = 1;
nodes = (
"178 0 OFFCURVE",
"205 27 OFFCURVE",
"205 60 CURVE SMOOTH",
"205 93 OFFCURVE",
"178 120 OFFCURVE",
"145 120 CURVE SMOOTH",
"112 120 OFFCURVE",
"85 93 OFFCURVE",
"85 60 CURVE SMOOTH",
"85 27 OFFCURVE",
"112 0 OFFCURVE",
"145 0 CURVE SMOOTH"
);
}
);
width = 504;
}
);
unicode = 003F;
},
{
glyphname = at;
lastChange = "2021-02-18 09:42:31 +0000";
layers = (
{
background = {
paths = (
{
closed = 1;
nodes = (
"539 129 LINE",
"533 77 OFFCURVE",
"483 -12 OFFCURVE",
"442 -12 CURVE SMOOTH",
"413 -12 OFFCURVE",
"350 15 OFFCURVE",
"350 87 CURVE SMOOTH",
"350 188 OFFCURVE",
"399 311 OFFCURVE",
"460 311 CURVE SMOOTH",
"495 311 OFFCURVE",
"537 262 OFFCURVE",
"557 234 CURVE",
"563 234 LINE",
"560 334 LINE",
"553 334 LINE",
"529 350 OFFCURVE",
"506 362 OFFCURVE",
"472 362 CURVE SMOOTH",
"361 362 OFFCURVE",
"258 207 OFFCURVE",
"258 77 CURVE SMOOTH",
"258 -24 OFFCURVE",
"329 -76 OFFCURVE",
"406 -76 CURVE SMOOTH",
"482 -76 OFFCURVE",
"540 -20 OFFCURVE",
"566 63 CURVE"
);
},
{
closed = 1;
nodes = (
"50 -144 OFFCURVE",
"196 -231 OFFCURVE",
"384 -231 CURVE SMOOTH",
"437 -231 OFFCURVE",
"520 -231 OFFCURVE",
"588 -231 CURVE SMOOTH",
"599 -231 OFFCURVE",
"605 -226 OFFCURVE",
"610 -212 CURVE",
"627 -160 LINE",
"634 -140 OFFCURVE",
"623 -138 OFFCURVE",
"614 -138 CURVE SMOOTH",
"591 -138 OFFCURVE",
"513 -164 OFFCURVE",
"442 -164 CURVE SMOOTH",
"329 -164 OFFCURVE",
"155 -119 OFFCURVE",
"155 43 CURVE SMOOTH",
"155 244 OFFCURVE",
"357 475 OFFCURVE",
"528 475 CURVE SMOOTH",
"620 475 OFFCURVE",
"737 401 OFFCURVE",
"737 239 CURVE SMOOTH",
"737 145 OFFCURVE",
"686 -18 OFFCURVE",
"626 -18 CURVE SMOOTH",
"613 -18 OFFCURVE",
"610 0 OFFCURVE",
"612 21 CURVE SMOOTH",
"624 182 OFFCURVE",
"639 295 OFFCURVE",
"646 345 CURVE SMOOTH",
"649 363 OFFCURVE",
"639 365 OFFCURVE",
"630 365 CURVE SMOOTH",
"577 365 LINE SMOOTH",
"563 365 OFFCURVE",
"562 357 OFFCURVE",
"560 334 CURVE SMOOTH",
"557 301 OFFCURVE",
"551 240 OFFCURVE",
"539 129 CURVE",
"542 7 LINE",
"547 7 LINE",
"547 -24 OFFCURVE",
"573 -76 OFFCURVE",
"632 -76 CURVE SMOOTH",
"747 -76 OFFCURVE",
"839 80 OFFCURVE",
"839 237 CURVE SMOOTH",
"839 428 OFFCURVE",
"706 535 OFFCURVE",
"538 535 CURVE SMOOTH",
"264 535 OFFCURVE",
"50 275 OFFCURVE",
"50 41 CURVE SMOOTH"
);
}
);
};
layerId = "555B79C6-6D98-46E7-9307-77C37975E414";
paths = (
{
closed = 1;
nodes = (
"531 144 LINE",
"525 92 OFFCURVE",
"483 -2 OFFCURVE",
"442 -2 CURVE SMOOTH",
"403 -2 OFFCURVE",
"370 38 OFFCURVE",
"370 80 CURVE SMOOTH",
"370 179 OFFCURVE",
"411 301 OFFCURVE",
"460 301 CURVE SMOOTH",
"492 301 OFFCURVE",
"527 249 OFFCURVE",
"547 219 CURVE",
"553 219 LINE",
"550 334 LINE",
"543 334 LINE",
"524 350 OFFCURVE",
"498 362 OFFCURVE",
"468 362 CURVE SMOOTH",
"361 362 OFFCURVE",
"248 232 OFFCURVE",
"248 77 CURVE SMOOTH",
"248 -34 OFFCURVE",
"319 -86 OFFCURVE",
"406 -86 CURVE SMOOTH",
"492 -86 OFFCURVE",
"540 -20 OFFCURVE",
"566 63 CURVE"
);
},
{
closed = 1;
nodes = (
"40 -144 OFFCURVE",
"166 -241 OFFCURVE",
"384 -241 CURVE SMOOTH",
"437 -241 OFFCURVE",
"520 -241 OFFCURVE",
"576 -241 CURVE SMOOTH",
"610 -241 OFFCURVE",
"617 -233 OFFCURVE",
"622 -219 CURVE",
"645 -147 LINE",
"653 -119 OFFCURVE",
"643 -117 OFFCURVE",
"629 -117 CURVE SMOOTH",
"604 -117 OFFCURVE",
"513 -144 OFFCURVE",
"442 -144 CURVE SMOOTH",
"319 -144 OFFCURVE",
"175 -95 OFFCURVE",
"175 43 CURVE SMOOTH",
"175 244 OFFCURVE",
"369 465 OFFCURVE",
"528 465 CURVE SMOOTH",
"620 465 OFFCURVE",
"724 385 OFFCURVE",
"724 239 CURVE SMOOTH",
"724 140 OFFCURVE",
"663 -8 OFFCURVE",
"631 -8 CURVE SMOOTH",
"621 -8 OFFCURVE",
"621 0 OFFCURVE",
"623 21 CURVE SMOOTH",
"635 182 OFFCURVE",
"650 295 OFFCURVE",
"657 345 CURVE SMOOTH",
"660 363 OFFCURVE",
"650 365 OFFCURVE",
"641 365 CURVE SMOOTH",
"567 365 LINE SMOOTH",
"553 365 OFFCURVE",
"552 357 OFFCURVE",
"550 334 CURVE SMOOTH",
"547 301 OFFCURVE",
"543 255 OFFCURVE",
"531 144 CURVE",
"543 7 LINE",
"548 7 LINE",
"548 -24 OFFCURVE",
"560 -86 OFFCURVE",
"632 -86 CURVE SMOOTH",
"757 -86 OFFCURVE",
"859 80 OFFCURVE",
"859 237 CURVE SMOOTH",
"859 438 OFFCURVE",
"716 545 OFFCURVE",
"538 545 CURVE SMOOTH",
"254 545 OFFCURVE",
"40 285 OFFCURVE",
"40 41 CURVE SMOOTH"
);
}
);
width = 899;
},
{
layerId = "B0B60A8F-2DEB-4A58-A43B-60A0DADABD8F";
paths = (
{
closed = 1;
nodes = (
"539 129 LINE",
"533 77 OFFCURVE",
"483 -12 OFFCURVE",
"442 -12 CURVE SMOOTH",
"413 -12 OFFCURVE",
"350 15 OFFCURVE",
"350 87 CURVE SMOOTH",
"350 188 OFFCURVE",
"399 311 OFFCURVE",
"460 311 CURVE SMOOTH",
"495 311 OFFCURVE",
"537 262 OFFCURVE",
"557 234 CURVE",
"563 234 LINE",
"560 334 LINE",
"553 334 LINE",
"529 350 OFFCURVE",
"506 362 OFFCURVE",
"472 362 CURVE SMOOTH",
"361 362 OFFCURVE",
"258 207 OFFCURVE",
"258 77 CURVE SMOOTH",
"258 -24 OFFCURVE",
"329 -76 OFFCURVE",
"406 -76 CURVE SMOOTH",
"482 -76 OFFCURVE",
"540 -20 OFFCURVE",
"566 63 CURVE"
);
},
{
closed = 1;
nodes = (
"50 -144 OFFCURVE",
"196 -231 OFFCURVE",
"384 -231 CURVE SMOOTH",
"437 -231 OFFCURVE",
"520 -231 OFFCURVE",
"588 -231 CURVE SMOOTH",
"599 -231 OFFCURVE",
"605 -226 OFFCURVE",
"610 -212 CURVE",
"627 -160 LINE",
"634 -140 OFFCURVE",
"623 -138 OFFCURVE",
"614 -138 CURVE SMOOTH",
"591 -138 OFFCURVE",
"513 -164 OFFCURVE",
"442 -164 CURVE SMOOTH",
"329 -164 OFFCURVE",
"155 -119 OFFCURVE",
"155 43 CURVE SMOOTH",
"155 244 OFFCURVE",
"357 475 OFFCURVE",
"528 475 CURVE SMOOTH",
"620 475 OFFCURVE",
"737 401 OFFCURVE",
"737 239 CURVE SMOOTH",
"737 145 OFFCURVE",
"686 -18 OFFCURVE",
"626 -18 CURVE SMOOTH",
"613 -18 OFFCURVE",
"610 0 OFFCURVE",
"612 21 CURVE SMOOTH",
"624 182 OFFCURVE",
"639 295 OFFCURVE",
"646 345 CURVE SMOOTH",
"649 363 OFFCURVE",
"639 365 OFFCURVE",
"630 365 CURVE SMOOTH",
"577 365 LINE SMOOTH",
"563 365 OFFCURVE",
"562 357 OFFCURVE",
"560 334 CURVE SMOOTH",
"557 301 OFFCURVE",
"551 240 OFFCURVE",
"539 129 CURVE",
"542 7 LINE",
"547 7 LINE",
"547 -24 OFFCURVE",
"573 -76 OFFCURVE",
"632 -76 CURVE SMOOTH",
"747 -76 OFFCURVE",
"839 80 OFFCURVE",
"839 237 CURVE SMOOTH",
"839 428 OFFCURVE",
"706 535 OFFCURVE",
"538 535 CURVE SMOOTH",
"264 535 OFFCURVE",
"50 275 OFFCURVE",
"50 41 CURVE SMOOTH"
);
}
);
width = 889;
}
);
unicode = 0040;
},
{
glyphname = A;
lastChange = "2021-02-21 07:39:36 +0000";
layers = (
{
background = {
paths = (
{
closed = 1;
nodes = (
"565 0 OFFCURVE",
"576 3 OFFCURVE",
"572 20 CURVE SMOOTH",
"553 97 OFFCURVE",
"462 522 OFFCURVE",
"440 631 CURVE SMOOTH",
"433 668 OFFCURVE",
"425 680 OFFCURVE",
"407 680 CURVE SMOOTH",
"382 680 OFFCURVE",
"349 663 OFFCURVE",
"321 628 CURVE",
"358 593 LINE",
"362 593 OFFCURVE",
"364 593 OFFCURVE",
"368 593 CURVE",
"367 566 OFFCURVE",
"371 528 OFFCURVE",
"374 508 CURVE SMOOTH",
"389 424 OFFCURVE",
"445 87 OFFCURVE",
"456 28 CURVE SMOOTH",
"459 10 OFFCURVE",
"468 0 OFFCURVE",
"490 0 CURVE",
"506 0 OFFCURVE",
"540 0 OFFCURVE",
"556 0 CURVE"
);
},
{
closed = 1;
nodes = (
"346 628 OFFCURVE",
"333 628 OFFCURVE",
"321 628 CURVE",
"305 608 OFFCURVE",
"268 522 OFFCURVE",
"254 490 CURVE SMOOTH",
"235 446 OFFCURVE",
"74 89 OFFCURVE",
"43 22 CURVE SMOOTH",
"36 6 OFFCURVE",
"41 0 OFFCURVE",
"52 0 CURVE SMOOTH",
"62 0 OFFCURVE",
"80 0 OFFCURVE",
"92 0 CURVE SMOOTH",
"118 0 OFFCURVE",
"127 3 OFFCURVE",
"147 71 CURVE SMOOTH",
"191 222 OFFCURVE",
"298 455 OFFCURVE",
"358 593 CURVE",
"358 628 LINE"
);
},
{
closed = 1;
nodes = (
"216 213 LINE",
"407 213 LINE",
"407 252 LINE",
"216 252 LINE"
);
},
{
closed = 1;
nodes = (
"222 290 LINE",
"177 178 LINE",
"183 178 LINE",
"195 210 OFFCURVE",
"207 213 OFFCURVE",
"234 213 CURVE",
"242 252 LINE",
"216 252 OFFCURVE",
"215 261 OFFCURVE",
"227 290 CURVE"
);
},
{
closed = 1;
nodes = (
"415 265 OFFCURVE",
"414 252 OFFCURVE",
"383 252 CURVE",
"383 213 LINE",
"410 213 OFFCURVE",
"425 210 OFFCURVE",
"430 179 CURVE",
"436 179 LINE",
"414 291 LINE",
"411 291 LINE"
);
}
);
};
layerId = "555B79C6-6D98-46E7-9307-77C37975E414";
paths = (
{
closed = 1;
nodes = (
"580 0 OFFCURVE",
"591 3 OFFCURVE",
"587 20 CURVE SMOOTH",
"568 97 OFFCURVE",
"477 522 OFFCURVE",
"455 631 CURVE SMOOTH",
"448 668 OFFCURVE",
"440 680 OFFCURVE",
"422 680 CURVE SMOOTH",
"397 680 OFFCURVE",
"330 663 OFFCURVE",
"302 628 CURVE",
"358 593 LINE",
"362 593 OFFCURVE",
"364 593 OFFCURVE",
"368 593 CURVE",
"361 565 OFFCURVE",
"358 519 OFFCURVE",
"362 496 CURVE SMOOTH",
"375 412 OFFCURVE",
"429 93 OFFCURVE",
"441 28 CURVE SMOOTH",
"444 10 OFFCURVE",
"453 0 OFFCURVE",
"475 0 CURVE",
"491 0 OFFCURVE",
"555 0 OFFCURVE",
"571 0 CURVE"
);
},
{
closed = 1;
nodes = (
"346 628 OFFCURVE",
"314 628 OFFCURVE",
"302 628 CURVE",
"286 608 OFFCURVE",
"249 522 OFFCURVE",
"235 490 CURVE SMOOTH",
"216 446 OFFCURVE",
"59 89 OFFCURVE",
"28 22 CURVE SMOOTH",
"21 6 OFFCURVE",
"26 0 OFFCURVE",
"37 0 CURVE SMOOTH",
"47 0 OFFCURVE",
"90 0 OFFCURVE",
"102 0 CURVE SMOOTH",
"128 0 OFFCURVE",
"137 3 OFFCURVE",
"157 71 CURVE SMOOTH",
"202 223 OFFCURVE",
"298 455 OFFCURVE",
"358 593 CURVE",
"358 628 LINE"
);
},
{
closed = 1;
nodes = (
"226 203 LINE",
"392 203 LINE",
"392 262 LINE",
"226 262 LINE"
);
},
{
closed = 1;
nodes = (
"228 289 LINE",
"186 178 LINE",
"192 178 LINE",
"199 198 OFFCURVE",
"206 203 OFFCURVE",
"243 203 CURVE",
"251 262 LINE",
"225 262 OFFCURVE",
"222 260 OFFCURVE",
"233 289 CURVE"
);
},
{
closed = 1;
nodes = (
"399 270 OFFCURVE",
"399 262 OFFCURVE",
"368 262 CURVE",
"368 203 LINE",
"405 203 OFFCURVE",
"412 196 OFFCURVE",
"415 178 CURVE",
"421 178 LINE",
"398 296 LINE",
"395 296 LINE"
);
}
);
width = 608;
},
{
layerId = "B0B60A8F-2DEB-4A58-A43B-60A0DADABD8F";
paths = (
{
closed = 1;
nodes = (
"568 0 OFFCURVE",
"579 3 OFFCURVE",
"575 20 CURVE SMOOTH",
"556 97 OFFCURVE",
"465 522 OFFCURVE",
"443 631 CURVE SMOOTH",
"436 668 OFFCURVE",
"428 680 OFFCURVE",
"410 680 CURVE SMOOTH",
"385 680 OFFCURVE",
"348 663 OFFCURVE",
"320 628 CURVE",
"361 593 LINE",
"365 593 OFFCURVE",
"367 593 OFFCURVE",
"371 593 CURVE",
"370 566 OFFCURVE",
"374 528 OFFCURVE",
"377 508 CURVE SMOOTH",
"392 424 OFFCURVE",
"448 87 OFFCURVE",
"459 28 CURVE SMOOTH",
"462 10 OFFCURVE",
"471 0 OFFCURVE",
"493 0 CURVE",
"509 0 OFFCURVE",
"543 0 OFFCURVE",
"559 0 CURVE"
);
},
{
closed = 1;
nodes = (
"349 628 OFFCURVE",
"332 628 OFFCURVE",
"320 628 CURVE",
"304 608 OFFCURVE",
"267 522 OFFCURVE",
"253 490 CURVE SMOOTH",
"234 446 OFFCURVE",
"77 89 OFFCURVE",
"46 22 CURVE SMOOTH",
"39 6 OFFCURVE",
"44 0 OFFCURVE",
"55 0 CURVE SMOOTH",
"65 0 OFFCURVE",
"83 0 OFFCURVE",
"95 0 CURVE SMOOTH",
"121 0 OFFCURVE",
"130 3 OFFCURVE",
"150 71 CURVE SMOOTH",
"194 222 OFFCURVE",
"301 455 OFFCURVE",
"361 593 CURVE",
"361 628 LINE"
);
},
{
closed = 1;
nodes = (
"219 213 LINE",
"410 213 LINE",
"410 252 LINE",
"219 252 LINE"
);
},
{
closed = 1;
nodes = (
"225 290 LINE",
"180 178 LINE",
"186 178 LINE",
"198 210 OFFCURVE",
"210 213 OFFCURVE",
"237 213 CURVE",
"245 252 LINE",
"219 252 OFFCURVE",
"218 261 OFFCURVE",
"230 290 CURVE"
);
},
{
closed = 1;
nodes = (
"418 265 OFFCURVE",
"417 252 OFFCURVE",
"386 252 CURVE",
"386 213 LINE",
"413 213 OFFCURVE",
"428 210 OFFCURVE",
"433 179 CURVE",
"439 179 LINE",
"417 291 LINE",
"414 291 LINE"
);
}
);
width = 651;
}
);
unicode = 0041;
},
{
glyphname = B;
lastChange = "2021-01-28 21:20:25 +0000";
layers = (
{
background = {
paths = (
{
closed = 1;
nodes = (
"186 680 OFFCURVE",
"137 680 OFFCURVE",
"125 680 CURVE",
"117 680 OFFCURVE",
"103 678 OFFCURVE",
"101 656 CURVE SMOOTH",
"91 518 OFFCURVE",
"65 246 OFFCURVE",
"44 75 CURVE SMOOTH",
"38 28 OFFCURVE",
"32 0 OFFCURVE",
"72 0 CURVE SMOOTH",
"81 0 OFFCURVE",
"97 0 OFFCURVE",
"133 0 CURVE SMOOTH",
"160 0 OFFCURVE",
"156 28 OFFCURVE",
"160 71 CURVE SMOOTH",
"174 242 OFFCURVE",
"200 516 OFFCURVE",
"218 660 CURVE SMOOTH",
"220 678 OFFCURVE",
"211 680 OFFCURVE",
"202 680 CURVE"
);
},
{
closed = 1;
nodes = (
"200 362 OFFCURVE",
"203 360 OFFCURVE",
"212 361 CURVE SMOOTH",
"271 370 OFFCURVE",
"402 393 OFFCURVE",
"424 393 CURVE",
"424 396 OFFCURVE",
"424 401 OFFCURVE",
"424 406 CURVE",
"494 434 OFFCURVE",
"568 487 OFFCURVE",
"568 557 CURVE SMOOTH",
"568 619 OFFCURVE",
"506 684 OFFCURVE",
"355 684 CURVE SMOOTH",
"300 684 OFFCURVE",
"280 680 OFFCURVE",
"202 680 CURVE",
"202 584 LINE",
"209 584 LINE",
"214 629 OFFCURVE",
"220 641 OFFCURVE",
"316 641 CURVE SMOOTH",
"412 641 OFFCURVE",
"453 604 OFFCURVE",
"453 553 CURVE SMOOTH",
"453 499 OFFCURVE",
"412 434 OFFCURVE",
"216 404 CURVE SMOOTH",
"205 402 OFFCURVE",
"204 400 OFFCURVE",
"203 390 CURVE",
"201 371 LINE"
);
},
{
closed = 1;
nodes = (
"415 394 OFFCURVE",
"461 332 OFFCURVE",
"461 277 CURVE SMOOTH",
"461 168 OFFCURVE",
"366 55 OFFCURVE",
"247 55 CURVE SMOOTH",
"199 55 OFFCURVE",
"160 65 OFFCURVE",
"164 120 CURVE",
"133 120 LINE",
"133 0 LINE",
"167 0 OFFCURVE",
"194 0 OFFCURVE",
"218 0 CURVE SMOOTH",
"509 0 OFFCURVE",
"583 176 OFFCURVE",
"583 267 CURVE SMOOTH",
"583 378 OFFCURVE",
"477 400 OFFCURVE",
"424 400 CURVE",
"311 377 LINE"
);
}
);
};
layerId = "555B79C6-6D98-46E7-9307-77C37975E414";
paths = (
{
closed = 1;
nodes = (
"196 680 OFFCURVE",
"117 680 OFFCURVE",
"105 680 CURVE",
"97 680 OFFCURVE",
"83 678 OFFCURVE",
"81 656 CURVE SMOOTH",
"71 518 OFFCURVE",
"45 246 OFFCURVE",
"24 75 CURVE SMOOTH",
"18 28 OFFCURVE",
"12 0 OFFCURVE",
"52 0 CURVE SMOOTH",
"61 0 OFFCURVE",
"107 0 OFFCURVE",
"143 0 CURVE SMOOTH",
"170 0 OFFCURVE",
"166 28 OFFCURVE",
"170 71 CURVE SMOOTH",
"184 242 OFFCURVE",
"210 516 OFFCURVE",
"228 660 CURVE SMOOTH",
"230 678 OFFCURVE",
"221 680 OFFCURVE",
"212 680 CURVE"
);
},
{
closed = 1;
nodes = (
"210 356 OFFCURVE",
"213 354 OFFCURVE",
"222 355 CURVE SMOOTH",
"281 364 OFFCURVE",
"400 392 OFFCURVE",
"424 392 CURVE",
"424 395 OFFCURVE",
"424 401 OFFCURVE",
"424 406 CURVE",
"494 434 OFFCURVE",
"578 482 OFFCURVE",
"578 557 CURVE SMOOTH",
"578 630 OFFCURVE",
"516 684 OFFCURVE",
"362 684 CURVE SMOOTH",
"300 684 OFFCURVE",
"290 680 OFFCURVE",
"212 680 CURVE",
"212 584 LINE",
"219 584 LINE",
"224 629 OFFCURVE",
"230 636 OFFCURVE",
"316 636 CURVE SMOOTH",
"405 636 OFFCURVE",
"443 604 OFFCURVE",
"443 553 CURVE SMOOTH",
"443 504 OFFCURVE",
"404 445 OFFCURVE",
"227 413 CURVE SMOOTH",
"216 411 OFFCURVE",
"215 409 OFFCURVE",
"214 399 CURVE",
"211 365 LINE"
);
},
{
closed = 1;
nodes = (
"399 391 OFFCURVE",
"451 326 OFFCURVE",
"451 271 CURVE SMOOTH",
"451 175 OFFCURVE",
"362 65 OFFCURVE",
"240 65 CURVE SMOOTH",
"209 65 OFFCURVE",
"170 65 OFFCURVE",
"174 120 CURVE",
"143 120 LINE",
"143 0 LINE",
"177 0 OFFCURVE",
"194 0 OFFCURVE",
"218 0 CURVE SMOOTH",
"509 0 OFFCURVE",
"593 161 OFFCURVE",
"593 267 CURVE SMOOTH",
"593 378 OFFCURVE",
"477 400 OFFCURVE",
"424 400 CURVE",
"307 371 LINE"
);
}
);
width = 613;
},
{
layerId = "B0B60A8F-2DEB-4A58-A43B-60A0DADABD8F";
paths = (
{
closed = 1;
nodes = (
"176 680 OFFCURVE",
"127 680 OFFCURVE",
"115 680 CURVE",
"107 680 OFFCURVE",
"93 678 OFFCURVE",
"91 656 CURVE SMOOTH",
"81 518 OFFCURVE",
"55 246 OFFCURVE",
"34 75 CURVE SMOOTH",
"28 28 OFFCURVE",
"22 0 OFFCURVE",
"62 0 CURVE SMOOTH",
"71 0 OFFCURVE",
"87 0 OFFCURVE",
"123 0 CURVE SMOOTH",
"150 0 OFFCURVE",
"146 28 OFFCURVE",
"150 71 CURVE SMOOTH",
"164 242 OFFCURVE",
"190 516 OFFCURVE",
"208 660 CURVE SMOOTH",
"210 678 OFFCURVE",
"201 680 OFFCURVE",
"192 680 CURVE"
);
},
{
closed = 1;
nodes = (
"190 362 OFFCURVE",
"193 360 OFFCURVE",
"202 361 CURVE SMOOTH",
"261 370 OFFCURVE",
"392 393 OFFCURVE",
"414 393 CURVE",
"414 396 OFFCURVE",
"414 401 OFFCURVE",
"414 406 CURVE",
"484 434 OFFCURVE",
"558 487 OFFCURVE",
"558 557 CURVE SMOOTH",
"558 619 OFFCURVE",
"496 684 OFFCURVE",
"345 684 CURVE SMOOTH",
"290 684 OFFCURVE",
"270 680 OFFCURVE",
"192 680 CURVE",
"192 584 LINE",
"199 584 LINE",
"204 629 OFFCURVE",
"210 641 OFFCURVE",
"306 641 CURVE SMOOTH",
"402 641 OFFCURVE",
"443 604 OFFCURVE",
"443 553 CURVE SMOOTH",
"443 499 OFFCURVE",
"402 434 OFFCURVE",
"206 404 CURVE SMOOTH",
"195 402 OFFCURVE",
"194 400 OFFCURVE",
"193 390 CURVE",
"191 371 LINE"
);
},
{
closed = 1;
nodes = (
"405 394 OFFCURVE",
"451 332 OFFCURVE",
"451 277 CURVE SMOOTH",
"451 168 OFFCURVE",
"356 55 OFFCURVE",
"237 55 CURVE SMOOTH",
"189 55 OFFCURVE",
"150 65 OFFCURVE",
"154 120 CURVE",
"123 120 LINE",
"123 0 LINE",
"157 0 OFFCURVE",
"184 0 OFFCURVE",
"208 0 CURVE SMOOTH",
"499 0 OFFCURVE",
"573 176 OFFCURVE",
"573 267 CURVE SMOOTH",
"573 378 OFFCURVE",
"467 400 OFFCURVE",
"414 400 CURVE",
"301 377 LINE"
);
}
);
width = 603;
}
);
unicode = 0042;
},
{
glyphname = C;
lastChange = "2021-01-28 21:41:34 +0000";
layers = (
{
background = {
paths = (
{
closed = 1;
nodes = (
"562 175 OFFCURVE",
"583 142 OFFCURVE",
"583 115 CURVE SMOOTH",
"583 80 OFFCURVE",
"458 -9 OFFCURVE",
"315 -9 CURVE SMOOTH",
"184 -9 OFFCURVE",
"35 69 OFFCURVE",
"35 237 CURVE SMOOTH",
"35 473 OFFCURVE",
"239 688 OFFCURVE",
"444 688 CURVE SMOOTH",
"574 688 OFFCURVE",
"634 587 OFFCURVE",
"634 463 CURVE SMOOTH",
"634 434 OFFCURVE",
"628 426 OFFCURVE",
"608 426 CURVE",
"531 426 LINE",
"512 426 OFFCURVE",
"510 433 OFFCURVE",
"510 443 CURVE SMOOTH",
"510 463 OFFCURVE",
"515 479 OFFCURVE",
"515 518 CURVE SMOOTH",
"515 589 OFFCURVE",
"487 630 OFFCURVE",
"428 630 CURVE SMOOTH",
"286 630 OFFCURVE",
"160 409 OFFCURVE",
"160 250 CURVE SMOOTH",
"160 103 OFFCURVE",
"268 56 OFFCURVE",
"329 56 CURVE SMOOTH",
"429 56 OFFCURVE",
"517 175 OFFCURVE",
"545 175 CURVE SMOOTH"
);
}
);
};
layerId = "555B79C6-6D98-46E7-9307-77C37975E414";
paths = (
{
closed = 1;
nodes = (
"573 195 OFFCURVE",
"597 157 OFFCURVE",
"597 130 CURVE SMOOTH",
"597 95 OFFCURVE",
"473 -9 OFFCURVE",
"315 -9 CURVE SMOOTH",
"170 -9 OFFCURVE",
"20 69 OFFCURVE",
"20 237 CURVE SMOOTH",
"20 473 OFFCURVE",
"239 688 OFFCURVE",
"444 688 CURVE SMOOTH",
"579 688 OFFCURVE",
"646 587 OFFCURVE",
"646 463 CURVE SMOOTH",
"646 434 OFFCURVE",
"640 426 OFFCURVE",
"620 426 CURVE",
"519 426 LINE",
"500 426 OFFCURVE",
"498 433 OFFCURVE",
"498 443 CURVE SMOOTH",
"498 463 OFFCURVE",
"503 479 OFFCURVE",
"503 518 CURVE SMOOTH",
"503 589 OFFCURVE",
"477 618 OFFCURVE",
"428 618 CURVE SMOOTH",
"296 618 OFFCURVE",
"175 409 OFFCURVE",
"175 250 CURVE SMOOTH",
"175 103 OFFCURVE",
"275 66 OFFCURVE",
"329 66 CURVE SMOOTH",
"429 66 OFFCURVE",
"522 195 OFFCURVE",
"550 195 CURVE SMOOTH"
);
}
);
width = 676;
},
{
background = {
paths = (
{
closed = 1;
nodes = (
"708 206 OFFCURVE",
"543 -9 OFFCURVE",
"319 -9 CURVE SMOOTH",
"172 -9 OFFCURVE",
"27 72 OFFCURVE",
"27 243 CURVE SMOOTH",
"27 473 OFFCURVE",
"192 688 OFFCURVE",
"416 688 CURVE SMOOTH",
"563 688 OFFCURVE",
"708 607 OFFCURVE",
"708 436 CURVE SMOOTH"
);
},
{
closed = 1;
nodes = (
"500 56 OFFCURVE",
"573 283 OFFCURVE",
"573 418 CURVE SMOOTH",
"573 572 OFFCURVE",
"462 623 OFFCURVE",
"375 623 CURVE SMOOTH",
"235 623 OFFCURVE",
"162 396 OFFCURVE",
"162 261 CURVE SMOOTH",
"162 107 OFFCURVE",
"273 56 OFFCURVE",
"360 56 CURVE SMOOTH"
);
},
{
closed = 1;
nodes = (
"165 582 OFFCURVE",
"281 688 OFFCURVE",
"417 688 CURVE SMOOTH",
"529 688 OFFCURVE",
"605 601 OFFCURVE",
"601 512 CURVE SMOOTH",
"600 483 OFFCURVE",
"595 475 OFFCURVE",
"575 475 CURVE",
"505 475 LINE",
"486 475 OFFCURVE",
"484 482 OFFCURVE",
"484 492 CURVE SMOOTH",
"484 505 OFFCURVE",
"489 531 OFFCURVE",
"489 567 CURVE SMOOTH",
"489 614 OFFCURVE",
"462 644 OFFCURVE",
"413 644 CURVE SMOOTH",
"345 644 OFFCURVE",
"285 570 OFFCURVE",
"285 529 CURVE",
"165 512 LINE"
);
}
);
};
layerId = "B0B60A8F-2DEB-4A58-A43B-60A0DADABD8F";
paths = (
{
closed = 1;
nodes = (
"557 175 OFFCURVE",
"578 142 OFFCURVE",
"578 115 CURVE SMOOTH",
"578 80 OFFCURVE",
"453 -9 OFFCURVE",
"310 -9 CURVE SMOOTH",
"179 -9 OFFCURVE",
"30 69 OFFCURVE",
"30 237 CURVE SMOOTH",
"30 473 OFFCURVE",
"234 688 OFFCURVE",
"439 688 CURVE SMOOTH",
"569 688 OFFCURVE",
"629 587 OFFCURVE",
"629 463 CURVE SMOOTH",
"629 434 OFFCURVE",
"623 426 OFFCURVE",
"603 426 CURVE",
"526 426 LINE",
"507 426 OFFCURVE",
"505 433 OFFCURVE",
"505 443 CURVE SMOOTH",
"505 463 OFFCURVE",
"510 479 OFFCURVE",
"510 518 CURVE SMOOTH",
"510 589 OFFCURVE",
"482 630 OFFCURVE",
"423 630 CURVE SMOOTH",
"281 630 OFFCURVE",
"155 409 OFFCURVE",
"155 250 CURVE SMOOTH",
"155 103 OFFCURVE",
"263 56 OFFCURVE",
"324 56 CURVE SMOOTH",
"424 56 OFFCURVE",
"512 175 OFFCURVE",
"540 175 CURVE SMOOTH"
);
}
);
width = 669;
}
);
unicode = 0043;
},
{
glyphname = D;
lastChange = "2021-01-28 10:45:46 +0000";
layers = (
{
background = {
paths = (
{
closed = 1;
nodes = (
"151 680 OFFCURVE",
"132 680 OFFCURVE",
"120 680 CURVE",
"112 680 OFFCURVE",
"98 678 OFFCURVE",
"96 656 CURVE SMOOTH",
"86 518 OFFCURVE",
"60 246 OFFCURVE",
"39 75 CURVE SMOOTH",
"33 28 OFFCURVE",
"27 0 OFFCURVE",
"67 0 CURVE SMOOTH",
"76 0 OFFCURVE",
"92 0 OFFCURVE",
"128 0 CURVE SMOOTH",
"155 0 OFFCURVE",
"152 28 OFFCURVE",
"155 71 CURVE SMOOTH",
"169 248 OFFCURVE",
"195 516 OFFCURVE",
"213 660 CURVE SMOOTH",
"215 678 OFFCURVE",
"206 680 OFFCURVE",
"197 680 CURVE"
);
},
{
closed = 1;
nodes = (
"209 629 OFFCURVE",
"215 634 OFFCURVE",
"331 634 CURVE SMOOTH",
"482 634 OFFCURVE",
"550 555 OFFCURVE",
"550 418 CURVE SMOOTH",
"550 261 OFFCURVE",
"447 56 OFFCURVE",
"262 56 CURVE SMOOTH",
"204 56 OFFCURVE",
"155 65 OFFCURVE",
"159 120 CURVE",
"128 120 LINE",
"128 0 LINE",
"162 0 OFFCURVE",
"189 0 OFFCURVE",
"224 0 CURVE SMOOTH",
"561 0 OFFCURVE",
"675 241 OFFCURVE",
"675 429 CURVE SMOOTH",
"675 598 OFFCURVE",
"572 684 OFFCURVE",
"393 684 CURVE SMOOTH",
"323 684 OFFCURVE",
"275 680 OFFCURVE",
"197 680 CURVE",
"197 584 LINE",
"204 584 LINE"
);
}
);
};
layerId = "555B79C6-6D98-46E7-9307-77C37975E414";
paths = (
{
closed = 1;
nodes = (
"166 680 OFFCURVE",
"117 680 OFFCURVE",
"105 680 CURVE",
"97 680 OFFCURVE",
"83 678 OFFCURVE",
"81 656 CURVE SMOOTH",
"71 518 OFFCURVE",
"45 246 OFFCURVE",
"24 75 CURVE SMOOTH",
"18 28 OFFCURVE",
"12 0 OFFCURVE",
"52 0 CURVE SMOOTH",
"61 0 OFFCURVE",
"107 0 OFFCURVE",
"143 0 CURVE SMOOTH",
"170 0 OFFCURVE",
"167 28 OFFCURVE",
"170 71 CURVE SMOOTH",
"184 248 OFFCURVE",
"210 516 OFFCURVE",
"228 660 CURVE SMOOTH",
"230 678 OFFCURVE",
"221 680 OFFCURVE",
"212 680 CURVE"
);
},
{
closed = 1;
nodes = (
"224 629 OFFCURVE",
"230 624 OFFCURVE",
"331 624 CURVE SMOOTH",
"468 624 OFFCURVE",
"535 555 OFFCURVE",
"535 418 CURVE SMOOTH",
"535 261 OFFCURVE",
"447 66 OFFCURVE",
"262 66 CURVE SMOOTH",
"204 66 OFFCURVE",
"171 77 OFFCURVE",
"175 132 CURVE",
"144 132 LINE",
"143 0 LINE",
"177 0 OFFCURVE",
"189 0 OFFCURVE",
"224 0 CURVE SMOOTH",
"571 0 OFFCURVE",
"690 241 OFFCURVE",
"690 429 CURVE SMOOTH",
"690 598 OFFCURVE",
"572 684 OFFCURVE",
"393 684 CURVE SMOOTH",
"323 684 OFFCURVE",
"290 680 OFFCURVE",
"212 680 CURVE",
"212 584 LINE",
"219 584 LINE"
);
}
);
width = 710;
},
{
background = {
paths = (
{
closed = 1;
nodes = (
"535 0 OFFCURVE",
"546 2 OFFCURVE",
"542 20 CURVE SMOOTH",
"531 73 OFFCURVE",
"432 523 OFFCURVE",
"410 631 CURVE SMOOTH",
"402 668 OFFCURVE",
"395 680 OFFCURVE",
"377 680 CURVE SMOOTH",
"352 680 OFFCURVE",
"302 663 OFFCURVE",
"274 628 CURVE",
"313 593 LINE",
"317 593 OFFCURVE",
"319 593 OFFCURVE",
"323 593 CURVE",
"324 566 OFFCURVE",
"326 538 OFFCURVE",
"328 523 CURVE SMOOTH",
"340 445 OFFCURVE",
"400 87 OFFCURVE",
"411 28 CURVE SMOOTH",
"414 10 OFFCURVE",
"423 0 OFFCURVE",
"445 0 CURVE",
"461 0 OFFCURVE",
"510 0 OFFCURVE",
"526 0 CURVE"
);
},
{
closed = 1;
nodes = (
"301 628 OFFCURVE",
"286 628 OFFCURVE",
"274 628 CURVE",
"258 608 OFFCURVE",
"220 518 OFFCURVE",
"209 490 CURVE SMOOTH",
"191 445 OFFCURVE",
"49 89 OFFCURVE",
"19 22 CURVE SMOOTH",
"12 6 OFFCURVE",
"17 0 OFFCURVE",
"28 0 CURVE SMOOTH",
"38 0 OFFCURVE",
"60 0 OFFCURVE",
"72 0 CURVE SMOOTH",
"96 0 OFFCURVE",
"107 3 OFFCURVE",
"127 71 CURVE SMOOTH",
"172 224 OFFCURVE",
"253 455 OFFCURVE",
"313 593 CURVE",
"313 628 LINE"
);
},
{
closed = 1;
nodes = (
"193 217 LINE",
"362 217 LINE",
"362 252 LINE",
"193 252 LINE"
);
},
{
closed = 1;
nodes = (
"195 291 LINE",
"156 184 LINE",
"162 184 LINE",
"173 215 OFFCURVE",
"184 217 OFFCURVE",
"211 217 CURVE",
"219 252 LINE",
"195 252 OFFCURVE",
"188 266 OFFCURVE",
"198 291 CURVE"
);
},
{
closed = 1;
nodes = (
"370 265 OFFCURVE",
"369 252 OFFCURVE",
"338 252 CURVE",
"338 217 LINE",
"365 217 OFFCURVE",
"379 216 OFFCURVE",
"384 185 CURVE",
"390 185 LINE",
"369 291 LINE",
"366 291 LINE"
);
}
);
};
layerId = "B0B60A8F-2DEB-4A58-A43B-60A0DADABD8F";
paths = (
{
closed = 1;
nodes = (
"146 680 OFFCURVE",
"127 680 OFFCURVE",
"115 680 CURVE",
"107 680 OFFCURVE",
"93 678 OFFCURVE",
"91 656 CURVE SMOOTH",
"81 518 OFFCURVE",
"55 246 OFFCURVE",
"34 75 CURVE SMOOTH",
"28 28 OFFCURVE",
"22 0 OFFCURVE",
"62 0 CURVE SMOOTH",
"71 0 OFFCURVE",
"87 0 OFFCURVE",
"123 0 CURVE SMOOTH",
"150 0 OFFCURVE",
"147 28 OFFCURVE",
"150 71 CURVE SMOOTH",
"164 248 OFFCURVE",
"190 516 OFFCURVE",
"208 660 CURVE SMOOTH",
"210 678 OFFCURVE",
"201 680 OFFCURVE",
"192 680 CURVE"
);
},
{
closed = 1;
nodes = (
"204 629 OFFCURVE",
"210 634 OFFCURVE",
"326 634 CURVE SMOOTH",
"477 634 OFFCURVE",
"545 555 OFFCURVE",
"545 418 CURVE SMOOTH",
"545 261 OFFCURVE",
"442 56 OFFCURVE",
"257 56 CURVE SMOOTH",
"199 56 OFFCURVE",
"150 65 OFFCURVE",
"154 120 CURVE",
"123 120 LINE",
"123 0 LINE",
"157 0 OFFCURVE",
"184 0 OFFCURVE",
"219 0 CURVE SMOOTH",
"556 0 OFFCURVE",
"670 241 OFFCURVE",
"670 429 CURVE SMOOTH",
"670 598 OFFCURVE",
"567 684 OFFCURVE",
"388 684 CURVE SMOOTH",
"318 684 OFFCURVE",
"270 680 OFFCURVE",
"192 680 CURVE",
"192 584 LINE",
"199 584 LINE"
);
}
);
width = 700;
}
);
unicode = 0044;
},
{
glyphname = E;
lastChange = "2021-01-28 19:31:15 +0000";
layers = (
{
background = {
paths = (
{
closed = 1;
nodes = (
"186 680 OFFCURVE",
"137 680 OFFCURVE",
"125 680 CURVE",
"117 680 OFFCURVE",
"103 678 OFFCURVE",
"101 656 CURVE SMOOTH",
"91 518 OFFCURVE",
"65 246 OFFCURVE",
"44 75 CURVE SMOOTH",
"38 28 OFFCURVE",
"32 0 OFFCURVE",
"72 0 CURVE SMOOTH",
"81 0 OFFCURVE",
"97 0 OFFCURVE",
"133 0 CURVE SMOOTH",
"160 0 OFFCURVE",
"156 28 OFFCURVE",
"160 71 CURVE SMOOTH",
"174 242 OFFCURVE",
"200 516 OFFCURVE",
"218 660 CURVE SMOOTH",
"220 678 OFFCURVE",
"211 680 OFFCURVE",
"202 680 CURVE"
);
},
{
closed = 1;
nodes = (
"202 389 LINE",
"202 342 LINE",
"406 342 LINE",
"406 389 LINE"
);
},
{
closed = 1;
nodes = (
"190 432 LINE",
"175 308 LINE",
"181 308 LINE",
"184 344 OFFCURVE",
"197 342 OFFCURVE",
"230 342 CURVE",
"230 389 LINE",
"198 389 OFFCURVE",
"190 397 OFFCURVE",
"193 432 CURVE"
);
},
{
closed = 1;
nodes = (
"421 340 OFFCURVE",
"423 341 OFFCURVE",
"425 348 CURVE SMOOTH",
"427 355 OFFCURVE",
"431 371 OFFCURVE",
"434 382 CURVE SMOOTH",
"436 390 OFFCURVE",
"431 392 OFFCURVE",
"425 392 CURVE SMOOTH",
"409 392 OFFCURVE",
"361 389 OFFCURVE",
"347 389 CURVE",
"347 342 LINE",
"371 342 OFFCURVE",
"402 340 OFFCURVE",
"414 340 CURVE"
);
},
{
closed = 1;
nodes = (
"249 680 LINE",
"249 635 LINE",
"403 635 LINE",
"403 680 LINE"
);
},
{
closed = 1;
nodes = (
"202 680 LINE",
"202 593 LINE",
"210 593 LINE",
"214 631 OFFCURVE",
"224 635 OFFCURVE",
"257 635 CURVE",
"257 680 LINE"
);
},
{
closed = 1;
nodes = (
"476 630 OFFCURVE",
"478 631 OFFCURVE",
"480 638 CURVE SMOOTH",
"482 645 OFFCURVE",
"486 659 OFFCURVE",
"489 670 CURVE SMOOTH",
"491 679 OFFCURVE",
"486 680 OFFCURVE",
"480 680 CURVE SMOOTH",
"464 680 OFFCURVE",
"389 680 OFFCURVE",
"375 680 CURVE",
"375 635 LINE",
"425 635 OFFCURVE",
"461 630 OFFCURVE",
"469 630 CURVE"
);
},
{
closed = 1;
nodes = (
"360 55 LINE",
"190 55 LINE",
"190 0 LINE",
"360 0 LINE"
);
},
{
closed = 1;
nodes = (
"198 55 LINE",
"165 55 OFFCURVE",
"158 59 OFFCURVE",
"163 107 CURVE",
"133 107 LINE",
"133 0 LINE",
"198 0 LINE"
);
},
{
closed = 1;
nodes = (
"432 0 OFFCURVE",
"434 1 OFFCURVE",
"436 8 CURVE SMOOTH",
"438 15 OFFCURVE",
"444 41 OFFCURVE",
"447 52 CURVE SMOOTH",
"449 61 OFFCURVE",
"442 62 OFFCURVE",
"436 62 CURVE SMOOTH",
"420 62 OFFCURVE",
"376 55 OFFCURVE",
"334 55 CURVE",
"334 0 LINE",
"358 0 OFFCURVE",
"413 0 OFFCURVE",
"425 0 CURVE"
);
}
);
};
layerId = "555B79C6-6D98-46E7-9307-77C37975E414";
paths = (
{
closed = 1;
nodes = (
"201 680 OFFCURVE",
"122 680 OFFCURVE",
"110 680 CURVE",
"102 680 OFFCURVE",
"88 678 OFFCURVE",
"86 656 CURVE SMOOTH",
"76 518 OFFCURVE",
"50 246 OFFCURVE",
"29 75 CURVE SMOOTH",
"23 28 OFFCURVE",
"17 0 OFFCURVE",
"57 0 CURVE SMOOTH",
"66 0 OFFCURVE",
"97 0 OFFCURVE",
"148 0 CURVE SMOOTH",
"175 0 OFFCURVE",
"171 28 OFFCURVE",
"175 71 CURVE SMOOTH",
"189 242 OFFCURVE",
"215 516 OFFCURVE",
"233 660 CURVE SMOOTH",
"235 678 OFFCURVE",
"226 680 OFFCURVE",
"217 680 CURVE"
);
},
{
closed = 1;
nodes = (
"217 396 LINE",
"217 334 LINE",
"421 334 LINE",
"421 396 LINE"
);
},
{
closed = 1;
nodes = (
"205 432 LINE",
"190 308 LINE",
"196 308 LINE",
"198 333 OFFCURVE",
"212 334 OFFCURVE",
"245 334 CURVE",
"245 396 LINE",
"213 396 OFFCURVE",
"205 397 OFFCURVE",
"208 432 CURVE"
);
},
{
closed = 1;
nodes = (
"436 332 OFFCURVE",
"438 333 OFFCURVE",
"440 340 CURVE SMOOTH",
"442 347 OFFCURVE",
"449 378 OFFCURVE",
"452 389 CURVE SMOOTH",
"454 397 OFFCURVE",
"449 399 OFFCURVE",
"443 399 CURVE SMOOTH",
"427 399 OFFCURVE",
"390 396 OFFCURVE",
"362 396 CURVE",
"362 334 LINE",
"386 334 OFFCURVE",
"417 332 OFFCURVE",
"429 332 CURVE"
);
},
{
closed = 1;
nodes = (
"264 680 LINE",
"264 625 LINE",
"418 625 LINE",
"418 680 LINE"
);
},
{
closed = 1;
nodes = (
"217 680 LINE",
"217 593 LINE",
"225 593 LINE",
"229 631 OFFCURVE",
"239 625 OFFCURVE",
"272 625 CURVE",
"272 680 LINE"
);
},
{
closed = 1;
nodes = (
"491 620 OFFCURVE",
"493 621 OFFCURVE",
"495 628 CURVE SMOOTH",
"497 635 OFFCURVE",
"503 659 OFFCURVE",
"506 670 CURVE SMOOTH",
"508 679 OFFCURVE",
"503 680 OFFCURVE",
"497 680 CURVE SMOOTH",
"481 680 OFFCURVE",
"404 680 OFFCURVE",
"390 680 CURVE",
"390 625 LINE",
"440 625 OFFCURVE",
"476 620 OFFCURVE",
"484 620 CURVE"
);
},
{
closed = 1;
nodes = (
"375 65 LINE",
"205 65 LINE",
"205 0 LINE",
"375 0 LINE"
);
},
{
closed = 1;
nodes = (
"213 65 LINE",
"180 65 OFFCURVE",
"174 71 OFFCURVE",
"179 119 CURVE",
"149 119 LINE",
"148 0 LINE",
"213 0 LINE"
);
},
{
closed = 1;
nodes = (
"447 0 OFFCURVE",
"449 1 OFFCURVE",
"451 8 CURVE SMOOTH",
"453 15 OFFCURVE",
"463 56 OFFCURVE",
"466 67 CURVE SMOOTH",
"468 76 OFFCURVE",
"461 77 OFFCURVE",
"455 77 CURVE SMOOTH",
"439 77 OFFCURVE",
"382 65 OFFCURVE",
"336 65 CURVE",
"336 0 LINE",
"360 0 OFFCURVE",
"428 0 OFFCURVE",
"440 0 CURVE"
);
}
);
width = 516;
},
{
layerId = "B0B60A8F-2DEB-4A58-A43B-60A0DADABD8F";
paths = (
{
closed = 1;
nodes = (
"181 680 OFFCURVE",
"132 680 OFFCURVE",
"120 680 CURVE",
"112 680 OFFCURVE",
"98 678 OFFCURVE",
"96 656 CURVE SMOOTH",
"86 518 OFFCURVE",
"60 246 OFFCURVE",
"39 75 CURVE SMOOTH",
"33 28 OFFCURVE",
"27 0 OFFCURVE",
"67 0 CURVE SMOOTH",
"76 0 OFFCURVE",
"92 0 OFFCURVE",
"128 0 CURVE SMOOTH",
"155 0 OFFCURVE",
"151 28 OFFCURVE",
"155 71 CURVE SMOOTH",
"169 242 OFFCURVE",
"195 516 OFFCURVE",
"213 660 CURVE SMOOTH",
"215 678 OFFCURVE",
"206 680 OFFCURVE",
"197 680 CURVE"
);
},
{
closed = 1;
nodes = (
"197 389 LINE",
"197 342 LINE",
"401 342 LINE",
"401 389 LINE"
);
},
{
closed = 1;
nodes = (
"185 432 LINE",
"170 308 LINE",
"176 308 LINE",
"179 344 OFFCURVE",
"192 342 OFFCURVE",
"225 342 CURVE",
"225 389 LINE",
"193 389 OFFCURVE",
"185 397 OFFCURVE",
"188 432 CURVE"
);
},
{
closed = 1;
nodes = (
"416 340 OFFCURVE",
"418 341 OFFCURVE",
"420 348 CURVE SMOOTH",
"422 355 OFFCURVE",
"426 371 OFFCURVE",
"429 382 CURVE SMOOTH",
"431 390 OFFCURVE",
"426 392 OFFCURVE",
"420 392 CURVE SMOOTH",
"404 392 OFFCURVE",
"356 389 OFFCURVE",
"342 389 CURVE",
"342 342 LINE",
"366 342 OFFCURVE",
"397 340 OFFCURVE",
"409 340 CURVE"
);
},
{
closed = 1;
nodes = (
"244 680 LINE",
"244 635 LINE",
"398 635 LINE",
"398 680 LINE"
);
},
{
closed = 1;
nodes = (
"197 680 LINE",
"197 593 LINE",
"205 593 LINE",
"209 631 OFFCURVE",
"219 635 OFFCURVE",
"252 635 CURVE",
"252 680 LINE"
);
},
{
closed = 1;
nodes = (
"471 630 OFFCURVE",
"473 631 OFFCURVE",
"475 638 CURVE SMOOTH",
"477 645 OFFCURVE",
"481 659 OFFCURVE",
"484 670 CURVE SMOOTH",
"486 679 OFFCURVE",
"481 680 OFFCURVE",
"475 680 CURVE SMOOTH",
"459 680 OFFCURVE",
"384 680 OFFCURVE",
"370 680 CURVE",
"370 635 LINE",
"420 635 OFFCURVE",
"456 630 OFFCURVE",
"464 630 CURVE"
);
},
{
closed = 1;
nodes = (
"355 55 LINE",
"185 55 LINE",
"185 0 LINE",
"355 0 LINE"
);
},
{
closed = 1;
nodes = (
"193 55 LINE",
"160 55 OFFCURVE",
"153 59 OFFCURVE",
"158 107 CURVE",
"128 107 LINE",
"128 0 LINE",
"193 0 LINE"
);
},
{
closed = 1;
nodes = (
"427 0 OFFCURVE",
"429 1 OFFCURVE",
"431 8 CURVE SMOOTH",
"433 15 OFFCURVE",
"439 41 OFFCURVE",
"442 52 CURVE SMOOTH",
"444 61 OFFCURVE",
"437 62 OFFCURVE",
"431 62 CURVE SMOOTH",
"415 62 OFFCURVE",
"371 55 OFFCURVE",
"329 55 CURVE",
"329 0 LINE",
"353 0 OFFCURVE",
"408 0 OFFCURVE",
"420 0 CURVE"
);
}
);
width = 494;
}
);
unicode = 0045;
},
{
glyphname = F;
lastChange = "2021-01-28 22:24:14 +0000";
layers = (
{
background = {
paths = (
{
closed = 1;
nodes = (
"181 680 OFFCURVE",
"132 680 OFFCURVE",
"120 680 CURVE",
"112 680 OFFCURVE",
"98 678 OFFCURVE",
"96 656 CURVE SMOOTH",
"86 518 OFFCURVE",
"60 246 OFFCURVE",
"39 75 CURVE SMOOTH",
"33 28 OFFCURVE",
"27 0 OFFCURVE",
"67 0 CURVE SMOOTH",
"76 0 OFFCURVE",
"92 0 OFFCURVE",
"128 0 CURVE SMOOTH",
"155 0 OFFCURVE",
"151 28 OFFCURVE",
"155 71 CURVE SMOOTH",
"169 242 OFFCURVE",
"195 516 OFFCURVE",
"213 660 CURVE SMOOTH",
"215 678 OFFCURVE",
"206 680 OFFCURVE",
"197 680 CURVE"
);
},
{
closed = 1;
nodes = (
"197 389 LINE",
"197 342 LINE",
"408 342 LINE",
"408 389 LINE"
);
},
{
closed = 1;
nodes = (
"185 432 LINE",
"170 308 LINE",
"176 308 LINE",
"179 344 OFFCURVE",
"192 342 OFFCURVE",
"225 342 CURVE",
"225 389 LINE",
"193 389 OFFCURVE",
"185 397 OFFCURVE",
"188 432 CURVE"
);
},
{
closed = 1;
nodes = (
"423 340 OFFCURVE",
"425 341 OFFCURVE",
"427 348 CURVE SMOOTH",
"429 355 OFFCURVE",
"433 371 OFFCURVE",
"436 382 CURVE SMOOTH",
"438 390 OFFCURVE",
"433 392 OFFCURVE",
"427 392 CURVE SMOOTH",
"411 392 OFFCURVE",
"363 389 OFFCURVE",
"349 389 CURVE",
"349 342 LINE",
"373 342 OFFCURVE",
"404 340 OFFCURVE",
"416 340 CURVE"
);
},
{
closed = 1;
nodes = (
"244 680 LINE",
"244 635 LINE",
"405 635 LINE",
"405 680 LINE"
);
},
{
closed = 1;
nodes = (
"197 680 LINE",
"197 593 LINE",
"205 593 LINE",
"209 631 OFFCURVE",
"219 635 OFFCURVE",
"252 635 CURVE",
"252 680 LINE"
);
},
{
closed = 1;
nodes = (
"478 630 OFFCURVE",
"480 631 OFFCURVE",
"482 638 CURVE SMOOTH",
"484 645 OFFCURVE",
"488 659 OFFCURVE",
"491 670 CURVE SMOOTH",
"493 679 OFFCURVE",
"488 680 OFFCURVE",
"482 680 CURVE SMOOTH",
"466 680 OFFCURVE",
"391 680 OFFCURVE",
"377 680 CURVE",
"377 635 LINE",
"427 635 OFFCURVE",
"463 630 OFFCURVE",
"471 630 CURVE"
);
}
);
};
layerId = "555B79C6-6D98-46E7-9307-77C37975E414";
paths = (
{
closed = 1;
nodes = (
"196 680 OFFCURVE",
"117 680 OFFCURVE",
"105 680 CURVE",
"97 680 OFFCURVE",
"83 678 OFFCURVE",
"81 656 CURVE SMOOTH",
"71 518 OFFCURVE",
"45 246 OFFCURVE",
"24 75 CURVE SMOOTH",
"18 28 OFFCURVE",
"12 0 OFFCURVE",
"52 0 CURVE SMOOTH",
"61 0 OFFCURVE",
"92 0 OFFCURVE",
"143 0 CURVE SMOOTH",
"170 0 OFFCURVE",
"166 28 OFFCURVE",
"170 71 CURVE SMOOTH",
"184 242 OFFCURVE",
"210 516 OFFCURVE",
"228 660 CURVE SMOOTH",
"230 678 OFFCURVE",
"221 680 OFFCURVE",
"212 680 CURVE"
);
},
{
closed = 1;
nodes = (
"212 396 LINE",
"212 334 LINE",
"416 334 LINE",
"416 396 LINE"
);
},
{
closed = 1;
nodes = (
"200 432 LINE",
"185 308 LINE",
"191 308 LINE",
"193 333 OFFCURVE",
"207 334 OFFCURVE",
"240 334 CURVE",
"240 396 LINE",
"208 396 OFFCURVE",
"200 397 OFFCURVE",
"203 432 CURVE"
);
},
{
closed = 1;
nodes = (
"431 332 OFFCURVE",
"433 333 OFFCURVE",
"435 340 CURVE SMOOTH",
"437 347 OFFCURVE",
"444 378 OFFCURVE",
"447 389 CURVE SMOOTH",
"449 397 OFFCURVE",
"444 399 OFFCURVE",
"438 399 CURVE SMOOTH",
"422 399 OFFCURVE",
"385 396 OFFCURVE",
"357 396 CURVE",
"357 334 LINE",
"381 334 OFFCURVE",
"412 332 OFFCURVE",
"424 332 CURVE"
);
},
{
closed = 1;
nodes = (
"259 680 LINE",
"259 625 LINE",
"413 625 LINE",
"413 680 LINE"
);
},
{
closed = 1;
nodes = (
"212 680 LINE",
"212 593 LINE",
"220 593 LINE",
"224 631 OFFCURVE",
"234 625 OFFCURVE",
"267 625 CURVE",
"267 680 LINE"
);
},
{
closed = 1;
nodes = (
"486 620 OFFCURVE",
"488 621 OFFCURVE",
"490 628 CURVE SMOOTH",
"492 635 OFFCURVE",
"498 659 OFFCURVE",
"501 670 CURVE SMOOTH",
"503 679 OFFCURVE",
"498 680 OFFCURVE",
"492 680 CURVE SMOOTH",
"476 680 OFFCURVE",
"399 680 OFFCURVE",
"385 680 CURVE",
"385 625 LINE",
"435 625 OFFCURVE",
"471 620 OFFCURVE",
"479 620 CURVE"
);
}
);
width = 511;
},
{
background = {
paths = (
{
closed = 1;
nodes = (
"176 680 OFFCURVE",
"126 680 OFFCURVE",
"114 680 CURVE",
"106 680 OFFCURVE",
"92 678 OFFCURVE",
"90 656 CURVE SMOOTH",
"80 518 OFFCURVE",
"54 246 OFFCURVE",
"33 75 CURVE SMOOTH",
"27 28 OFFCURVE",
"21 0 OFFCURVE",
"61 0 CURVE SMOOTH",
"70 0 OFFCURVE",
"87 0 OFFCURVE",
"123 0 CURVE SMOOTH",
"150 0 OFFCURVE",
"146 28 OFFCURVE",
"150 71 CURVE SMOOTH",
"164 242 OFFCURVE",
"190 516 OFFCURVE",
"208 660 CURVE SMOOTH",
"210 678 OFFCURVE",
"201 680 OFFCURVE",
"192 680 CURVE"
);
},
{
closed = 1;
nodes = (
"192 389 LINE",
"192 342 LINE",
"396 342 LINE",
"396 389 LINE"
);
},
{
closed = 1;
nodes = (
"180 432 LINE",
"165 308 LINE",
"171 308 LINE",
"174 344 OFFCURVE",
"187 342 OFFCURVE",
"220 342 CURVE",
"220 389 LINE",
"188 389 OFFCURVE",
"180 397 OFFCURVE",
"183 432 CURVE"
);
},
{
closed = 1;
nodes = (
"411 340 OFFCURVE",
"413 341 OFFCURVE",
"415 348 CURVE SMOOTH",
"417 355 OFFCURVE",
"421 371 OFFCURVE",
"424 382 CURVE SMOOTH",
"426 390 OFFCURVE",
"421 392 OFFCURVE",
"415 392 CURVE SMOOTH",
"399 392 OFFCURVE",
"351 389 OFFCURVE",
"337 389 CURVE",
"337 342 LINE",
"361 342 OFFCURVE",
"392 340 OFFCURVE",
"404 340 CURVE"
);
},
{
closed = 1;
nodes = (
"239 680 LINE",
"239 635 LINE",
"393 635 LINE",
"393 680 LINE"
);
},
{
closed = 1;
nodes = (
"192 680 LINE",
"192 593 LINE",
"200 593 LINE",
"204 631 OFFCURVE",
"214 635 OFFCURVE",
"247 635 CURVE",
"247 680 LINE"
);
},
{
closed = 1;
nodes = (
"466 630 OFFCURVE",
"468 631 OFFCURVE",
"470 638 CURVE SMOOTH",
"472 645 OFFCURVE",
"476 659 OFFCURVE",
"479 670 CURVE SMOOTH",
"481 679 OFFCURVE",
"476 680 OFFCURVE",
"470 680 CURVE SMOOTH",
"454 680 OFFCURVE",
"379 680 OFFCURVE",
"365 680 CURVE",
"365 635 LINE",
"415 635 OFFCURVE",
"451 630 OFFCURVE",
"459 630 CURVE"
);
},
{
closed = 1;
nodes = (
"350 55 LINE",
"180 55 LINE",
"180 0 LINE",
"350 0 LINE"
);
},
{
closed = 1;
nodes = (
"188 55 LINE",
"155 55 OFFCURVE",
"148 59 OFFCURVE",
"153 107 CURVE",
"124 107 LINE",
"123 0 LINE",
"188 0 LINE"
);
},
{
closed = 1;
nodes = (
"422 0 OFFCURVE",
"424 1 OFFCURVE",
"426 8 CURVE SMOOTH",
"428 15 OFFCURVE",
"434 41 OFFCURVE",
"437 52 CURVE SMOOTH",
"439 61 OFFCURVE",
"432 62 OFFCURVE",
"426 62 CURVE SMOOTH",
"410 62 OFFCURVE",
"366 55 OFFCURVE",
"324 55 CURVE",
"324 0 LINE",
"348 0 OFFCURVE",
"403 0 OFFCURVE",
"415 0 CURVE"
);
}
);
};
layerId = "B0B60A8F-2DEB-4A58-A43B-60A0DADABD8F";
paths = (
{
closed = 1;
nodes = (
"176 680 OFFCURVE",
"127 680 OFFCURVE",
"115 680 CURVE",
"107 680 OFFCURVE",
"93 678 OFFCURVE",
"91 656 CURVE SMOOTH",
"81 518 OFFCURVE",
"55 246 OFFCURVE",
"34 75 CURVE SMOOTH",
"28 28 OFFCURVE",
"22 0 OFFCURVE",
"62 0 CURVE SMOOTH",
"71 0 OFFCURVE",
"87 0 OFFCURVE",
"123 0 CURVE SMOOTH",
"150 0 OFFCURVE",
"146 28 OFFCURVE",
"150 71 CURVE SMOOTH",
"164 242 OFFCURVE",
"190 516 OFFCURVE",
"208 660 CURVE SMOOTH",
"210 678 OFFCURVE",
"201 680 OFFCURVE",
"192 680 CURVE"
);
},
{
closed = 1;
nodes = (
"192 389 LINE",
"192 342 LINE",
"403 342 LINE",
"403 389 LINE"
);
},
{
closed = 1;
nodes = (
"180 432 LINE",
"165 308 LINE",
"171 308 LINE",
"174 344 OFFCURVE",
"187 342 OFFCURVE",
"220 342 CURVE",
"220 389 LINE",
"188 389 OFFCURVE",
"180 397 OFFCURVE",
"183 432 CURVE"
);
},
{
closed = 1;
nodes = (
"418 340 OFFCURVE",
"420 341 OFFCURVE",
"422 348 CURVE SMOOTH",
"424 355 OFFCURVE",
"428 371 OFFCURVE",
"431 382 CURVE SMOOTH",
"433 390 OFFCURVE",
"428 392 OFFCURVE",
"422 392 CURVE SMOOTH",
"406 392 OFFCURVE",
"358 389 OFFCURVE",
"344 389 CURVE",
"344 342 LINE",
"368 342 OFFCURVE",
"399 340 OFFCURVE",
"411 340 CURVE"
);
},
{
closed = 1;
nodes = (
"239 680 LINE",
"239 635 LINE",
"400 635 LINE",
"400 680 LINE"
);
},
{
closed = 1;
nodes = (
"192 680 LINE",
"192 593 LINE",
"200 593 LINE",
"204 631 OFFCURVE",
"214 635 OFFCURVE",
"247 635 CURVE",
"247 680 LINE"
);
},
{
closed = 1;
nodes = (
"473 630 OFFCURVE",
"475 631 OFFCURVE",
"477 638 CURVE SMOOTH",
"479 645 OFFCURVE",
"483 659 OFFCURVE",
"486 670 CURVE SMOOTH",
"488 679 OFFCURVE",
"483 680 OFFCURVE",
"477 680 CURVE SMOOTH",
"461 680 OFFCURVE",
"386 680 OFFCURVE",
"372 680 CURVE",
"372 635 LINE",
"422 635 OFFCURVE",
"458 630 OFFCURVE",
"466 630 CURVE"
);
}
);
width = 496;
}
);
unicode = 0046;
},
{
glyphname = G;
lastChange = "2021-01-28 22:20:26 +0000";
layers = (
{
background = {
paths = (
{
closed = 1;
nodes = (
"507 204 OFFCURVE",
"528 165 OFFCURVE",
"528 138 CURVE SMOOTH",
"528 101 OFFCURVE",
"421 -9 OFFCURVE",
"291 -9 CURVE SMOOTH",
"164 -9 OFFCURVE",
"35 65 OFFCURVE",
"35 234 CURVE SMOOTH",
"35 473 OFFCURVE",
"239 688 OFFCURVE",
"444 688 CURVE SMOOTH",
"574 688 OFFCURVE",
"636 592 OFFCURVE",
"636 463 CURVE SMOOTH",
"636 434 OFFCURVE",
"630 426 OFFCURVE",
"610 426 CURVE",
"537 426 LINE",
"518 426 OFFCURVE",
"516 433 OFFCURVE",
"516 443 CURVE SMOOTH",
"516 463 OFFCURVE",
"520 479 OFFCURVE",
"520 518 CURVE SMOOTH",
"520 589 OFFCURVE",
"487 630 OFFCURVE",
"428 630 CURVE SMOOTH",
"286 630 OFFCURVE",
"160 409 OFFCURVE",
"160 247 CURVE SMOOTH",
"160 103 OFFCURVE",
"262 56 OFFCURVE",
"322 56 CURVE SMOOTH",
"403 56 OFFCURVE",
"486 149 OFFCURVE",
"490 207 CURVE"
);
},
{
closed = 1;
nodes = (
"599 288 OFFCURVE",
"608 286 OFFCURVE",
"606 268 CURVE SMOOTH",
"600 215 OFFCURVE",
"599 185 OFFCURVE",
"593 117 CURVE SMOOTH",
"586 34 OFFCURVE",
"514 -19 OFFCURVE",
"490 -19 CURVE SMOOTH",
"464 -19 OFFCURVE",
"471 11 OFFCURVE",
"478 81 CURVE SMOOTH",
"485 151 OFFCURVE",
"491 214 OFFCURVE",
"495 268 CURVE SMOOTH",
"496 286 OFFCURVE",
"507 288 OFFCURVE",
"515 288 CURVE",
"527 288 OFFCURVE",
"544 288 OFFCURVE",
"590 288 CURVE"
);
},
{
closed = 1;
nodes = (
"406 278 LINE SMOOTH",
"409 287 OFFCURVE",
"413 288 OFFCURVE",
"419 288 CURVE SMOOTH",
"515 288 LINE",
"515 199 LINE",
"490 207 LINE",
"493 237 OFFCURVE",
"477 238 OFFCURVE",
"465 238 CURVE SMOOTH",
"448 238 OFFCURVE",
"413 233 OFFCURVE",
"405 233 CURVE SMOOTH",
"398 233 OFFCURVE",
"394 235 OFFCURVE",
"396 243 CURVE SMOOTH"
);
}
);
};
layerId = "555B79C6-6D98-46E7-9307-77C37975E414";
paths = (
{
closed = 1;
nodes = (
"492 204 OFFCURVE",
"538 169 OFFCURVE",
"538 142 CURVE SMOOTH",
"538 105 OFFCURVE",
"442 -9 OFFCURVE",
"288 -9 CURVE SMOOTH",
"154 -9 OFFCURVE",
"20 65 OFFCURVE",
"20 234 CURVE SMOOTH",
"20 473 OFFCURVE",
"239 688 OFFCURVE",
"444 688 CURVE SMOOTH",
"583 688 OFFCURVE",
"649 592 OFFCURVE",
"649 463 CURVE SMOOTH",
"649 434 OFFCURVE",
"643 426 OFFCURVE",
"623 426 CURVE",
"522 426 LINE",
"503 426 OFFCURVE",
"501 433 OFFCURVE",
"501 443 CURVE SMOOTH",
"501 463 OFFCURVE",
"505 479 OFFCURVE",
"505 518 CURVE SMOOTH",
"505 582 OFFCURVE",
"480 620 OFFCURVE",
"428 620 CURVE SMOOTH",
"298 620 OFFCURVE",
"175 409 OFFCURVE",
"175 247 CURVE SMOOTH",
"175 109 OFFCURVE",
"268 66 OFFCURVE",
"320 66 CURVE SMOOTH",
"403 66 OFFCURVE",
"471 149 OFFCURVE",
"475 207 CURVE"
);
},
{
closed = 1;
nodes = (
"614 288 OFFCURVE",
"623 286 OFFCURVE",
"621 268 CURVE SMOOTH",
"615 215 OFFCURVE",
"614 185 OFFCURVE",
"608 117 CURVE SMOOTH",
"601 34 OFFCURVE",
"514 -19 OFFCURVE",
"490 -19 CURVE SMOOTH",
"464 -19 OFFCURVE",
"456 11 OFFCURVE",
"463 81 CURVE SMOOTH",
"470 151 OFFCURVE",
"476 214 OFFCURVE",
"480 268 CURVE SMOOTH",
"481 286 OFFCURVE",
"492 288 OFFCURVE",
"500 288 CURVE",
"512 288 OFFCURVE",
"559 288 OFFCURVE",
"605 288 CURVE"
);
},
{
closed = 1;
nodes = (
"396 278 LINE SMOOTH",
"399 287 OFFCURVE",
"403 288 OFFCURVE",
"409 288 CURVE SMOOTH",
"515 288 LINE",
"515 199 LINE",
"475 207 LINE",
"477 227 OFFCURVE",
"462 228 OFFCURVE",
"450 228 CURVE SMOOTH",
"433 228 OFFCURVE",
"399 223 OFFCURVE",
"391 223 CURVE SMOOTH",
"384 223 OFFCURVE",
"380 225 OFFCURVE",
"382 233 CURVE SMOOTH"
);
}
);
width = 679;
},
{
background = {
paths = (
{
closed = 1;
nodes = (
"554 169 OFFCURVE",
"575 136 OFFCURVE",
"575 109 CURVE SMOOTH",
"575 74 OFFCURVE",
"453 -9 OFFCURVE",
"307 -9 CURVE SMOOTH",
"173 -9 OFFCURVE",
"30 65 OFFCURVE",
"30 234 CURVE SMOOTH",
"30 473 OFFCURVE",
"234 688 OFFCURVE",
"439 688 CURVE SMOOTH",
"569 688 OFFCURVE",
"641 592 OFFCURVE",
"641 463 CURVE SMOOTH",
"641 434 OFFCURVE",
"635 426 OFFCURVE",
"615 426 CURVE",
"526 426 LINE",
"507 426 OFFCURVE",
"505 433 OFFCURVE",
"505 443 CURVE SMOOTH",
"505 463 OFFCURVE",
"510 479 OFFCURVE",
"510 518 CURVE SMOOTH",
"510 589 OFFCURVE",
"482 630 OFFCURVE",
"423 630 CURVE SMOOTH",
"281 630 OFFCURVE",
"167 409 OFFCURVE",
"167 247 CURVE SMOOTH",
"167 103 OFFCURVE",
"263 56 OFFCURVE",
"324 56 CURVE SMOOTH",
"424 56 OFFCURVE",
"509 169 OFFCURVE",
"537 169 CURVE SMOOTH"
);
}
);
};
layerId = "B0B60A8F-2DEB-4A58-A43B-60A0DADABD8F";
paths = (
{
closed = 1;
nodes = (
"502 204 OFFCURVE",
"523 165 OFFCURVE",
"523 138 CURVE SMOOTH",
"523 101 OFFCURVE",
"416 -9 OFFCURVE",
"286 -9 CURVE SMOOTH",
"159 -9 OFFCURVE",
"30 65 OFFCURVE",
"30 234 CURVE SMOOTH",
"30 473 OFFCURVE",
"234 688 OFFCURVE",
"439 688 CURVE SMOOTH",
"569 688 OFFCURVE",
"631 592 OFFCURVE",
"631 463 CURVE SMOOTH",
"631 434 OFFCURVE",
"625 426 OFFCURVE",
"605 426 CURVE",
"532 426 LINE",
"513 426 OFFCURVE",
"511 433 OFFCURVE",
"511 443 CURVE SMOOTH",
"511 463 OFFCURVE",
"515 479 OFFCURVE",
"515 518 CURVE SMOOTH",
"515 589 OFFCURVE",
"482 630 OFFCURVE",
"423 630 CURVE SMOOTH",
"281 630 OFFCURVE",
"155 409 OFFCURVE",
"155 247 CURVE SMOOTH",
"155 103 OFFCURVE",
"257 56 OFFCURVE",
"317 56 CURVE SMOOTH",
"398 56 OFFCURVE",
"481 149 OFFCURVE",
"485 207 CURVE"
);
},
{
closed = 1;
nodes = (
"594 288 OFFCURVE",
"603 286 OFFCURVE",
"601 268 CURVE SMOOTH",
"595 215 OFFCURVE",
"594 185 OFFCURVE",
"588 117 CURVE SMOOTH",
"581 34 OFFCURVE",
"509 -19 OFFCURVE",
"485 -19 CURVE SMOOTH",
"459 -19 OFFCURVE",
"466 11 OFFCURVE",
"473 81 CURVE SMOOTH",
"480 151 OFFCURVE",
"486 214 OFFCURVE",
"490 268 CURVE SMOOTH",
"491 286 OFFCURVE",
"502 288 OFFCURVE",
"510 288 CURVE",
"522 288 OFFCURVE",
"539 288 OFFCURVE",
"585 288 CURVE"
);
},
{
closed = 1;
nodes = (
"401 278 LINE SMOOTH",
"404 287 OFFCURVE",
"408 288 OFFCURVE",
"414 288 CURVE SMOOTH",
"510 288 LINE",
"510 199 LINE",
"485 207 LINE",
"488 237 OFFCURVE",
"472 238 OFFCURVE",
"460 238 CURVE SMOOTH",
"443 238 OFFCURVE",
"408 233 OFFCURVE",
"400 233 CURVE SMOOTH",
"393 233 OFFCURVE",
"389 235 OFFCURVE",
"391 243 CURVE SMOOTH"
);
}
);
width = 671;
}
);
unicode = 0047;
},
{
glyphname = H;
lastChange = "2021-01-28 10:46:00 +0000";
layers = (
{
background = {
paths = (
{
closed = 1;
nodes = (
"191 680 OFFCURVE",
"142 680 OFFCURVE",
"130 680 CURVE",
"122 680 OFFCURVE",
"108 678 OFFCURVE",
"106 656 CURVE SMOOTH",
"96 518 OFFCURVE",
"70 246 OFFCURVE",
"49 75 CURVE SMOOTH",
"43 28 OFFCURVE",
"37 0 OFFCURVE",
"77 0 CURVE SMOOTH",
"86 0 OFFCURVE",
"102 0 OFFCURVE",
"138 0 CURVE SMOOTH",
"165 0 OFFCURVE",
"161 28 OFFCURVE",
"165 71 CURVE SMOOTH",
"179 242 OFFCURVE",
"205 516 OFFCURVE",
"223 660 CURVE SMOOTH",
"225 678 OFFCURVE",
"216 680 OFFCURVE",
"207 680 CURVE"
);
},
{
closed = 1;
nodes = (
"639 680 OFFCURVE",
"588 680 OFFCURVE",
"576 680 CURVE",
"568 680 OFFCURVE",
"559 678 OFFCURVE",
"558 660 CURVE SMOOTH",
"548 516 OFFCURVE",
"521 240 OFFCURVE",
"499 71 CURVE SMOOTH",
"493 28 OFFCURVE",
"487 0 OFFCURVE",
"514 0 CURVE SMOOTH",
"523 0 OFFCURVE",
"552 0 OFFCURVE",
"588 0 CURVE SMOOTH",
"615 0 OFFCURVE",
"612 28 OFFCURVE",
"615 71 CURVE SMOOTH",
"628 248 OFFCURVE",
"658 518 OFFCURVE",
"675 656 CURVE SMOOTH",
"678 678 OFFCURVE",
"661 680 OFFCURVE",
"651 680 CURVE"
);
},
{
closed = 1;
nodes = (
"207 342 LINE",
"526 342 LINE",
"526 395 LINE",
"207 395 LINE"
);
},
{
closed = 1;
nodes = (
"196 441 LINE",
"180 308 LINE",
"186 308 LINE",
"189 344 OFFCURVE",
"202 342 OFFCURVE",
"235 342 CURVE",
"235 395 LINE",
"203 395 OFFCURVE",
"195 404 OFFCURVE",
"199 441 CURVE"
);
},
{
closed = 1;
nodes = (
"536 408 OFFCURVE",
"531 395 OFFCURVE",
"495 395 CURVE",
"495 342 LINE",
"527 342 OFFCURVE",
"530 340 OFFCURVE",
"526 304 CURVE",
"532 304 LINE",
"543 447 LINE",
"540 447 LINE"
);
}
);
};
layerId = "555B79C6-6D98-46E7-9307-77C37975E414";
paths = (
{
closed = 1;
nodes = (
"206 680 OFFCURVE",
"127 680 OFFCURVE",
"115 680 CURVE",
"107 680 OFFCURVE",
"93 678 OFFCURVE",
"91 656 CURVE SMOOTH",
"81 518 OFFCURVE",
"55 246 OFFCURVE",
"34 75 CURVE SMOOTH",
"28 28 OFFCURVE",
"22 0 OFFCURVE",
"62 0 CURVE SMOOTH",
"71 0 OFFCURVE",
"117 0 OFFCURVE",
"153 0 CURVE SMOOTH",
"180 0 OFFCURVE",
"176 28 OFFCURVE",
"180 71 CURVE SMOOTH",
"194 242 OFFCURVE",
"220 516 OFFCURVE",
"238 660 CURVE SMOOTH",
"240 678 OFFCURVE",
"231 680 OFFCURVE",
"222 680 CURVE"
);
},
{
closed = 1;
nodes = (
"654 680 OFFCURVE",
"573 680 OFFCURVE",
"561 680 CURVE",
"553 680 OFFCURVE",
"544 678 OFFCURVE",
"543 660 CURVE SMOOTH",
"533 516 OFFCURVE",
"506 240 OFFCURVE",
"484 71 CURVE SMOOTH",
"478 28 OFFCURVE",
"472 0 OFFCURVE",
"499 0 CURVE SMOOTH",
"508 0 OFFCURVE",
"567 0 OFFCURVE",
"603 0 CURVE SMOOTH",
"630 0 OFFCURVE",
"627 28 OFFCURVE",
"630 71 CURVE SMOOTH",
"643 248 OFFCURVE",
"673 518 OFFCURVE",
"690 656 CURVE SMOOTH",
"693 678 OFFCURVE",
"676 680 OFFCURVE",
"666 680 CURVE"
);
},
{
closed = 1;
nodes = (
"222 337 LINE",
"511 337 LINE",
"511 405 LINE",
"222 405 LINE"
);
},
{
closed = 1;
nodes = (
"211 441 LINE",
"195 308 LINE",
"201 308 LINE",
"204 335 OFFCURVE",
"218 337 OFFCURVE",
"250 337 CURVE",
"250 405 LINE",
"218 405 OFFCURVE",
"210 404 OFFCURVE",
"214 441 CURVE"
);
},
{
closed = 1;
nodes = (
"521 408 OFFCURVE",
"516 405 OFFCURVE",
"480 405 CURVE",
"480 337 LINE",
"512 337 OFFCURVE",
"514 336 OFFCURVE",
"511 306 CURVE",
"517 306 LINE",
"528 447 LINE",
"525 447 LINE"
);
}
);
width = 720;
},
{
layerId = "B0B60A8F-2DEB-4A58-A43B-60A0DADABD8F";
paths = (
{
closed = 1;
nodes = (
"186 680 OFFCURVE",
"137 680 OFFCURVE",
"125 680 CURVE",
"117 680 OFFCURVE",
"103 678 OFFCURVE",
"101 656 CURVE SMOOTH",
"91 518 OFFCURVE",
"65 246 OFFCURVE",
"44 75 CURVE SMOOTH",
"38 28 OFFCURVE",
"32 0 OFFCURVE",
"72 0 CURVE SMOOTH",
"81 0 OFFCURVE",
"97 0 OFFCURVE",
"133 0 CURVE SMOOTH",
"160 0 OFFCURVE",
"156 28 OFFCURVE",
"160 71 CURVE SMOOTH",
"174 242 OFFCURVE",
"200 516 OFFCURVE",
"218 660 CURVE SMOOTH",
"220 678 OFFCURVE",
"211 680 OFFCURVE",
"202 680 CURVE"
);
},
{
closed = 1;
nodes = (
"634 680 OFFCURVE",
"583 680 OFFCURVE",
"571 680 CURVE",
"563 680 OFFCURVE",
"554 678 OFFCURVE",
"553 660 CURVE SMOOTH",
"543 516 OFFCURVE",
"516 240 OFFCURVE",
"494 71 CURVE SMOOTH",
"488 28 OFFCURVE",
"482 0 OFFCURVE",
"509 0 CURVE SMOOTH",
"518 0 OFFCURVE",
"547 0 OFFCURVE",
"583 0 CURVE SMOOTH",
"610 0 OFFCURVE",
"607 28 OFFCURVE",
"610 71 CURVE SMOOTH",
"623 248 OFFCURVE",
"653 518 OFFCURVE",
"670 656 CURVE SMOOTH",
"673 678 OFFCURVE",
"656 680 OFFCURVE",
"646 680 CURVE"
);
},
{
closed = 1;
nodes = (
"202 342 LINE",
"521 342 LINE",
"521 395 LINE",
"202 395 LINE"
);
},
{
closed = 1;
nodes = (
"191 441 LINE",
"175 308 LINE",
"181 308 LINE",
"184 344 OFFCURVE",
"197 342 OFFCURVE",
"230 342 CURVE",
"230 395 LINE",
"198 395 OFFCURVE",
"190 404 OFFCURVE",
"194 441 CURVE"
);
},
{
closed = 1;
nodes = (
"531 408 OFFCURVE",
"526 395 OFFCURVE",
"490 395 CURVE",
"490 342 LINE",
"522 342 OFFCURVE",
"525 340 OFFCURVE",
"521 304 CURVE",
"527 304 LINE",
"538 447 LINE",
"535 447 LINE"
);
}
);
width = 710;
}
);
unicode = 0048;
},
{
glyphname = I;
lastChange = "2021-01-28 19:32:00 +0000";
layers = (
{
background = {
paths = (
{
closed = 1;
nodes = (
"191 680 OFFCURVE",
"143 680 OFFCURVE",
"131 680 CURVE",
"123 680 OFFCURVE",
"114 678 OFFCURVE",
"113 660 CURVE SMOOTH",
"103 516 OFFCURVE",
"76 244 OFFCURVE",
"54 75 CURVE SMOOTH",
"48 28 OFFCURVE",
"42 0 OFFCURVE",
"82 0 CURVE SMOOTH",
"91 0 OFFCURVE",
"107 0 OFFCURVE",
"143 0 CURVE SMOOTH",
"170 0 OFFCURVE",
"167 28 OFFCURVE",
"170 71 CURVE SMOOTH",
"183 248 OFFCURVE",
"210 518 OFFCURVE",
"227 656 CURVE SMOOTH",
"230 678 OFFCURVE",
"213 680 OFFCURVE",
"203 680 CURVE"
);
}
);
};
layerId = "555B79C6-6D98-46E7-9307-77C37975E414";
paths = (
{
closed = 1;
nodes = (
"206 680 OFFCURVE",
"128 680 OFFCURVE",
"116 680 CURVE",
"108 680 OFFCURVE",
"99 678 OFFCURVE",
"98 660 CURVE SMOOTH",
"88 516 OFFCURVE",
"61 244 OFFCURVE",
"39 75 CURVE SMOOTH",
"33 28 OFFCURVE",
"27 0 OFFCURVE",
"67 0 CURVE SMOOTH",
"76 0 OFFCURVE",
"122 0 OFFCURVE",
"158 0 CURVE SMOOTH",
"185 0 OFFCURVE",
"182 28 OFFCURVE",
"185 71 CURVE SMOOTH",
"198 248 OFFCURVE",
"225 518 OFFCURVE",
"242 656 CURVE SMOOTH",
"245 678 OFFCURVE",
"228 680 OFFCURVE",
"218 680 CURVE"
);
}
);
width = 272;
},
{
layerId = "B0B60A8F-2DEB-4A58-A43B-60A0DADABD8F";
paths = (
{
closed = 1;
nodes = (
"186 680 OFFCURVE",
"138 680 OFFCURVE",
"126 680 CURVE",
"118 680 OFFCURVE",
"109 678 OFFCURVE",
"108 660 CURVE SMOOTH",
"98 516 OFFCURVE",
"71 244 OFFCURVE",
"49 75 CURVE SMOOTH",
"43 28 OFFCURVE",
"37 0 OFFCURVE",
"77 0 CURVE SMOOTH",
"86 0 OFFCURVE",
"102 0 OFFCURVE",
"138 0 CURVE SMOOTH",
"165 0 OFFCURVE",
"162 28 OFFCURVE",
"165 71 CURVE SMOOTH",
"178 248 OFFCURVE",
"205 518 OFFCURVE",
"222 656 CURVE SMOOTH",
"225 678 OFFCURVE",
"208 680 OFFCURVE",
"198 680 CURVE"
);
}
);
width = 262;
}
);
unicode = 0049;
},
{
glyphname = J;
lastChange = "2021-01-28 22:37:17 +0000";
layers = (
{
background = {
paths = (
{
closed = 1;
nodes = (
"226 680 OFFCURVE",
"174 680 OFFCURVE",
"162 680 CURVE",
"154 680 OFFCURVE",
"145 678 OFFCURVE",
"144 660 CURVE SMOOTH",
"134 516 OFFCURVE",
"107 240 OFFCURVE",
"85 71 CURVE SMOOTH",
"79 28 OFFCURVE",
"88 0 OFFCURVE",
"100 0 CURVE SMOOTH",
"109 0 OFFCURVE",
"113 0 OFFCURVE",
"149 0 CURVE SMOOTH",
"176 0 OFFCURVE",
"200 51 OFFCURVE",
"205 102 CURVE SMOOTH",
"219 248 OFFCURVE",
"245 518 OFFCURVE",
"262 656 CURVE SMOOTH",
"265 678 OFFCURVE",
"248 680 OFFCURVE",
"238 680 CURVE"
);
},
{
closed = 1;
nodes = (
"77 6 OFFCURVE",
"64 -68 OFFCURVE",
"11 -68 CURVE SMOOTH",
"-39 -68 OFFCURVE",
"-92 -43 OFFCURVE",
"-108 -43 CURVE SMOOTH",
"-112 -43 OFFCURVE",
"-116 -44 OFFCURVE",
"-121 -53 CURVE SMOOTH",
"-126 -62 OFFCURVE",
"-133 -81 OFFCURVE",
"-133 -93 CURVE SMOOTH",
"-133 -109 OFFCURVE",
"-69 -125 OFFCURVE",
"-25 -125 CURVE SMOOTH",
"101 -125 OFFCURVE",
"198 -17 OFFCURVE",
"205 102 CURVE",
"85 71 LINE"
);
}
);
};
layerId = "555B79C6-6D98-46E7-9307-77C37975E414";
paths = (
{
closed = 1;
nodes = (
"241 680 OFFCURVE",
"159 680 OFFCURVE",
"147 680 CURVE",
"139 680 OFFCURVE",
"130 678 OFFCURVE",
"129 660 CURVE SMOOTH",
"119 516 OFFCURVE",
"92 240 OFFCURVE",
"70 71 CURVE SMOOTH",
"64 28 OFFCURVE",
"73 0 OFFCURVE",
"85 0 CURVE SMOOTH",
"94 0 OFFCURVE",
"128 0 OFFCURVE",
"164 0 CURVE SMOOTH",
"191 0 OFFCURVE",
"215 51 OFFCURVE",
"220 102 CURVE SMOOTH",
"234 248 OFFCURVE",
"260 518 OFFCURVE",
"277 656 CURVE SMOOTH",
"280 678 OFFCURVE",
"263 680 OFFCURVE",
"253 680 CURVE"
);
},
{
closed = 1;
nodes = (
"61 6 OFFCURVE",
"51 -53 OFFCURVE",
"11 -53 CURVE SMOOTH",
"-39 -53 OFFCURVE",
"-102 -22 OFFCURVE",
"-118 -22 CURVE SMOOTH",
"-122 -22 OFFCURVE",
"-127 -24 OFFCURVE",
"-132 -33 CURVE SMOOTH",
"-137 -42 OFFCURVE",
"-150 -69 OFFCURVE",
"-150 -81 CURVE SMOOTH",
"-150 -103 OFFCURVE",
"-80 -125 OFFCURVE",
"-21 -125 CURVE SMOOTH",
"110 -125 OFFCURVE",
"213 -17 OFFCURVE",
"220 102 CURVE",
"70 71 LINE"
);
}
);
width = 327;
},
{
layerId = "B0B60A8F-2DEB-4A58-A43B-60A0DADABD8F";
paths = (
{
closed = 1;
nodes = (
"209 680 OFFCURVE",
"157 680 OFFCURVE",
"145 680 CURVE",
"137 680 OFFCURVE",
"128 678 OFFCURVE",
"127 660 CURVE SMOOTH",
"117 516 OFFCURVE",
"90 240 OFFCURVE",
"68 71 CURVE SMOOTH",
"62 28 OFFCURVE",
"71 0 OFFCURVE",
"83 0 CURVE SMOOTH",
"92 0 OFFCURVE",
"96 0 OFFCURVE",
"132 0 CURVE SMOOTH",
"159 0 OFFCURVE",
"183 51 OFFCURVE",
"188 102 CURVE SMOOTH",
"202 248 OFFCURVE",
"228 518 OFFCURVE",
"245 656 CURVE SMOOTH",
"248 678 OFFCURVE",
"231 680 OFFCURVE",
"221 680 CURVE"
);
},
{
closed = 1;
nodes = (
"60 6 OFFCURVE",
"47 -68 OFFCURVE",
"-6 -68 CURVE SMOOTH",
"-56 -68 OFFCURVE",
"-109 -43 OFFCURVE",
"-125 -43 CURVE SMOOTH",
"-129 -43 OFFCURVE",
"-133 -44 OFFCURVE",
"-138 -53 CURVE SMOOTH",
"-143 -62 OFFCURVE",
"-150 -81 OFFCURVE",
"-150 -93 CURVE SMOOTH",
"-150 -109 OFFCURVE",
"-86 -125 OFFCURVE",
"-42 -125 CURVE SMOOTH",
"84 -125 OFFCURVE",
"181 -17 OFFCURVE",
"188 102 CURVE",
"68 71 LINE"
);
}
);
width = 295;
}
);
unicode = 004A;
},
{
glyphname = K;
lastChange = "2021-01-28 23:10:22 +0000";
layers = (
{
background = {
paths = (
{
closed = 1;
nodes = (
"201 680 OFFCURVE",
"152 680 OFFCURVE",
"140 680 CURVE",
"132 680 OFFCURVE",
"118 678 OFFCURVE",
"116 656 CURVE SMOOTH",
"106 518 OFFCURVE",
"80 246 OFFCURVE",
"59 75 CURVE SMOOTH",
"53 28 OFFCURVE",
"47 0 OFFCURVE",
"87 0 CURVE SMOOTH",
"96 0 OFFCURVE",
"112 0 OFFCURVE",
"148 0 CURVE SMOOTH",
"175 0 OFFCURVE",
"171 28 OFFCURVE",
"175 71 CURVE SMOOTH",
"189 242 OFFCURVE",
"215 516 OFFCURVE",
"233 660 CURVE SMOOTH",
"235 678 OFFCURVE",
"226 680 OFFCURVE",
"217 680 CURVE"
);
},
{
closed = 1;
nodes = (
"216 339 OFFCURVE",
"219 337 OFFCURVE",
"228 337 CURVE SMOOTH",
"231 337 OFFCURVE",
"262 362 OFFCURVE",
"287 378 CURVE",
"287 379 OFFCURVE",
"287 382 OFFCURVE",
"287 383 CURVE",
"374 466 OFFCURVE",
"566 641 OFFCURVE",
"589 664 CURVE SMOOTH",
"598 673 OFFCURVE",
"591 680 OFFCURVE",
"584 680 CURVE",
"563 680 OFFCURVE",
"541 680 OFFCURVE",
"528 680 CURVE",
"509 680 OFFCURVE",
"501 678 OFFCURVE",
"481 654 CURVE SMOOTH",
"449 616 OFFCURVE",
"346 508 OFFCURVE",
"269 435 CURVE SMOOTH",
"251 417 OFFCURVE",
"244 414 OFFCURVE",
"234 414 CURVE SMOOTH",
"228 414 OFFCURVE",
"223 413 OFFCURVE",
"222 404 CURVE",
"217 349 LINE"
);
},
{
closed = 1;
nodes = (
"257 337 OFFCURVE",
"276 327 OFFCURVE",
"298 290 CURVE SMOOTH",
"345 211 OFFCURVE",
"415 92 OFFCURVE",
"439 51 CURVE SMOOTH",
"463 10 OFFCURVE",
"472 0 OFFCURVE",
"503 0 CURVE",
"513 0 OFFCURVE",
"560 0 OFFCURVE",
"576 0 CURVE",
"585 0 OFFCURVE",
"601 4 OFFCURVE",
"584 32 CURVE SMOOTH",
"505 160 OFFCURVE",
"473 211 OFFCURVE",
"431 277 CURVE SMOOTH",
"380 357 OFFCURVE",
"349 378 OFFCURVE",
"287 378 CURVE",
"287 383 LINE",
"228 343 LINE",
"228 337 LINE"
);
}
);
};
layerId = "555B79C6-6D98-46E7-9307-77C37975E414";
paths = (
{
closed = 1;
nodes = (
"211 680 OFFCURVE",
"132 680 OFFCURVE",
"120 680 CURVE",
"112 680 OFFCURVE",
"98 678 OFFCURVE",
"96 656 CURVE SMOOTH",
"86 518 OFFCURVE",
"60 246 OFFCURVE",
"39 75 CURVE SMOOTH",
"33 28 OFFCURVE",
"27 0 OFFCURVE",
"67 0 CURVE SMOOTH",
"76 0 OFFCURVE",
"122 0 OFFCURVE",
"158 0 CURVE SMOOTH",
"185 0 OFFCURVE",
"181 28 OFFCURVE",
"185 71 CURVE SMOOTH",
"199 242 OFFCURVE",
"225 516 OFFCURVE",
"243 660 CURVE SMOOTH",
"245 678 OFFCURVE",
"236 680 OFFCURVE",
"227 680 CURVE"
);
},
{
closed = 1;
nodes = (
"225 329 OFFCURVE",
"229 327 OFFCURVE",
"238 327 CURVE SMOOTH",
"241 327 OFFCURVE",
"279 353 OFFCURVE",
"311 378 CURVE",
"311 379 OFFCURVE",
"311 382 OFFCURVE",
"311 383 CURVE",
"396 466 OFFCURVE",
"583 636 OFFCURVE",
"611 661 CURVE SMOOTH",
"624 672 OFFCURVE",
"617 680 OFFCURVE",
"609 680 CURVE",
"588 680 OFFCURVE",
"541 680 OFFCURVE",
"528 680 CURVE",
"509 680 OFFCURVE",
"501 678 OFFCURVE",
"481 654 CURVE SMOOTH",
"449 616 OFFCURVE",
"353 512 OFFCURVE",
"278 439 CURVE SMOOTH",
"260 421 OFFCURVE",
"250 414 OFFCURVE",
"244 414 CURVE SMOOTH",
"238 414 OFFCURVE",
"233 413 OFFCURVE",
"232 404 CURVE",
"226 339 LINE"
);
},
{
closed = 1;
nodes = (
"267 327 OFFCURVE",
"271 326 OFFCURVE",
"293 290 CURVE SMOOTH",
"340 211 OFFCURVE",
"410 92 OFFCURVE",
"434 51 CURVE SMOOTH",
"458 10 OFFCURVE",
"467 0 OFFCURVE",
"498 0 CURVE",
"508 0 OFFCURVE",
"585 0 OFFCURVE",
"601 0 CURVE",
"610 0 OFFCURVE",
"626 4 OFFCURVE",
"609 32 CURVE SMOOTH",
"530 160 OFFCURVE",
"498 211 OFFCURVE",
"456 277 CURVE SMOOTH",
"405 357 OFFCURVE",
"364 378 OFFCURVE",
"311 378 CURVE",
"311 383 LINE",
"238 333 LINE",
"238 327 LINE"
);
}
);
width = 638;
},
{
layerId = "B0B60A8F-2DEB-4A58-A43B-60A0DADABD8F";
paths = (
{
closed = 1;
nodes = (
"191 680 OFFCURVE",
"142 680 OFFCURVE",
"130 680 CURVE",
"122 680 OFFCURVE",
"108 678 OFFCURVE",
"106 656 CURVE SMOOTH",
"96 518 OFFCURVE",
"70 246 OFFCURVE",
"49 75 CURVE SMOOTH",
"43 28 OFFCURVE",
"37 0 OFFCURVE",
"77 0 CURVE SMOOTH",
"86 0 OFFCURVE",
"102 0 OFFCURVE",
"138 0 CURVE SMOOTH",
"165 0 OFFCURVE",
"161 28 OFFCURVE",
"165 71 CURVE SMOOTH",
"179 242 OFFCURVE",
"205 516 OFFCURVE",
"223 660 CURVE SMOOTH",
"225 678 OFFCURVE",
"216 680 OFFCURVE",
"207 680 CURVE"
);
},
{
closed = 1;
nodes = (
"206 339 OFFCURVE",
"209 337 OFFCURVE",
"218 337 CURVE SMOOTH",
"221 337 OFFCURVE",
"252 362 OFFCURVE",
"277 378 CURVE",
"277 379 OFFCURVE",
"277 382 OFFCURVE",
"277 383 CURVE",
"364 466 OFFCURVE",
"556 641 OFFCURVE",
"579 664 CURVE SMOOTH",
"588 673 OFFCURVE",
"581 680 OFFCURVE",
"574 680 CURVE",
"553 680 OFFCURVE",
"531 680 OFFCURVE",
"518 680 CURVE",
"499 680 OFFCURVE",
"491 678 OFFCURVE",
"471 654 CURVE SMOOTH",
"439 616 OFFCURVE",
"336 508 OFFCURVE",
"259 435 CURVE SMOOTH",
"241 417 OFFCURVE",
"234 414 OFFCURVE",
"224 414 CURVE SMOOTH",
"218 414 OFFCURVE",
"213 413 OFFCURVE",
"212 404 CURVE",
"207 349 LINE"
);
},
{
closed = 1;
nodes = (
"247 337 OFFCURVE",
"266 327 OFFCURVE",
"288 290 CURVE SMOOTH",
"335 211 OFFCURVE",
"405 92 OFFCURVE",
"429 51 CURVE SMOOTH",
"453 10 OFFCURVE",
"462 0 OFFCURVE",
"493 0 CURVE",
"503 0 OFFCURVE",
"550 0 OFFCURVE",
"566 0 CURVE",
"575 0 OFFCURVE",
"591 4 OFFCURVE",
"574 32 CURVE SMOOTH",
"495 160 OFFCURVE",
"463 211 OFFCURVE",
"421 277 CURVE SMOOTH",
"370 357 OFFCURVE",
"339 378 OFFCURVE",
"277 378 CURVE",
"277 383 LINE",
"218 343 LINE",
"218 337 LINE"
);
}
);
width = 613;
}
);
unicode = 004B;
},
{
glyphname = L;
lastChange = "2021-01-28 22:28:07 +0000";
layers = (
{
background = {
paths = (
{
closed = 1;
nodes = (
"186 680 OFFCURVE",
"137 680 OFFCURVE",
"125 680 CURVE",
"117 680 OFFCURVE",
"103 678 OFFCURVE",
"101 656 CURVE SMOOTH",
"91 518 OFFCURVE",
"65 246 OFFCURVE",
"44 75 CURVE SMOOTH",
"38 28 OFFCURVE",
"32 0 OFFCURVE",
"72 0 CURVE SMOOTH",
"81 0 OFFCURVE",
"97 0 OFFCURVE",
"133 0 CURVE SMOOTH",
"160 0 OFFCURVE",
"156 28 OFFCURVE",
"160 71 CURVE SMOOTH",
"174 242 OFFCURVE",
"200 516 OFFCURVE",
"218 660 CURVE SMOOTH",
"220 678 OFFCURVE",
"211 680 OFFCURVE",
"202 680 CURVE"
);
},
{
closed = 1;
nodes = (
"370 60 LINE",
"190 60 LINE",
"190 0 LINE",
"370 0 LINE"
);
},
{
closed = 1;
nodes = (
"198 60 LINE",
"165 60 OFFCURVE",
"158 59 OFFCURVE",
"163 107 CURVE",
"134 107 LINE",
"133 0 LINE",
"198 0 LINE"
);
},
{
closed = 1;
nodes = (
"442 0 OFFCURVE",
"444 1 OFFCURVE",
"446 8 CURVE SMOOTH",
"448 15 OFFCURVE",
"456 46 OFFCURVE",
"459 57 CURVE SMOOTH",
"461 66 OFFCURVE",
"454 67 OFFCURVE",
"448 67 CURVE SMOOTH",
"432 67 OFFCURVE",
"386 60 OFFCURVE",
"344 60 CURVE",
"344 0 LINE",
"368 0 OFFCURVE",
"423 0 OFFCURVE",
"435 0 CURVE"
);
}
);
};
layerId = "555B79C6-6D98-46E7-9307-77C37975E414";
paths = (
{
closed = 1;
nodes = (
"196 680 OFFCURVE",
"117 680 OFFCURVE",
"105 680 CURVE",
"97 680 OFFCURVE",
"83 678 OFFCURVE",
"81 656 CURVE SMOOTH",
"71 518 OFFCURVE",
"45 246 OFFCURVE",
"24 75 CURVE SMOOTH",
"18 28 OFFCURVE",
"12 0 OFFCURVE",
"52 0 CURVE SMOOTH",
"61 0 OFFCURVE",
"107 0 OFFCURVE",
"143 0 CURVE SMOOTH",
"170 0 OFFCURVE",
"166 28 OFFCURVE",
"170 71 CURVE SMOOTH",
"184 242 OFFCURVE",
"210 516 OFFCURVE",
"228 660 CURVE SMOOTH",
"230 678 OFFCURVE",
"221 680 OFFCURVE",
"212 680 CURVE"
);
},
{
closed = 1;
nodes = (
"385 65 LINE",
"200 65 LINE",
"200 0 LINE",
"385 0 LINE"
);
},
{
closed = 1;
nodes = (
"208 65 LINE",
"175 65 OFFCURVE",
"169 71 OFFCURVE",
"174 119 CURVE",
"144 119 LINE",
"143 0 LINE",
"208 0 LINE"
);
},
{
closed = 1;
nodes = (
"457 0 OFFCURVE",
"459 1 OFFCURVE",
"461 8 CURVE SMOOTH",
"463 15 OFFCURVE",
"473 56 OFFCURVE",
"476 67 CURVE SMOOTH",
"478 76 OFFCURVE",
"471 77 OFFCURVE",
"465 77 CURVE SMOOTH",
"449 77 OFFCURVE",
"392 65 OFFCURVE",
"346 65 CURVE",
"346 0 LINE",
"370 0 OFFCURVE",
"438 0 OFFCURVE",
"450 0 CURVE"
);
}
);
width = 506;
},
{
background = {
paths = (
{
closed = 1;
nodes = (
"176 680 OFFCURVE",
"126 680 OFFCURVE",
"114 680 CURVE",
"106 680 OFFCURVE",
"92 678 OFFCURVE",
"90 656 CURVE SMOOTH",
"80 518 OFFCURVE",
"54 246 OFFCURVE",
"33 75 CURVE SMOOTH",
"27 28 OFFCURVE",
"21 0 OFFCURVE",
"61 0 CURVE SMOOTH",
"70 0 OFFCURVE",
"87 0 OFFCURVE",
"123 0 CURVE SMOOTH",
"150 0 OFFCURVE",
"146 28 OFFCURVE",
"150 71 CURVE SMOOTH",
"164 242 OFFCURVE",
"190 516 OFFCURVE",
"208 660 CURVE SMOOTH",
"210 678 OFFCURVE",
"201 680 OFFCURVE",
"192 680 CURVE"
);
},
{
closed = 1;
nodes = (
"192 389 LINE",
"192 342 LINE",
"396 342 LINE",
"396 389 LINE"
);
},
{
closed = 1;
nodes = (
"180 432 LINE",
"165 308 LINE",
"171 308 LINE",
"174 344 OFFCURVE",
"187 342 OFFCURVE",
"220 342 CURVE",
"220 389 LINE",
"188 389 OFFCURVE",
"180 397 OFFCURVE",
"183 432 CURVE"
);
},
{
closed = 1;
nodes = (
"411 340 OFFCURVE",
"413 341 OFFCURVE",
"415 348 CURVE SMOOTH",
"417 355 OFFCURVE",
"421 371 OFFCURVE",
"424 382 CURVE SMOOTH",
"426 390 OFFCURVE",
"421 392 OFFCURVE",
"415 392 CURVE SMOOTH",
"399 392 OFFCURVE",
"351 389 OFFCURVE",
"337 389 CURVE",
"337 342 LINE",
"361 342 OFFCURVE",
"392 340 OFFCURVE",
"404 340 CURVE"
);
},
{
closed = 1;
nodes = (
"239 680 LINE",
"239 635 LINE",
"393 635 LINE",
"393 680 LINE"
);
},
{
closed = 1;
nodes = (
"192 680 LINE",
"192 593 LINE",
"200 593 LINE",
"204 631 OFFCURVE",
"214 635 OFFCURVE",
"247 635 CURVE",
"247 680 LINE"
);
},
{
closed = 1;
nodes = (
"466 630 OFFCURVE",
"468 631 OFFCURVE",
"470 638 CURVE SMOOTH",
"472 645 OFFCURVE",
"476 659 OFFCURVE",
"479 670 CURVE SMOOTH",
"481 679 OFFCURVE",
"476 680 OFFCURVE",
"470 680 CURVE SMOOTH",
"454 680 OFFCURVE",
"379 680 OFFCURVE",
"365 680 CURVE",
"365 635 LINE",
"415 635 OFFCURVE",
"451 630 OFFCURVE",
"459 630 CURVE"
);
},
{
closed = 1;
nodes = (
"350 55 LINE",
"180 55 LINE",
"180 0 LINE",
"350 0 LINE"
);
},
{
closed = 1;
nodes = (
"188 55 LINE",
"155 55 OFFCURVE",
"148 59 OFFCURVE",
"153 107 CURVE",
"124 107 LINE",
"123 0 LINE",
"188 0 LINE"
);
},
{
closed = 1;
nodes = (
"422 0 OFFCURVE",
"424 1 OFFCURVE",
"426 8 CURVE SMOOTH",
"428 15 OFFCURVE",
"434 41 OFFCURVE",
"437 52 CURVE SMOOTH",
"439 61 OFFCURVE",
"432 62 OFFCURVE",
"426 62 CURVE SMOOTH",
"410 62 OFFCURVE",
"366 55 OFFCURVE",
"324 55 CURVE",
"324 0 LINE",
"348 0 OFFCURVE",
"403 0 OFFCURVE",
"415 0 CURVE"
);
}
);
};
layerId = "B0B60A8F-2DEB-4A58-A43B-60A0DADABD8F";
paths = (
{
closed = 1;
nodes = (
"176 680 OFFCURVE",
"127 680 OFFCURVE",
"115 680 CURVE",
"107 680 OFFCURVE",
"93 678 OFFCURVE",
"91 656 CURVE SMOOTH",
"81 518 OFFCURVE",
"55 246 OFFCURVE",
"34 75 CURVE SMOOTH",
"28 28 OFFCURVE",
"22 0 OFFCURVE",
"62 0 CURVE SMOOTH",
"71 0 OFFCURVE",
"87 0 OFFCURVE",
"123 0 CURVE SMOOTH",
"150 0 OFFCURVE",
"146 28 OFFCURVE",
"150 71 CURVE SMOOTH",
"164 242 OFFCURVE",
"190 516 OFFCURVE",
"208 660 CURVE SMOOTH",
"210 678 OFFCURVE",
"201 680 OFFCURVE",
"192 680 CURVE"
);
},
{
closed = 1;
nodes = (
"360 60 LINE",
"180 60 LINE",
"180 0 LINE",
"360 0 LINE"
);
},
{
closed = 1;
nodes = (
"188 60 LINE",
"155 60 OFFCURVE",
"148 59 OFFCURVE",
"153 107 CURVE",
"124 107 LINE",
"123 0 LINE",
"188 0 LINE"
);
},
{
closed = 1;
nodes = (
"432 0 OFFCURVE",
"434 1 OFFCURVE",
"436 8 CURVE SMOOTH",
"438 15 OFFCURVE",
"446 46 OFFCURVE",
"449 57 CURVE SMOOTH",
"451 66 OFFCURVE",
"444 67 OFFCURVE",
"438 67 CURVE SMOOTH",
"422 67 OFFCURVE",
"376 60 OFFCURVE",
"334 60 CURVE",
"334 0 LINE",
"358 0 OFFCURVE",
"413 0 OFFCURVE",
"425 0 CURVE"
);
}
);
width = 489;
}
);
unicode = 004C;
},
{
glyphname = M;
lastChange = "2021-02-21 16:53:10 +0000";
layers = (
{
background = {
paths = (
{
closed = 1;
nodes = (
"134 680 OFFCURVE",
"121 680 OFFCURVE",
"109 680 CURVE",
"101 680 OFFCURVE",
"87 678 OFFCURVE",
"85 656 CURVE SMOOTH",
"75 518 OFFCURVE",
"49 246 OFFCURVE",
"28 75 CURVE SMOOTH",
"22 28 OFFCURVE",
"15 0 OFFCURVE",
"50 0 CURVE SMOOTH",
"62 0 OFFCURVE",
"73 0 OFFCURVE",
"81 0 CURVE SMOOTH",
"108 0 OFFCURVE",
"104 28 OFFCURVE",
"108 71 CURVE SMOOTH",
"122 242 OFFCURVE",
"148 516 OFFCURVE",
"166 660 CURVE SMOOTH",
"168 678 OFFCURVE",
"159 680 OFFCURVE",
"150 680 CURVE"
);
},
{
closed = 1;
nodes = (
"376 136 LINE",
"376 199 OFFCURVE",
"252 516 OFFCURVE",
"211 648 CURVE SMOOTH",
"202 676 OFFCURVE",
"173 680 OFFCURVE",
"150 680 CURVE",
"148 500 LINE",
"157 500 LINE",
"157 423 OFFCURVE",
"241 190 OFFCURVE",
"294 40 CURVE SMOOTH",
"306 7 OFFCURVE",
"317 0 OFFCURVE",
"340 0 CURVE",
"389 136 LINE"
);
},
{
closed = 1;
nodes = (
"720 680 OFFCURVE",
"669 680 OFFCURVE",
"657 680 CURVE",
"649 680 OFFCURVE",
"640 678 OFFCURVE",
"639 660 CURVE SMOOTH",
"629 516 OFFCURVE",
"602 240 OFFCURVE",
"580 71 CURVE SMOOTH",
"574 28 OFFCURVE",
"568 0 OFFCURVE",
"595 0 CURVE SMOOTH",
"604 0 OFFCURVE",
"633 0 OFFCURVE",
"669 0 CURVE SMOOTH",
"696 0 OFFCURVE",
"693 28 OFFCURVE",
"696 71 CURVE SMOOTH",
"709 248 OFFCURVE",
"739 518 OFFCURVE",
"756 656 CURVE SMOOTH",
"759 678 OFFCURVE",
"742 680 OFFCURVE",
"732 680 CURVE"
);
},
{
closed = 1;
nodes = (
"355 0 OFFCURVE",
"356 0 OFFCURVE",
"366 0 CURVE SMOOTH",
"388 0 OFFCURVE",
"396 5 OFFCURVE",
"411 38 CURVE SMOOTH",
"445 114 OFFCURVE",
"616 461 OFFCURVE",
"617 500 CURVE",
"626 500 LINE",
"629 518 OFFCURVE",
"657 659 OFFCURVE",
"657 680 CURVE",
"638 680 OFFCURVE",
"628 675 OFFCURVE",
"599 607 CURVE SMOOTH",
"536 458 OFFCURVE",
"389 179 OFFCURVE",
"389 136 CURVE",
"340 0 LINE"
);
}
);
};
layerId = "555B79C6-6D98-46E7-9307-77C37975E414";
paths = (
{
closed = 1;
nodes = (
"141 680 OFFCURVE",
"113 680 OFFCURVE",
"101 680 CURVE",
"93 680 OFFCURVE",
"79 678 OFFCURVE",
"77 656 CURVE SMOOTH",
"67 518 OFFCURVE",
"41 246 OFFCURVE",
"20 75 CURVE SMOOTH",
"14 28 OFFCURVE",
"7 0 OFFCURVE",
"42 0 CURVE SMOOTH",
"54 0 OFFCURVE",
"80 0 OFFCURVE",
"88 0 CURVE SMOOTH",
"115 0 OFFCURVE",
"111 28 OFFCURVE",
"115 71 CURVE SMOOTH",
"129 242 OFFCURVE",
"155 516 OFFCURVE",
"173 660 CURVE SMOOTH",
"175 678 OFFCURVE",
"162 680 OFFCURVE",
"150 680 CURVE"
);
},
{
closed = 1;
nodes = (
"379 180 LINE",
"379 246 OFFCURVE",
"279 502 OFFCURVE",
"237 640 CURVE SMOOTH",
"227 672 OFFCURVE",
"206 680 OFFCURVE",
"150 680 CURVE",
"151 465 LINE",
"164 465 LINE",
"164 411 OFFCURVE",
"232 190 OFFCURVE",
"278 40 CURVE SMOOTH",
"288 7 OFFCURVE",
"301 0 OFFCURVE",
"324 0 CURVE",
"392 180 LINE"
);
},
{
closed = 1;
nodes = (
"736 680 OFFCURVE",
"655 680 OFFCURVE",
"643 680 CURVE",
"635 680 OFFCURVE",
"626 678 OFFCURVE",
"625 660 CURVE SMOOTH",
"615 511 OFFCURVE",
"588 240 OFFCURVE",
"566 71 CURVE SMOOTH",
"560 28 OFFCURVE",
"554 0 OFFCURVE",
"581 0 CURVE SMOOTH",
"590 0 OFFCURVE",
"649 0 OFFCURVE",
"685 0 CURVE SMOOTH",
"712 0 OFFCURVE",
"709 28 OFFCURVE",
"712 71 CURVE SMOOTH",
"725 248 OFFCURVE",
"755 518 OFFCURVE",
"772 656 CURVE SMOOTH",
"775 678 OFFCURVE",
"758 680 OFFCURVE",
"748 680 CURVE"
);
},
{
closed = 1;
nodes = (
"339 0 OFFCURVE",
"348 0 OFFCURVE",
"358 0 CURVE SMOOTH",
"380 0 OFFCURVE",
"392 5 OFFCURVE",
"407 38 CURVE SMOOTH",
"441 114 OFFCURVE",
"596 434 OFFCURVE",
"597 465 CURVE",
"609 465 LINE",
"612 483 OFFCURVE",
"643 659 OFFCURVE",
"643 680 CURVE",
"621 680 OFFCURVE",
"609 675 OFFCURVE",
"580 607 CURVE SMOOTH",
"517 458 OFFCURVE",
"392 223 OFFCURVE",
"392 180 CURVE",
"324 0 LINE"
);
}
);
width = 787;
},
{
layerId = "B0B60A8F-2DEB-4A58-A43B-60A0DADABD8F";
paths = (
{
closed = 1;
nodes = (
"136 680 OFFCURVE",
"123 680 OFFCURVE",
"111 680 CURVE",
"103 680 OFFCURVE",
"89 678 OFFCURVE",
"87 656 CURVE SMOOTH",
"77 518 OFFCURVE",
"51 246 OFFCURVE",
"30 75 CURVE SMOOTH",
"24 28 OFFCURVE",
"17 0 OFFCURVE",
"52 0 CURVE SMOOTH",
"64 0 OFFCURVE",
"75 0 OFFCURVE",
"83 0 CURVE SMOOTH",
"110 0 OFFCURVE",
"106 28 OFFCURVE",
"110 71 CURVE SMOOTH",
"124 242 OFFCURVE",
"150 516 OFFCURVE",
"168 660 CURVE SMOOTH",
"170 678 OFFCURVE",
"161 680 OFFCURVE",
"152 680 CURVE"
);
},
{
closed = 1;
nodes = (
"378 136 LINE",
"378 199 OFFCURVE",
"254 516 OFFCURVE",
"213 648 CURVE SMOOTH",
"204 676 OFFCURVE",
"175 680 OFFCURVE",
"152 680 CURVE",
"150 500 LINE",
"159 500 LINE",
"159 423 OFFCURVE",
"243 190 OFFCURVE",
"296 40 CURVE SMOOTH",
"308 7 OFFCURVE",
"319 0 OFFCURVE",
"342 0 CURVE",
"391 136 LINE"
);
},
{
closed = 1;
nodes = (
"722 680 OFFCURVE",
"671 680 OFFCURVE",
"659 680 CURVE",
"651 680 OFFCURVE",
"642 678 OFFCURVE",
"641 660 CURVE SMOOTH",
"631 516 OFFCURVE",
"604 240 OFFCURVE",
"582 71 CURVE SMOOTH",
"576 28 OFFCURVE",
"570 0 OFFCURVE",
"597 0 CURVE SMOOTH",
"606 0 OFFCURVE",
"635 0 OFFCURVE",
"671 0 CURVE SMOOTH",
"698 0 OFFCURVE",
"695 28 OFFCURVE",
"698 71 CURVE SMOOTH",
"711 248 OFFCURVE",
"741 518 OFFCURVE",
"758 656 CURVE SMOOTH",
"761 678 OFFCURVE",
"744 680 OFFCURVE",
"734 680 CURVE"
);
},
{
closed = 1;
nodes = (
"357 0 OFFCURVE",
"358 0 OFFCURVE",
"368 0 CURVE SMOOTH",
"390 0 OFFCURVE",
"398 5 OFFCURVE",
"413 38 CURVE SMOOTH",
"447 114 OFFCURVE",
"618 461 OFFCURVE",
"619 500 CURVE",
"628 500 LINE",
"631 518 OFFCURVE",
"659 659 OFFCURVE",
"659 680 CURVE",
"640 680 OFFCURVE",
"630 675 OFFCURVE",
"601 607 CURVE SMOOTH",
"538 458 OFFCURVE",
"391 179 OFFCURVE",
"391 136 CURVE",
"342 0 LINE"
);
}
);
width = 783;
}
);
unicode = 004D;
},
{
glyphname = N;
lastChange = "2021-01-28 20:40:19 +0000";
layers = (
{
background = {
paths = (
{
closed = 1;
nodes = (
"141 680 OFFCURVE",
"128 680 OFFCURVE",
"116 680 CURVE",
"108 680 OFFCURVE",
"94 678 OFFCURVE",
"92 656 CURVE SMOOTH",
"82 518 OFFCURVE",
"56 246 OFFCURVE",
"35 75 CURVE SMOOTH",
"29 28 OFFCURVE",
"22 0 OFFCURVE",
"57 0 CURVE SMOOTH",
"69 0 OFFCURVE",
"80 0 OFFCURVE",
"88 0 CURVE SMOOTH",
"115 0 OFFCURVE",
"111 28 OFFCURVE",
"115 71 CURVE SMOOTH",
"129 242 OFFCURVE",
"155 516 OFFCURVE",
"173 660 CURVE SMOOTH",
"175 678 OFFCURVE",
"166 680 OFFCURVE",
"157 680 CURVE"
);
},
{
closed = 1;
nodes = (
"607 680 OFFCURVE",
"595 680 OFFCURVE",
"583 680 CURVE",
"575 680 OFFCURVE",
"566 678 OFFCURVE",
"565 660 CURVE SMOOTH",
"555 516 OFFCURVE",
"528 240 OFFCURVE",
"506 71 CURVE SMOOTH",
"500 28 OFFCURVE",
"495 0 OFFCURVE",
"521 0 CURVE SMOOTH",
"530 0 OFFCURVE",
"533 0 OFFCURVE",
"559 0 CURVE SMOOTH",
"586 0 OFFCURVE",
"583 28 OFFCURVE",
"586 71 CURVE SMOOTH",
"599 248 OFFCURVE",
"626 518 OFFCURVE",
"643 656 CURVE SMOOTH",
"646 678 OFFCURVE",
"629 680 OFFCURVE",
"619 680 CURVE"
);
},
{
closed = 1;
nodes = (
"508 145 LINE",
"508 200 OFFCURVE",
"265 516 OFFCURVE",
"195 648 CURVE SMOOTH",
"180 676 OFFCURVE",
"173 680 OFFCURVE",
"157 680 CURVE",
"155 500 LINE",
"164 500 LINE",
"164 446 OFFCURVE",
"362 180 OFFCURVE",
"439 58 CURVE SMOOTH",
"471 7 OFFCURVE",
"488 0 OFFCURVE",
"521 0 CURVE",
"521 145 LINE"
);
}
);
};
layerId = "555B79C6-6D98-46E7-9307-77C37975E414";
paths = (
{
closed = 1;
nodes = (
"141 680 OFFCURVE",
"113 680 OFFCURVE",
"101 680 CURVE",
"93 680 OFFCURVE",
"79 678 OFFCURVE",
"77 656 CURVE SMOOTH",
"67 518 OFFCURVE",
"41 246 OFFCURVE",
"20 75 CURVE SMOOTH",
"14 28 OFFCURVE",
"7 0 OFFCURVE",
"42 0 CURVE SMOOTH",
"54 0 OFFCURVE",
"80 0 OFFCURVE",
"88 0 CURVE SMOOTH",
"115 0 OFFCURVE",
"111 28 OFFCURVE",
"115 71 CURVE SMOOTH",
"129 242 OFFCURVE",
"155 516 OFFCURVE",
"173 660 CURVE SMOOTH",
"175 678 OFFCURVE",
"162 680 OFFCURVE",
"150 680 CURVE"
);
},
{
closed = 1;
nodes = (
"622 680 OFFCURVE",
"595 680 OFFCURVE",
"583 680 CURVE",
"575 680 OFFCURVE",
"566 678 OFFCURVE",
"565 660 CURVE SMOOTH",
"555 516 OFFCURVE",
"528 240 OFFCURVE",
"506 71 CURVE SMOOTH",
"500 28 OFFCURVE",
"499 0 OFFCURVE",
"521 0 CURVE SMOOTH",
"530 0 OFFCURVE",
"548 0 OFFCURVE",
"574 0 CURVE SMOOTH",
"601 0 OFFCURVE",
"598 28 OFFCURVE",
"601 71 CURVE SMOOTH",
"614 248 OFFCURVE",
"641 518 OFFCURVE",
"658 656 CURVE SMOOTH",
"661 678 OFFCURVE",
"644 680 OFFCURVE",
"634 680 CURVE"
);
},
{
closed = 1;
nodes = (
"508 180 LINE",
"508 235 OFFCURVE",
"272 516 OFFCURVE",
"195 648 CURVE SMOOTH",
"179 676 OFFCURVE",
"173 680 OFFCURVE",
"150 680 CURVE",
"150 465 LINE",
"164 465 LINE",
"164 411 OFFCURVE",
"358 180 OFFCURVE",
"439 58 CURVE SMOOTH",
"473 7 OFFCURVE",
"494 0 OFFCURVE",
"521 0 CURVE",
"521 180 LINE"
);
}
);
width = 673;
},
{
background = {
paths = (
{
closed = 1;
nodes = (
"181 680 OFFCURVE",
"131 680 OFFCURVE",
"119 680 CURVE",
"111 680 OFFCURVE",
"97 678 OFFCURVE",
"95 656 CURVE SMOOTH",
"85 518 OFFCURVE",
"59 246 OFFCURVE",
"38 75 CURVE SMOOTH",
"32 28 OFFCURVE",
"26 0 OFFCURVE",
"66 0 CURVE SMOOTH",
"75 0 OFFCURVE",
"92 0 OFFCURVE",
"128 0 CURVE SMOOTH",
"155 0 OFFCURVE",
"151 28 OFFCURVE",
"155 71 CURVE SMOOTH",
"169 242 OFFCURVE",
"195 516 OFFCURVE",
"213 660 CURVE SMOOTH",
"215 678 OFFCURVE",
"206 680 OFFCURVE",
"197 680 CURVE"
);
},
{
closed = 1;
nodes = (
"628 680 OFFCURVE",
"578 680 OFFCURVE",
"566 680 CURVE",
"558 680 OFFCURVE",
"549 678 OFFCURVE",
"548 660 CURVE SMOOTH",
"538 516 OFFCURVE",
"511 240 OFFCURVE",
"489 71 CURVE SMOOTH",
"483 28 OFFCURVE",
"477 0 OFFCURVE",
"504 0 CURVE SMOOTH",
"513 0 OFFCURVE",
"544 0 OFFCURVE",
"580 0 CURVE SMOOTH",
"607 0 OFFCURVE",
"604 28 OFFCURVE",
"607 71 CURVE SMOOTH",
"620 248 OFFCURVE",
"647 518 OFFCURVE",
"664 656 CURVE SMOOTH",
"667 678 OFFCURVE",
"650 680 OFFCURVE",
"640 680 CURVE"
);
},
{
closed = 1;
nodes = (
"197 342 LINE",
"516 342 LINE",
"516 395 LINE",
"197 395 LINE"
);
},
{
closed = 1;
nodes = (
"186 441 LINE",
"170 308 LINE",
"176 308 LINE",
"179 344 OFFCURVE",
"192 342 OFFCURVE",
"225 342 CURVE",
"225 395 LINE",
"193 395 OFFCURVE",
"185 404 OFFCURVE",
"189 441 CURVE"
);
},
{
closed = 1;
nodes = (
"526 408 OFFCURVE",
"521 395 OFFCURVE",
"485 395 CURVE",
"485 342 LINE",
"517 342 OFFCURVE",
"520 340 OFFCURVE",
"516 304 CURVE",
"522 304 LINE",
"533 447 LINE",
"530 447 LINE"
);
}
);
};
layerId = "B0B60A8F-2DEB-4A58-A43B-60A0DADABD8F";
paths = (
{
closed = 1;
nodes = (
"136 680 OFFCURVE",
"123 680 OFFCURVE",
"111 680 CURVE",
"103 680 OFFCURVE",
"89 678 OFFCURVE",
"87 656 CURVE SMOOTH",
"77 518 OFFCURVE",
"51 246 OFFCURVE",
"30 75 CURVE SMOOTH",
"24 28 OFFCURVE",
"17 0 OFFCURVE",
"52 0 CURVE SMOOTH",
"64 0 OFFCURVE",
"75 0 OFFCURVE",
"83 0 CURVE SMOOTH",
"110 0 OFFCURVE",
"106 28 OFFCURVE",
"110 71 CURVE SMOOTH",
"124 242 OFFCURVE",
"150 516 OFFCURVE",
"168 660 CURVE SMOOTH",
"170 678 OFFCURVE",
"161 680 OFFCURVE",
"152 680 CURVE"
);
},
{
closed = 1;
nodes = (
"602 680 OFFCURVE",
"590 680 OFFCURVE",
"578 680 CURVE",
"570 680 OFFCURVE",
"561 678 OFFCURVE",
"560 660 CURVE SMOOTH",
"550 516 OFFCURVE",
"523 240 OFFCURVE",
"501 71 CURVE SMOOTH",
"495 28 OFFCURVE",
"490 0 OFFCURVE",
"516 0 CURVE SMOOTH",
"525 0 OFFCURVE",
"528 0 OFFCURVE",
"554 0 CURVE SMOOTH",
"581 0 OFFCURVE",
"578 28 OFFCURVE",
"581 71 CURVE SMOOTH",
"594 248 OFFCURVE",
"621 518 OFFCURVE",
"638 656 CURVE SMOOTH",
"641 678 OFFCURVE",
"624 680 OFFCURVE",
"614 680 CURVE"
);
},
{
closed = 1;
nodes = (
"503 145 LINE",
"503 200 OFFCURVE",
"260 516 OFFCURVE",
"190 648 CURVE SMOOTH",
"175 676 OFFCURVE",
"168 680 OFFCURVE",
"152 680 CURVE",
"150 500 LINE",
"159 500 LINE",
"159 446 OFFCURVE",
"357 180 OFFCURVE",
"434 58 CURVE SMOOTH",
"466 7 OFFCURVE",
"483 0 OFFCURVE",
"516 0 CURVE",
"516 145 LINE"
);
}
);
width = 663;
}
);
unicode = 004E;
},
{
glyphname = O;
lastChange = "2021-01-28 19:36:41 +0000";
layers = (
{
background = {
paths = (
{
closed = 1;
nodes = (
"706 206 OFFCURVE",
"546 -9 OFFCURVE",
"322 -9 CURVE SMOOTH",
"175 -9 OFFCURVE",
"35 72 OFFCURVE",
"35 243 CURVE SMOOTH",
"35 473 OFFCURVE",
"195 688 OFFCURVE",
"419 688 CURVE SMOOTH",
"566 688 OFFCURVE",
"706 607 OFFCURVE",
"706 436 CURVE SMOOTH"
);
},
{
closed = 1;
nodes = (
"503 51 OFFCURVE",
"586 283 OFFCURVE",
"586 418 CURVE SMOOTH",
"586 572 OFFCURVE",
"465 623 OFFCURVE",
"378 623 CURVE SMOOTH",
"238 623 OFFCURVE",
"155 396 OFFCURVE",
"155 261 CURVE SMOOTH",
"155 107 OFFCURVE",
"271 51 OFFCURVE",
"363 51 CURVE SMOOTH"
);
}
);
};
layerId = "555B79C6-6D98-46E7-9307-77C37975E414";
paths = (
{
closed = 1;
nodes = (
"721 191 OFFCURVE",
"556 -9 OFFCURVE",
"322 -9 CURVE SMOOTH",
"165 -9 OFFCURVE",
"20 72 OFFCURVE",
"20 243 CURVE SMOOTH",
"20 473 OFFCURVE",
"185 688 OFFCURVE",
"419 688 CURVE SMOOTH",
"576 688 OFFCURVE",
"721 607 OFFCURVE",
"721 436 CURVE SMOOTH"
);
},
{
closed = 1;
nodes = (
"503 61 OFFCURVE",
"571 283 OFFCURVE",
"571 418 CURVE SMOOTH",
"571 572 OFFCURVE",
"465 618 OFFCURVE",
"378 618 CURVE SMOOTH",
"238 618 OFFCURVE",
"170 396 OFFCURVE",
"170 261 CURVE SMOOTH",
"170 107 OFFCURVE",
"276 61 OFFCURVE",
"356 61 CURVE SMOOTH"
);
}
);
width = 741;
},
{
background = {
paths = (
{
closed = 1;
nodes = (
"343 -9 OFFCURVE",
"195 -6 CURVE SMOOTH",
"87 -5 OFFCURVE",
"31 58 OFFCURVE",
"31 174 CURVE SMOOTH",
"31 338 OFFCURVE",
"142 492 OFFCURVE",
"302 492 CURVE SMOOTH",
"419 492 OFFCURVE",
"463 403 OFFCURVE",
"459 287 CURVE SMOOTH",
"453 136 OFFCURVE"
);
},
{
closed = 1;
nodes = (
"354 223 OFFCURVE",
"354 320 CURVE SMOOTH",
"354 385 OFFCURVE",
"311 431 OFFCURVE",
"236 431 CURVE SMOOTH",
"172 431 OFFCURVE",
"138 274 OFFCURVE",
"138 173 CURVE SMOOTH",
"138 91 OFFCURVE",
"210 62 OFFCURVE",
"261 62 CURVE SMOOTH",
"328 62 OFFCURVE"
);
},
{
closed = 1;
nodes = (
"521 -13 OFFCURVE",
"314 -9 CURVE SMOOTH",
"163 -7 OFFCURVE",
"25 81 OFFCURVE",
"25 243 CURVE SMOOTH",
"25 473 OFFCURVE",
"190 688 OFFCURVE",
"414 688 CURVE SMOOTH",
"578 688 OFFCURVE",
"699 564 OFFCURVE",
"694 401 CURVE SMOOTH",
"685 190 OFFCURVE"
);
},
{
closed = 1;
nodes = (
"552 312 OFFCURVE",
"552 447 CURVE SMOOTH",
"552 538 OFFCURVE",
"427 603 OFFCURVE",
"322 603 CURVE SMOOTH",
"232 603 OFFCURVE",
"169 383 OFFCURVE",
"169 242 CURVE SMOOTH",
"169 127 OFFCURVE",
"335 86 OFFCURVE",
"407 86 CURVE SMOOTH",
"500 86 OFFCURVE"
);
},
{
closed = 1;
nodes = (
"506 57 OFFCURVE",
"567 283 OFFCURVE",
"567 418 CURVE SMOOTH",
"567 550 OFFCURVE",
"463 623 OFFCURVE",
"363 623 CURVE SMOOTH",
"238 623 OFFCURVE",
"154 396 OFFCURVE",
"154 261 CURVE SMOOTH",
"154 107 OFFCURVE",
"277 57 OFFCURVE",
"358 57 CURVE SMOOTH"
);
}
);
};
layerId = "B0B60A8F-2DEB-4A58-A43B-60A0DADABD8F";
paths = (
{
closed = 1;
nodes = (
"701 206 OFFCURVE",
"541 -9 OFFCURVE",
"317 -9 CURVE SMOOTH",
"170 -9 OFFCURVE",
"30 72 OFFCURVE",
"30 243 CURVE SMOOTH",
"30 473 OFFCURVE",
"190 688 OFFCURVE",
"414 688 CURVE SMOOTH",
"561 688 OFFCURVE",
"701 607 OFFCURVE",
"701 436 CURVE SMOOTH"
);
},
{
closed = 1;
nodes = (
"498 51 OFFCURVE",
"581 283 OFFCURVE",
"581 418 CURVE SMOOTH",
"581 572 OFFCURVE",
"460 623 OFFCURVE",
"373 623 CURVE SMOOTH",
"233 623 OFFCURVE",
"150 396 OFFCURVE",
"150 261 CURVE SMOOTH",
"150 107 OFFCURVE",
"266 51 OFFCURVE",
"358 51 CURVE SMOOTH"
);
}
);
width = 726;
}
);
unicode = 004F;
},
{
glyphname = P;
lastChange = "2021-01-28 21:04:13 +0000";
layers = (
{
background = {
paths = (
{
closed = 1;
nodes = (
"186 680 OFFCURVE",
"137 680 OFFCURVE",
"125 680 CURVE",
"117 680 OFFCURVE",
"103 678 OFFCURVE",
"101 656 CURVE SMOOTH",
"91 518 OFFCURVE",
"65 246 OFFCURVE",
"44 75 CURVE SMOOTH",
"38 28 OFFCURVE",
"32 0 OFFCURVE",
"72 0 CURVE SMOOTH",
"81 0 OFFCURVE",
"97 0 OFFCURVE",
"133 0 CURVE SMOOTH",
"160 0 OFFCURVE",
"156 28 OFFCURVE",
"160 71 CURVE SMOOTH",
"174 242 OFFCURVE",
"200 516 OFFCURVE",
"218 660 CURVE SMOOTH",
"220 678 OFFCURVE",
"211 680 OFFCURVE",
"202 680 CURVE"
);
},
{
closed = 1;
nodes = (
"199 334 OFFCURVE",
"202 331 OFFCURVE",
"211 331 CURVE SMOOTH",
"444 331 OFFCURVE",
"576 414 OFFCURVE",
"576 544 CURVE SMOOTH",
"576 626 OFFCURVE",
"498 684 OFFCURVE",
"351 684 CURVE SMOOTH",
"302 684 OFFCURVE",
"280 680 OFFCURVE",
"202 680 CURVE",
"202 584 LINE",
"209 584 LINE",
"214 629 OFFCURVE",
"225 639 OFFCURVE",
"315 639 CURVE SMOOTH",
"436 639 OFFCURVE",
"456 581 OFFCURVE",
"456 533 CURVE SMOOTH",
"456 445 OFFCURVE",
"385 374 OFFCURVE",
"215 374 CURVE SMOOTH",
"204 374 OFFCURVE",
"203 369 OFFCURVE",
"202 360 CURVE",
"200 343 LINE"
);
}
);
};
layerId = "555B79C6-6D98-46E7-9307-77C37975E414";
paths = (
{
closed = 1;
nodes = (
"196 680 OFFCURVE",
"117 680 OFFCURVE",
"105 680 CURVE",
"97 680 OFFCURVE",
"83 678 OFFCURVE",
"81 656 CURVE SMOOTH",
"71 518 OFFCURVE",
"45 246 OFFCURVE",
"24 75 CURVE SMOOTH",
"18 28 OFFCURVE",
"12 0 OFFCURVE",
"52 0 CURVE SMOOTH",
"61 0 OFFCURVE",
"107 0 OFFCURVE",
"143 0 CURVE SMOOTH",
"170 0 OFFCURVE",
"166 28 OFFCURVE",
"170 71 CURVE SMOOTH",
"184 242 OFFCURVE",
"210 516 OFFCURVE",
"228 660 CURVE SMOOTH",
"230 678 OFFCURVE",
"221 680 OFFCURVE",
"212 680 CURVE"
);
},
{
closed = 1;
nodes = (
"207 324 OFFCURVE",
"210 321 OFFCURVE",
"219 321 CURVE SMOOTH",
"452 321 OFFCURVE",
"586 407 OFFCURVE",
"586 541 CURVE SMOOTH",
"586 626 OFFCURVE",
"513 684 OFFCURVE",
"358 684 CURVE SMOOTH",
"302 684 OFFCURVE",
"290 680 OFFCURVE",
"212 680 CURVE",
"212 584 LINE",
"219 584 LINE",
"224 629 OFFCURVE",
"247 634 OFFCURVE",
"311 634 CURVE SMOOTH",
"415 634 OFFCURVE",
"446 581 OFFCURVE",
"446 533 CURVE SMOOTH",
"446 445 OFFCURVE",
"368 384 OFFCURVE",
"225 384 CURVE SMOOTH",
"214 384 OFFCURVE",
"213 379 OFFCURVE",
"212 370 CURVE",
"208 333 LINE"
);
}
);
width = 606;
},
{
background = {
paths = (
{
closed = 1;
nodes = (
"199 629 OFFCURVE",
"205 634 OFFCURVE",
"321 634 CURVE SMOOTH",
"467 634 OFFCURVE",
"525 555 OFFCURVE",
"525 418 CURVE SMOOTH",
"525 261 OFFCURVE",
"432 59 OFFCURVE",
"252 59 CURVE SMOOTH",
"194 59 OFFCURVE",
"145 65 OFFCURVE",
"149 120 CURVE",
"118 120 LINE",
"118 0 LINE",
"152 0 OFFCURVE",
"179 0 OFFCURVE",
"214 0 CURVE SMOOTH",
"551 0 OFFCURVE",
"665 241 OFFCURVE",
"665 429 CURVE SMOOTH",
"665 598 OFFCURVE",
"562 684 OFFCURVE",
"383 684 CURVE SMOOTH",
"313 684 OFFCURVE",
"265 680 OFFCURVE",
"187 680 CURVE",
"187 584 LINE",
"194 584 LINE"
);
},
{
closed = 1;
nodes = (
"196 364 OFFCURVE",
"199 362 OFFCURVE",
"208 363 CURVE SMOOTH",
"267 372 OFFCURVE",
"387 393 OFFCURVE",
"409 393 CURVE",
"409 396 OFFCURVE",
"409 401 OFFCURVE",
"409 406 CURVE",
"479 434 OFFCURVE",
"550 487 OFFCURVE",
"550 557 CURVE SMOOTH",
"550 619 OFFCURVE",
"491 684 OFFCURVE",
"340 684 CURVE SMOOTH",
"285 684 OFFCURVE",
"265 680 OFFCURVE",
"187 680 CURVE",
"187 584 LINE",
"194 584 LINE",
"199 629 OFFCURVE",
"205 646 OFFCURVE",
"301 646 CURVE SMOOTH",
"403 646 OFFCURVE",
"431 594 OFFCURVE",
"431 565 CURVE SMOOTH",
"431 502 OFFCURVE",
"365 421 OFFCURVE",
"212 406 CURVE SMOOTH",
"201 405 OFFCURVE",
"199 401 OFFCURVE",
"198 391 CURVE",
"197 373 LINE"
);
}
);
};
layerId = "B0B60A8F-2DEB-4A58-A43B-60A0DADABD8F";
paths = (
{
closed = 1;
nodes = (
"171 680 OFFCURVE",
"122 680 OFFCURVE",
"110 680 CURVE",
"102 680 OFFCURVE",
"88 678 OFFCURVE",
"86 656 CURVE SMOOTH",
"76 518 OFFCURVE",
"50 246 OFFCURVE",
"29 75 CURVE SMOOTH",
"23 28 OFFCURVE",
"17 0 OFFCURVE",
"57 0 CURVE SMOOTH",
"66 0 OFFCURVE",
"82 0 OFFCURVE",
"118 0 CURVE SMOOTH",
"145 0 OFFCURVE",
"141 28 OFFCURVE",
"145 71 CURVE SMOOTH",
"159 242 OFFCURVE",
"185 516 OFFCURVE",
"203 660 CURVE SMOOTH",
"205 678 OFFCURVE",
"196 680 OFFCURVE",
"187 680 CURVE"
);
},
{
closed = 1;
nodes = (
"184 334 OFFCURVE",
"187 331 OFFCURVE",
"196 331 CURVE SMOOTH",
"429 331 OFFCURVE",
"561 414 OFFCURVE",
"561 544 CURVE SMOOTH",
"561 626 OFFCURVE",
"483 684 OFFCURVE",
"336 684 CURVE SMOOTH",
"287 684 OFFCURVE",
"265 680 OFFCURVE",
"187 680 CURVE",
"187 584 LINE",
"194 584 LINE",
"199 629 OFFCURVE",
"210 639 OFFCURVE",
"300 639 CURVE SMOOTH",
"421 639 OFFCURVE",
"441 581 OFFCURVE",
"441 533 CURVE SMOOTH",
"441 445 OFFCURVE",
"370 374 OFFCURVE",
"200 374 CURVE SMOOTH",
"189 374 OFFCURVE",
"188 369 OFFCURVE",
"187 360 CURVE",
"185 343 LINE"
);
}
);
width = 581;
}
);
unicode = 0050;
},
